<?xml version="1.0" standalone="no"?>
<!DOCTYPE svg PUBLIC "-//W3C//DTD SVG 1.1//EN" "http://www.w3.org/Graphics/SVG/1.1/DTD/svg11.dtd" >
<svg xmlns="http://www.w3.org/2000/svg" xmlns:xlink="http://www.w3.org/1999/xlink" version="1.1">
<metadata>
Created by FontForge 20230101 at Mon Aug 22 14:37:08 2011
 By Unknown
Outahere  by Adam Roe 1993, Lunchbox Design, All Rights Reserved
</metadata>
<defs>
<font id="OutahereW00" horiz-adv-x="515" >
  <font-face 
    font-family="OutahereW00"
    font-weight="400"
    font-stretch="normal"
    units-per-em="1000"
    panose-1="2 0 5 6 4 0 0 2 0 3"
    ascent="710"
    descent="-290"
    x-height="428"
    cap-height="602"
    bbox="-239.818 -316 972 1204"
    underline-thickness="75"
    underline-position="-224"
    unicode-range="U+000D-FB02"
  />
<missing-glyph horiz-adv-x="1000" 
 />
    <glyph glyph-name=".notdef" horiz-adv-x="1000" 
 />
    <glyph glyph-name=".null" horiz-adv-x="0" 
 />
    <glyph glyph-name="uni000D" unicode="&#xd;" horiz-adv-x="0" 
 />
    <glyph glyph-name="space" unicode=" " horiz-adv-x="499" 
 />
    <glyph glyph-name="exclam" unicode="!" horiz-adv-x="288" 
d="M199 -95q-7 -2 -12 -3l-10 -2t-10 0q-5 0 -15 2q-4 1 -9 3q-2 2 -3 6l-2 6t0 6q0 2 1.5 4.5t3.5 4.5t5 4q3 1 7 2q3 1 6.5 2t6.5 1q10 0 19 -3q5 -2 10 -3q0 -2 1 -5q2 -6 2 -8q1 -3 0.5 -6t-0.5 -5q-1 -3 -1 -6zM170 75q-31 31 -47 69t-21 78t-0.5 79.5t14.5 73.5
t24.5 60t29.5 38q33 -48 55 -103.5t25.5 -109.5t-15 -102.5t-65.5 -82.5z" />
    <glyph glyph-name="quotedbl" unicode="&#x22;" horiz-adv-x="375" 
d="M404 724q-10 -70 -16 -110t-12 -61t-12 -29.5t-16 -16t-25 -20t-38 -41.5q-7 30 -12.5 58t-10 60t-8.5 70.5t-8 89.5h158zM24 483q0 26 1.5 50.5t2.5 51.5t0.5 60t-4.5 76h158q-9 -65 -12.5 -107t-3.5 -67.5t2.5 -38t5.5 -17t5.5 -5.5t2.5 -3h-158z" />
    <glyph glyph-name="numbersign" unicode="#" horiz-adv-x="565" 
d="M216 555q36 -33 50 -56.5t16 -40t-4 -28.5l-10.5 -21t-2.5 -17t19 -18q9 34 19 60q8 23 18 41.5t20 20.5q7 1 13.5 -16t11.5 -38q5 -25 10 -56q11 15 32.5 14t42.5 -8q25 -8 53 -23q15 -9 10 -15t-20 -11t-37 -9.5t-41.5 -10t-32.5 -12t-11 -15.5q2 -6 27 -14.5t54 -17.5
t53.5 -19.5t25.5 -21.5q-30 -3 -56 -6q-22 -2 -42.5 -3.5t-27.5 0.5q-4 1 -5.5 -9t-2 -24.5t-1 -32.5t-1.5 -33.5t-3 -26t-6 -10.5t-8.5 12t-10 30t-11 38.5t-10 38t-9 28.5t-6.5 9q-21 -17 -21 -46.5t8 -58.5q10 -34 28 -71q-20 6 -35 13.5t-26 15.5q-12 9 -22 18
q0 13 -2 27q-2 12 -5 27.5t-9 32.5q-1 3 -14 6t-33 6t-43 6.5t-43 6.5t-34 6t-16 5q-2 3 9 5t28 4t37 4t36.5 3.5t27 3.5t8.5 4q-21 19 -50.5 32.5t-58 25.5t-51.5 24.5t-30 31.5q33 -13 63 -19q26 -5 51.5 -5.5t39.5 13.5q10 10 14.5 25t4.5 33.5t-3 39t-7 40.5
q-11 47 -32 99z" />
    <glyph glyph-name="dollar" unicode="$" 
d="M272 -56l-28 28v10h38v-38h-10zM416 154q0 -30 -12.5 -56.5t-33.5 -46t-49 -30.5t-58 -11q-24 0 -43 4t-37 11.5t-35.5 18t-37.5 23.5v39q37 -3 56.5 -4.5t29 -1.5t11.5 1t3.5 2t5.5 2t18 1l9.5 -2.5t23.5 -5t30 -3.5t30 3.5t23 15t9 30.5q0 16 -18.5 30t-46 27.5t-60 29
t-60 36t-46 46.5t-18.5 61q0 46 16.5 72t37 40t39 19.5t22.5 11.5q1 2 -0.5 14t0 26t9.5 25t29 11q23 0 30.5 -11.5t7.5 -26.5q0 -10 -0.5 -22t0.5 -16q17 -9 27.5 -13.5t19 -8.5t17 -9.5t22.5 -16.5v-29h-124q-12 0 -26.5 -4.5t-28 -13.5t-22.5 -21t-9 -27
q0 -14 17.5 -24.5t44.5 -22t57.5 -25t57.5 -33.5t44.5 -47.5t17.5 -67.5z" />
    <glyph glyph-name="percent" unicode="%" horiz-adv-x="731" 
d="M632 1q0 17 -10 30.5t-22 23.5q-14 11 -32 20q-14 0 -27 -10t-24 -22q-12 -14 -23 -32q0 -15 9.5 -28t21.5 -23.5t22 -16.5l10 -6q16 0 30 6t24 15t15.5 20.5t5.5 22.5zM271 308q0 13 -6 25t-15 20.5t-20.5 13.5t-22.5 5q-12 0 -23.5 -9.5t-20.5 -21.5t-14.5 -22
t-5.5 -11q0 -5 5.5 -15t13.5 -21t17.5 -19t17.5 -8q33 0 53.5 19t20.5 44zM695 1q0 -33 -12 -53.5t-31.5 -32.5t-44 -16.5t-50.5 -4.5q-42 0 -65 12.5t-34.5 30.5t-14 38t-2.5 36q0 26 10.5 47.5t28.5 37t41 24t47 8.5q19 0 41 -7t41 -22t32 -39t13 -59zM260 -85l-33 8
l269 501l30 -20zM335 298q0 -23 -11 -42.5t-29 -33.5t-41 -22t-47 -8q-35 0 -58 10t-36 26.5t-18 37.5t-5 42q0 65 33 91t84 26q28 0 52 -9.5t40.5 -26.5t26 -40.5t9.5 -50.5z" />
    <glyph glyph-name="ampersand" unicode="&#x26;" horiz-adv-x="636" 
d="M313 98q-2 2 -1 8t2 14t0 17t-6 18q-3 4 -9.5 7t-13.5 6t-13.5 6t-8.5 8h-51q3 -5 -0.5 -8t-9 -7.5t-11.5 -11t-7 -17.5q-1 -4 4 -8t11 -9t10 -10.5t3 -12.5h101zM263 416q-4 -16 -5 -29q-1 -11 1.5 -21t11.5 -12q8 -2 15.5 4t12.5 14q6 10 12 22zM513 199
q-9 -16 -17 -33q-7 -14 -12.5 -31t-5.5 -31q-1 -16 4 -33.5t11 -32.5q7 -18 16 -36l-11.5 4t-29.5 9t-41.5 9t-47.5 3q-23 0 -45.5 -5t-41 -10t-31 -9.5t-15.5 -4.5q-20 0 -46 -1t-49.5 8t-39.5 33.5t-16 76.5q0 29 10 53t22.5 41.5t23 27.5t11.5 12q5 12 2.5 35t-5.5 51
t-2.5 57t12 53t37.5 39.5t73 15.5q52 0 84.5 -17t32.5 -67q0 -28 -8 -48.5t-17 -37t-17 -31.5t-8 -33q0 -33 13.5 -47.5t36 -19t53 -2.5t64.5 2z" />
    <glyph glyph-name="quotesingle" unicode="'" horiz-adv-x="188" 
d="M196 740q-16 -58 -29.5 -94t-24.5 -59t-19 -36t-11.5 -24t-3 -24t6.5 -35l-92 -11v297z" />
    <glyph glyph-name="parenleft" unicode="(" horiz-adv-x="528" 
d="M386 -246q-40 95 -65.5 165.5t-40 123t-20.5 92.5t-7.5 75t0 69.5t1.5 76.5q0 13 1.5 56t7 102t17 127.5t32.5 132.5t52.5 118t77.5 84v-96q-5 -7 -26.5 -51t-45 -115t-42 -163t-18.5 -195q0 -3 3.5 -36t11 -83t18.5 -110t25.5 -117.5t33 -106.5t40.5 -75v-74h-56z" />
    <glyph glyph-name="parenright" unicode=")" horiz-adv-x="528" 
d="M248 336q0 -82 -6 -162.5t-23 -159.5t-48 -156t-81 -152h-40q16 62 33 116t32 104t28.5 98.5t23.5 100.5t15.5 109t5.5 124q-9 113 -25 217q-7 44 -16 91t-20 91t-25.5 83t-31.5 68v80q34 -27 66 -77t57 -128.5t40 -188.5t15 -258z" />
    <glyph glyph-name="asterisk" unicode="*" horiz-adv-x="362" 
d="M356 92q-37 -7 -58 -9t-32.5 -4t-17 -4.5t-11 -10t-15 -22t-29.5 -38.5q-31 34 -49.5 53t-30.5 27.5t-19.5 9.5t-15.5 -0.5t-19 -3.5t-30 2q4 25 7 41t5 28t2.5 22t-1 24t-5 34t-8.5 52q37 9 59.5 15.5t35.5 13t19 14.5t10.5 22t9.5 35t17 52q32 -47 51 -74.5t30.5 -42.5
t19 -20t16.5 -6.5t22 -2t37 -6.5q-9 -38 -12 -62.5t-2 -45t5 -41.5t9 -52z" />
    <glyph glyph-name="plus" unicode="+" 
d="M473 221q-63 -18 -98 -28.5t-52.5 -20.5t-22.5 -23t-7.5 -35.5t-8 -59t-24.5 -93.5q-15 45 -20.5 80t-10 62t-12.5 46t-28 31t-56 17.5t-96 5.5v55q64 9 101.5 17t57 19t26 27t10 40t8 57.5t20.5 81.5q24 -71 40 -114.5t27 -67t19 -31.5t15 -9t15.5 1.5t21 -0.5
t30.5 -15.5t45 -42.5z" />
    <glyph glyph-name="comma" unicode="," horiz-adv-x="257" 
d="M224 241q-29 -32 -43.5 -56t-21.5 -42.5t-11.5 -33t-12.5 -27t-24 -24.5t-47 -25v156q26 29 37 60t15.5 58t7 46.5t12.5 26.5q6 3 18.5 -5t29 -17.5t36 -15.5t38.5 2z" />
    <glyph glyph-name="hyphen" unicode="-" horiz-adv-x="294" 
d="M250 311q0 -17 -10.5 -24.5t-26 -9.5t-33 -1t-32.5 1q-34 0 -50.5 -1t-22.5 1.5t-5.5 9.5t0.5 24t5 24.5t15.5 9.5t27.5 1t42 -1q7 0 22 1t30 -1t26.5 -9.5t11.5 -24.5z" />
    <glyph glyph-name="period" unicode="." horiz-adv-x="257" 
d="M172 106q16 -9 22.5 -24.5t5.5 -33.5t-9 -35.5t-21 -30.5q-23 -23 -54.5 -27.5t-56.5 16.5q-17 14 -18.5 35t7.5 41.5t25.5 37.5t37.5 23q17 5 31 5.5t30 -7.5z" />
    <glyph glyph-name="slash" unicode="/" horiz-adv-x="434" 
d="M329 434q0 -2 3.5 -3t3.5 -3q-3 -18 -12.5 -52t-23.5 -76t-31.5 -89t-37.5 -90t-40.5 -79t-41.5 -57q-5 -5 -9.5 -3t-9.5 -1q25 43 54 99.5t56 117.5t50.5 122.5t38.5 113.5z" />
    <glyph glyph-name="zero" unicode="0" 
d="M326 289q-2 35 -14.5 68.5t-19.5 59.5q-8 2 -16 5q-7 2 -15 4t-15 2t-14 -2l-14 -4q-8 -3 -16 -5q0 -8 -8.5 -16t-18.5 -24t-18.5 -42.5t-7.5 -72.5q0 -17 7.5 -37t17 -43.5t18 -51t10.5 -59.5q6 -9 12 -16q5 -6 12.5 -11t15.5 -6t17 4t17 12q9 7 16 17q12 52 24.5 107
t9.5 111zM437 236q0 -69 -10 -117t-27 -80.5t-38 -51.5t-43 -28.5t-42.5 -12t-36.5 -2.5q-45 0 -76 16.5t-51.5 43t-32 61t-17 71t-7 72t-1.5 64.5q0 62 13.5 112.5t39 86t63 55t85.5 19.5q43 0 73 -17.5t50 -46t32 -63t17.5 -69t7 -64.5t1.5 -49z" />
    <glyph glyph-name="one" unicode="1" 
d="M317 44q0 -32 -8 -49t-21.5 -26.5t-32 -14.5t-39.5 -12q-4 13 2.5 41.5t14.5 69t14.5 90.5t2.5 105.5t-22.5 113.5t-60.5 114q-2 19 -7.5 23.5t-13 7.5t-16 9.5t-15.5 30.5q48 9 66 10.5t22.5 -1t4 -6t8.5 -3.5q28 0 47.5 -2t31.5 -10t17 -24t5 -44v-423z" />
    <glyph glyph-name="two" unicode="2" 
d="M452 374q0 -48 -25 -94.5t-55 -88.5t-55 -76t-25 -56q0 -21 9.5 -30t25.5 -17.5t38 -23.5t47 -49h-318q35 81 76.5 135.5t77 98.5t59.5 86t24 96q0 37 -10.5 57t-24 29t-26.5 10.5t-17 1.5q-21 0 -32.5 -5.5t-19 -14t-13.5 -19t-14 -20.5h-80v79q40 39 67 56t47 22t35 3
t30 -2q57 0 92 -14.5t54.5 -39t26 -57t6.5 -67.5z" />
    <glyph glyph-name="three" unicode="3" 
d="M412 100q0 -37 -16.5 -68t-41.5 -54t-55 -36t-57 -13q-39 0 -72 17t-78 58v76q39 -10 66 -20t44.5 -18.5t26.5 -13.5t13 -5q10 0 20 10.5t18 25.5t13 31t5 27q0 31 -9 50t-19.5 34t-19 29.5t-8.5 37.5q0 26 8.5 41t19 26t19.5 21t9 27q0 27 -9.5 43t-24.5 24t-35 9
t-41 -1.5t-41.5 -8t-37.5 -10.5v57q32 25 47 37t27 16.5t27.5 4t49.5 -0.5q35 0 63.5 -15t48 -37.5t30 -49.5t10.5 -50q0 -18 -12 -32.5t-25.5 -27.5t-22.5 -26t-4 -28q-15 -26 -6.5 -54.5t24 -54t31 -46.5t15.5 -32z" />
    <glyph glyph-name="four" unicode="4" 
d="M444 77q0 -11 -7 -34.5t-20 -47.5t-32 -42.5t-44 -18.5q-9 28 -25 53q-14 21 -36 41.5t-57 28.5q-13 14 -33 17.5t-42.5 4t-45.5 3.5t-44 15q20 54 42 103t59 82q6 -11 0 -27.5t-13.5 -33t-11.5 -30t5 -18.5q-3 -17 6.5 -27.5t25 -16.5t34.5 -8.5t35 -2.5q15 0 26.5 15.5
t19.5 36t12 41t4 29.5q0 29 -13 44.5t-28.5 28t-28.5 27.5t-13 43q0 17 11 47.5t30.5 60t44.5 51.5t54 22q4 0 14 -8.5t18.5 -26t13 -43t-0.5 -58.5q5 -16 -1.5 -34t-15 -38t-13.5 -42.5t4 -46.5q-3 -20 6.5 -41.5t23 -45.5t25 -49.5t11.5 -53.5z" />
    <glyph glyph-name="five" unicode="5" horiz-adv-x="517" 
d="M465 158q0 -27 -16 -66t-46.5 -74t-76 -60t-105.5 -25q-38 0 -57.5 11.5t-27.5 25.5q-10 17 -8 38q36 12 72.5 16.5t66.5 16t48.5 37.5t18.5 80q0 43 -15.5 60.5t-38 23.5t-49.5 7t-49.5 9.5t-38 32t-15.5 74.5q0 31 6.5 57.5t17.5 49.5t24 43t27 37h206v-75
q-36 0 -57.5 0.5t-35 -0.5t-22 -4.5t-17.5 -12t-21.5 -22.5t-34.5 -36q37 -36 79.5 -62.5t79 -52t61 -55.5t24.5 -74z" />
    <glyph glyph-name="six" unicode="6" 
d="M338 167q0 19 -7.5 35.5t-19 28.5t-24 19t-22.5 7q-24 0 -39 -18t-15 -54q0 -23 2 -34.5t8 -19t16.5 -15t27.5 -22.5q28 25 50.5 40.5t22.5 32.5zM464 185q0 -32 -13 -64t-38.5 -58t-62.5 -42.5t-85 -16.5q-32 0 -64 13.5t-58 39.5t-42 62.5t-16 83.5q0 37 14.5 84
t40.5 97.5t62.5 101.5t80.5 96h37v-55q-7 -11 -13.5 -18.5t-12 -17.5t-8.5 -26.5t-3 -45.5q0 -22 13.5 -35.5t33.5 -25.5t43.5 -24.5t43.5 -31t33.5 -46.5t13.5 -71z" />
    <glyph glyph-name="seven" unicode="7" 
d="M458 550q-2 -17 -15.5 -59t-34 -97t-46.5 -117t-54 -119.5t-55.5 -104t-50.5 -70.5q-5 11 -11.5 22.5t-6.5 32.5q0 55 20 105.5t44 96t44 86.5t20 78q0 26 -13.5 43.5t-36.5 28t-52.5 15t-61.5 4.5v55h310z" />
    <glyph glyph-name="eight" unicode="8" 
d="M368 166q1 3 -2.5 8t-9 10.5t-10 12t-5.5 12.5l-53 22l-60 -22l-23 -57l23 -57l38 -19l75 19q1 15 7.5 24.5t12.5 17t9.5 14t-2.5 15.5zM341 473q-9 1 -15 10.5t-11.5 18.5t-12.5 14t-18 -3q-5 3 -12 -2t-14.5 -13.5t-15 -16t-14.5 -8.5l-12 -35l12 -40l58 -34l55 34
l15 38zM473 133q0 -60 -21 -91.5t-51 -45t-62.5 -14.5t-54.5 -1q-50 0 -83 13t-52.5 36t-27 54.5t-7.5 67.5q0 35 4 56t10.5 34t14 20t14 14t10.5 17.5t4 28.5q0 1 -9 13.5t-19.5 32t-19.5 42.5t-9 45q0 43 23 72t52 46t57 24.5t38 7.5q29 0 62 -11.5t61.5 -31.5t47 -47.5
t18.5 -59.5q0 -20 -9 -42.5t-19.5 -44t-19 -39t-8.5 -26.5q0 -2 8.5 -9.5t19 -25.5t19.5 -50.5t9 -84.5z" />
    <glyph glyph-name="nine" unicode="9" 
d="M320 382q0 13 -7 24.5t-17 20.5t-21.5 14.5t-20.5 5.5q-17 0 -34 -5.5t-30.5 -14t-22 -18.5t-8.5 -20q0 -14 5.5 -26t12.5 -24t13 -23t7 -21l57 -21l57 21q-3 21 3 43t6 44zM445 333q0 -17 -11 -48t-29 -68.5t-41 -78.5t-47 -77.5t-48 -65.5t-43 -43q-7 22 -7.5 42
t1.5 41t4.5 45.5t2.5 56.5q0 26 -12 38t-30 19.5t-39.5 15t-39.5 25t-30 49t-12 87.5q0 36 13 70.5t38 61t60 42.5t79 16q24 0 57 -15.5t62.5 -45t50.5 -71.5t21 -96z" />
    <glyph glyph-name="colon" unicode=":" horiz-adv-x="257" 
d="M123 4v58h58v-58h-58zM171 406q-7 -17 -23.5 -23.5t-33.5 0.5t-23 23.5t1 33.5q7 16 23.5 22t33.5 -1q16 -7 22.5 -22.5t-0.5 -32.5z" />
    <glyph glyph-name="semicolon" unicode=";" horiz-adv-x="257" 
d="M209 55q-2 -7 -3.5 -21.5t-9.5 -35t-26 -46.5t-53 -56q-3 45 -6.5 74t-6.5 46.5t-5.5 26t-3.5 12.5h114zM140 305v69h46v-69h-46z" />
    <glyph glyph-name="less" unicode="&#x3c;" 
d="M370 369q-21 -44 -42.5 -69t-42.5 -40t-40 -23.5t-33 -19.5t-22.5 -29t-8.5 -51q0 -21 23 -41t52.5 -41.5t57.5 -47.5t39 -59q-45 10 -88 37.5t-77 60t-55 63t-21 46.5q0 8 17.5 35.5t51 61t81.5 66.5t108 51z" />
    <glyph glyph-name="equal" unicode="=" 
d="M166 59v45h289v-45h-289zM144 348v44h311v-44h-311z" />
    <glyph glyph-name="greater" unicode="&#x3e;" 
d="M416 236q0 -7 -19 -27.5t-48 -47t-62 -56t-62 -54t-48 -40.5l-19 -16h-38v38q51 44 89 71t63.5 47.5t38 39t12.5 45.5q0 4 -6.5 20.5t-27.5 42t-61.5 57t-107.5 65.5v55h38q78 -64 128.5 -106.5t79 -69.5t39.5 -41.5t11 -22.5z" />
    <glyph glyph-name="question" unicode="?" horiz-adv-x="446" 
d="M196 1v37h56v-37h-56zM402 413q0 -17 -15 -48t-42.5 -64.5t-65.5 -64.5t-83 -48v57q9 35 14 53.5t8.5 27t6 10t8 2.5t14.5 4t24 15l14 48l-14 65q-12 0 -18 5t-9.5 11t-6.5 10.5t-10 3.5q-29 20 -45 16.5t-28.5 -15t-27.5 -23.5t-43 -8v56q5 3 17.5 12t31.5 19t44 17.5
t57 7.5q31 0 61.5 -11t54.5 -32t38.5 -52.5t14.5 -73.5z" />
    <glyph glyph-name="at" unicode="@" horiz-adv-x="555" 
d="M359 266q-11 -2 -32 -5t-44 5q4 -10 5 -16t-0.5 -10.5t-3 -8.5t-1.5 -10q0 -11 3 -16t8.5 -7t14 -3t19.5 -5q5 5 16.5 9t14.5 6v61zM540 281q-2 0 -8.5 5t-14.5 10.5t-15 10t-8 4.5q-18 -18 -27.5 -25.5t-13 -12.5t-4 -12t-0.5 -25q0 -29 7 -38.5t15.5 -14t15.5 -10.5
t7 -28q0 -27 -5.5 -39t-17 -15.5t-28 -2.5t-38.5 1.5t-48.5 -3t-58.5 -17.5v-31q33 -15 51 -22t26 -9t9 0.5t2 7.5t4 11t14 12v-45h-152q-2 1 -17 12.5t-36.5 30.5t-46.5 44t-46.5 53.5t-35.5 58.5t-14 59q0 7 16 35t45 61.5t68.5 65.5t86.5 49q-35 -18 -53 -28.5t-30 -20
t-23.5 -22t-34.5 -35.5v-120q36 13 52 22.5t21 17t3.5 13.5t0 13.5t10.5 16.5t34 22q18 9 39.5 10.5t46.5 3t53 8t58 24.5q-5 18 -12 31t-18 29h30q22 -18 33.5 -26.5t16.5 -12.5t6.5 -5.5t4 -5.5t9 -13t21.5 -28v-75z" />
    <glyph glyph-name="A" unicode="A" horiz-adv-x="586" 
d="M353 338q-7 2 -11.5 0t-5.5 0q-9 26 -10 33.5t-2.5 10.5t-5.5 9.5t-19 29.5h-12q-8 -10 -14 -13.5t-11 -4t-8.5 -0.5t-5.5 -3q-9 -15 -11.5 -27t-2.5 -21.5v-17t-3 -12.5q-4 1 -8 -1q-3 -2 -5 -6t-2 -15q0 -9 4 -21t12 -23.5t20 -19t29 -7.5q18 0 28.5 4t17.5 9t12.5 11
t13.5 9v76zM548 58q0 -6 -4.5 -13.5t-11.5 -14.5t-16 -12t-18 -5q-21 0 -38.5 19t-40 42.5t-53.5 42.5t-79 19q-41 0 -67.5 -9t-44 -23t-28.5 -29.5t-21 -29.5t-22.5 -23t-31.5 -9q-15 0 -22.5 4t-10.5 11t-3 17v23q0 9 6.5 35.5t19 64.5t30.5 84.5t40 94.5q7 15 14.5 40.5
t16.5 55t20 60t26 55t34 40t44 15.5q22 0 27 -2t5 -5t0.5 -5t13.5 -2q9 0 21 -17t25 -44.5t26 -62t24 -68.5q18 -59 30.5 -91.5t20 -49.5t10.5 -24t3 -14q0 -5 8.5 -29t19 -52.5t19 -54t8.5 -34.5z" />
    <glyph glyph-name="B" unicode="B" horiz-adv-x="508" 
d="M327 143q-11 6 -12.5 8t1.5 5t7 10.5t4 23.5q0 23 -13.5 41t-38.5 18q-17 0 -24 -3t-11 -7t-8 -8.5t-15 -7.5v-71q10 -6 15 -11.5t8.5 -9.5t8.5 -6.5t14 -2.5q13 0 27 7t37 14zM318 449q-11 6 -14 14t-5 15t-8 12t-23 5q-20 0 -35.5 -11.5t-15.5 -34.5q0 -12 2 -18t4 -10
t4 -9t2 -15h16t14 -12l59 47v17zM463 177q0 -26 -11.5 -48t-28 -39.5t-36.5 -31.5t-37 -23.5t-28.5 -14.5l-11.5 -5h-166q-6 6 -7.5 9t-3 3.5t-6 0.5h-16.5q-8 19 -13 36q-5 14 -9 26.5t-4 14.5v369q0 42 7 65t16 35.5t18 18.5t14 13h195q10 -9 25 -21q26 -21 73 -64v-97
q0 -4 -4 -11t-8.5 -17.5t-8.5 -26t-4 -36.5q0 -24 8.5 -42t19 -35.5t19 -36t8.5 -42.5z" />
    <glyph glyph-name="C" unicode="C" horiz-adv-x="495" 
d="M472 100q0 -18 0.5 -30.5t-3.5 -22t-15 -18t-35 -18.5h-57q-17 -8 -25 -13.5t-22 -4.5q-4 5 -12 9q-7 3 -17.5 6t-27.5 3q-50 0 -82 13.5t-55.5 36.5t-42 52.5t-42.5 62.5q-8 11 -15 20.5t-11 14.5v179q7 14 11.5 22.5t8 14t6 10t4.5 11.5q11 44 39.5 73.5t62 48.5
t65.5 30t51 20q15 7 40.5 5.5t50.5 -6.5q29 -5 62 -14q6 0 15 -3t18.5 -7.5t17.5 -11t10 -14.5q6 -23 -4.5 -40.5t-30.5 -15.5q-14 2 -17.5 9t-8.5 9l-17 1.5t-43.5 0t-57.5 -8.5t-60 -23q-7 -4 -19 -10.5t-24.5 -15.5t-22.5 -19.5t-13 -21.5q-11 -38 -21 -59.5t-15.5 -38
t-4 -34t15.5 -47.5q-5 -11 -2 -26q2 -13 12.5 -31.5t35.5 -43.5q31 -31 55 -47t44.5 -22t40.5 -4.5t42.5 6t50.5 9t64 4.5z" />
    <glyph glyph-name="D" unicode="D" horiz-adv-x="564" 
d="M441 319q0 28 -4.5 48t-9.5 34t-9.5 24.5t-4.5 20.5q-9 1 -13 5t-7 10.5t-6.5 14.5t-11.5 16q-3 3 -10 6.5t-14.5 7.5t-13.5 9.5t-7 14.5q-15 0 -27 -1t-14 13q-25 3 -48.5 -2.5t-42 -19t-29.5 -36t-11 -53.5v-132q0 -26 -1.5 -47.5t-1.5 -37.5t3 -24.5t12 -8.5
q1 -12 3 -17.5t4.5 -9.5t5 -10t4.5 -20q5 3 9.5 1.5t11.5 -4.5t19 -6t32 -3q35 0 49.5 7.5t19.5 4.5q7 13 11 14.5t18 1.5q4 13 11 19t14.5 10.5t13 12t5.5 24.5q10 1 13.5 8t5 16.5t2 20.5t5.5 20q3 1 7 6q2 5 4.5 14t2.5 28zM565 310q-5 -15 -8 -16.5t-4.5 -2t-2 -8.5
t-0.5 -37q0 -14 -3 -20.5t-7 -12t-9 -11t-9 -16.5q-12 -33 -25.5 -52.5t-29 -33.5t-33.5 -26t-39 -30q-5 0 -12.5 -4.5t-20 -9.5t-32 -9.5t-48.5 -4.5h-121q-1 0 -12.5 -0.5t-26.5 0t-30.5 3.5t-24.5 11q-5 5 -3 12t-2 11q-12 15 -17.5 31.5t-7 32t-1 29t0.5 22.5
q0 41 -0.5 62.5t0.5 22.5q2 5 7.5 6.5t7.5 6.5v41v79q-2 6 -7.5 9t-7.5 11q-2 28 -1 54q1 23 4 48t12 45q-1 13 3 26q3 11 11.5 23.5t27.5 23.5q5 3 13.5 3t23 -0.5t36 -1.5t52.5 -1q30 0 48 1.5l30 2.5t21 0.5t22 -4.5q37 -12 68 -31.5t54.5 -40.5t38.5 -42.5t21 -37.5
q2 -5 8 -16.5t20 -39.5q1 -3 1 -10t-1 -15.5t-1 -17t1 -13.5q0 -2 4 -5.5t8 -9.5t5.5 -15t-2.5 -22z" />
    <glyph glyph-name="E" unicode="E" horiz-adv-x="413" 
d="M348 27q-8 0 -13.5 -4.5t-13.5 -9.5t-35.5 -2.5t-91.5 2.5h-93q-7 4 -9 7t-3.5 4.5t-4.5 2t-10 0.5q0 10 -4 22t-9.5 28t-9.5 37.5t-4 52.5v142v146q0 29 4 46.5t9.5 30.5t9.5 25t4 32q8 0 11 1t4.5 2.5t3.5 4t8 6.5q4 3 13.5 3t25.5 -0.5t40.5 -1.5t60.5 -1
q30 0 54 -2.5t38 -8t15 -15t-16 -23.5t-39 -21t-42.5 -12t-37 -10t-21.5 -15q-25 -50 -6.5 -77.5t63.5 -38.5q5 -1 11 -8t9 -8q15 3 28 4q11 1 22.5 0t17.5 -6q13 -11 19.5 -18t7 -13t-5 -13t-15.5 -17q-12 -12 -27.5 -13.5t-33.5 -3t-37.5 -6.5t-38.5 -24
q-36 -36 -32 -73.5t35 -63.5q7 -6 12.5 -7.5t10.5 -1.5t10.5 -0.5t12.5 -4.5q3 -2 15.5 -6.5t27.5 -9t29 -8t21 -3.5v-49z" />
    <glyph glyph-name="F" unicode="F" horiz-adv-x="407" 
d="M368 304q-4 -8 -12.5 -6.5t-9.5 1.5q-12 -7 -20 -8t-14.5 -0.5t-13.5 0.5t-18 -4q-5 -2 -9 -8.5t-18 -6.5q-1 0 -15.5 -3t-43.5 -27q-7 -8 -11 -18q-5 -8 -8 -18t-3 -18v-55t-0.5 -26t-1.5 -9t-2 -4.5t-3 -12.5t-5 -33q-2 -15 -18 -28t-42 -11q-11 2 -23.5 18.5
t-12.5 35.5q0 10 0.5 21t-0.5 13q-9 17 -12 38t-4 51t0 70.5t1 96.5v145q4 30 13 55q8 21 20 40.5t31 24.5q0 -1 19 -1q17 -1 55 -1h113q18 0 32 -4.5t22.5 -10.5t10.5 -13t-4 -12q-13 -12 -27 -21q-12 -8 -27 -14t-30 -6q-21 0 -31 -1t-16 -4.5t-12 -11t-19 -20.5
q-5 -5 -9 -17t-5 -26t1.5 -27.5t9.5 -20.5q15 -15 25.5 -19.5t19 -4.5t14 1.5t10.5 -1.5q11 -6 10.5 -9.5t-0.5 -4.5t6.5 -1h30.5h11h14q10 -6 8.5 -8t-3 -2.5t2 -2t23.5 -5.5q0 -23 1 -33.5t-1 -12.5z" />
    <glyph glyph-name="G" unicode="G" horiz-adv-x="669" 
d="M645 247q0 -57 -23 -97t-65 -78q-7 -6 -20 -17t-29 -22t-32.5 -19.5t-30.5 -9.5q-31 -3 -49.5 -7t-30.5 -6.5t-21 -3t-22 4.5q-5 2 -10 8t-8 7q-4 1 -12 0.5t-21 0t-31 5.5t-42 19q-7 4 -17.5 12.5t-22 18.5t-23 21t-18.5 20q-8 10 -13 13t-11.5 10t-16.5 21.5t-28 46.5
q-2 4 0 15.5t0 16.5q-9 15 -12 25t-3.5 23t0.5 33t1 54q8 25 21 53q11 24 29.5 55t46.5 63q21 15 42 29q18 12 39.5 24t41.5 19q7 2 14.5 -2t17.5 2q5 4 4 8t7 6h125q12 -7 23 -12q10 -5 21 -8.5t22 -5.5q4 0 16.5 -8t25.5 -18.5t23.5 -22t11.5 -19.5q1 -19 -1 -30t-8 -17
t-17 -7t-27 1q-30 15 -61 26q-26 10 -57 18.5t-57 8.5q-14 0 -36 -8.5t-45.5 -23t-44.5 -32t-31 -35.5q-8 -15 -15.5 -37t-11 -46.5t-1.5 -51t14 -50.5q-1 -12 3 -25q3 -12 12 -27.5t27 -33.5q2 -2 10 -9t17.5 -14.5t19 -14t15.5 -7.5q5 -2 12.5 1.5t12.5 0.5
q44 -23 87.5 -16.5t80.5 38.5q15 13 21 23t6 20t-4.5 21.5t-11.5 26.5q-7 7 -13 12q-5 5 -9.5 9t-4.5 6q-4 12 7.5 26.5t33.5 18.5h17t6.5 0.5t5.5 3.5t13 9q4 3 10 1.5t14.5 -4.5t19.5 -6.5t26 -3.5q14 0 29.5 -13t15.5 -37z" />
    <glyph glyph-name="H" unicode="H" horiz-adv-x="602" 
d="M564 125v-35t-1.5 -13.5t-4.5 -11.5t-9 -29q-2 -8 -10.5 -13.5t-19.5 -7t-22.5 1.5t-20.5 13q-11 6 -15.5 15.5t-6 20t-1 22t0.5 23.5q0 1 -2 2.5t-5 9t-5 24.5t-2 50q0 22 -5 39.5t-20 32.5q-17 17 -26 24t-13 8.5t-5 -2t-2.5 -6t-6 -3.5t-14.5 4q-1 1 -5 8.5t-18 7.5
q-21 0 -28.5 0.5t-11.5 -1t-9.5 -5t-23.5 -10.5l-8.5 1t-20.5 -2t-25.5 -14t-23.5 -35q-7 -15 -10 -23t-3.5 -17.5t0 -26t0.5 -49.5q0 -1 -2.5 -2t-5 -6t-5 -15.5t-2.5 -30.5q0 -12 -5 -24t-13.5 -20.5t-19 -12.5t-22.5 -1t-18.5 13t-10 22t-5 23t-2.5 17q-3 9 -7 9t-6 5
v162v179q0 36 0.5 51t2 21t4 8t6.5 11q1 3 -0.5 12.5t-0.5 21t8.5 23.5t26.5 20q16 7 30 -3.5t24.5 -31t16.5 -48.5t6 -57q0 -28 12 -44.5t30.5 -25t41.5 -11t46 -2.5h49.5t39.5 4.5t29 15t18 30.5q2 6 7 5.5t6 9.5q2 17 -1 32t1 23q2 3 8.5 6.5t6.5 11.5q0 34 6 57.5
t34 27.5q34 4 49.5 -22t19.5 -71t2 -102.5t-2 -115.5v-178z" />
    <glyph glyph-name="I" unicode="I" horiz-adv-x="243" 
d="M189 321q0 -79 1 -127t-2.5 -79t-13.5 -52.5t-32 -46.5h-21.5t-10.5 2t-7 6t-11 12q-14 13 -20 34.5t-7.5 52.5t-1 73.5t0.5 98.5v159q0 12 2 35t7.5 47t15.5 43t27 23q5 1 14 -1t18 -7t16.5 -11.5t10.5 -13.5q1 -2 0.5 -9.5t-1 -16.5t-0.5 -17t1 -11q1 -1 7.5 -8
t6.5 -27v-159z" />
    <glyph glyph-name="J" unicode="J" horiz-adv-x="367" 
d="M315 216q0 -3 -2 -5t-5 -4.5t-5 -6t-2 -10.5q0 -22 1 -35t1.5 -20.5t0 -12t-3.5 -9.5q-17 -29 -25.5 -38t-12 -11.5t-3.5 -4.5v-16q-8 -1 -16.5 -5.5t-20 -10t-27.5 -9.5t-39 -4q-36 0 -56.5 4.5t-41.5 24.5q-6 21 -4 39q2 15 11.5 27.5t35.5 12.5q9 0 22.5 4.5t25.5 13
t20.5 20.5t9.5 27q3 6 6 31q2 21 4.5 64.5t2.5 122.5q0 54 -1 85.5t-0.5 50t4 28.5t11.5 21q1 4 10 14.5t14 10.5q9 1 19 1t19.5 -3.5t18 -10.5t14.5 -20q3 -7 1 -17t-3.5 -21.5t-0.5 -22t10 -17.5q9 -9 8 -27t-1 -52v-78q0 -43 0.5 -67t0.5 -37v-18t-1 -9z" />
    <glyph glyph-name="K" unicode="K" horiz-adv-x="569" 
d="M519 49q0 -12 -4.5 -19.5t-12 -12.5t-16.5 -9.5t-17 -10.5q-2 3 -7 5t-13 6t-19.5 11t-25.5 19q-9 7 -12 10t-3.5 6t-1.5 7t-5 14q-4 8 -14 10.5t-14 16.5q-2 4 -7.5 13.5t-11.5 20.5q-7 12 -16 26q-14 15 -22 25t-13 16.5t-10 10t-14 5.5q-17 2 -21.5 -10t-9.5 -25
q-2 -3 -7.5 -6t-5.5 -12v-36t-0.5 -20t-2 -10t-4.5 -5q-4 -4 -4.5 -11.5t-1.5 -17t-5 -20.5t-16 -21t-19.5 -13.5t-13.5 -1.5t-12.5 8.5l-15.5 15.5q-12 12 -17.5 25.5t-8 31t-2 38.5t0.5 47v147v145q0 10 2 30.5t7 41.5t14 39t24 24q13 6 26.5 -2t24.5 -24t17.5 -39
t6.5 -47q0 -14 13 -28t36 -14q7 0 21.5 9t37.5 37q13 16 21 22t19 17q5 5 4 12t2 12q2 2 10 9t18 15t19.5 14t15.5 7q26 4 42 1.5t16 -25.5t-3 -39.5t-19 -32.5q-9 -9 -26 -24t-34.5 -34t-30 -39t-12.5 -38q0 -9 -2.5 -11.5t-5 -4t-5 -4t-2.5 -11.5q0 -5 7.5 -11t7.5 -21
q0 -11 4 -18.5t8.5 -15t9 -16t6.5 -19.5q0 -1 8.5 -7.5t18.5 -15.5t18.5 -20t9.5 -21q0 -1 7.5 -15t34.5 -45q2 -2 6.5 -11t9.5 -19.5t8.5 -20.5t3.5 -16z" />
    <glyph glyph-name="L" unicode="L" horiz-adv-x="371" 
d="M354 45q-8 -10 -19.5 -20t-32.5 -10h-120q-24 0 -38 -1t-25 1t-20.5 8t-24.5 20q-6 6 -12.5 30.5t-6.5 80.5v241v120q0 8 3 24.5t9 34t15.5 30.5t21.5 15q34 4 47.5 -21.5t16 -69t-1 -99t-3.5 -110.5q0 -19 2 -29.5t4.5 -17t5 -10.5t3.5 -9q0 -1 -0.5 -12t-1.5 -25.5
t-1 -27.5t1 -17q1 -2 7 -6t7 -6q6 -24 24.5 -37t40 -19t42 -7t31.5 -1q1 -6 8 -11.5t13 -11.5t8.5 -12.5t-3.5 -14.5z" />
    <glyph glyph-name="M" unicode="M" horiz-adv-x="737" 
d="M676 9l-30 23q-18 27 -26 60t-15.5 69t-19 75t-34.5 78q-40 -13 -60.5 -39t-31 -57.5t-15 -64.5t-12 -60t-22.5 -44t-47 -17q-28 0 -40.5 14.5t-18.5 39.5t-10 57t-13.5 68t-29.5 72.5t-58 69.5q-28 -24 -39.5 -50.5t-16 -55.5t-5 -59t-6 -59.5t-20 -59t-46.5 -56.5
q-9 14 -13.5 27t-4.5 29q0 13 1 57t4.5 102.5t11 123.5t20 119.5t31.5 90t45 35.5q32 0 51 -25t31.5 -63t22 -81.5t24 -81.5t37 -63t60.5 -25q23 0 37 25t24 63t19 81.5t22 81.5t33.5 63t53.5 25q25 0 42.5 -25t29.5 -64.5t20 -88.5t14 -97t12 -90.5t14 -68.5v-131z" />
    <glyph glyph-name="N" unicode="N" horiz-adv-x="661" 
d="M582 309q0 -24 5 -54t10 -61.5t6.5 -62t-4.5 -54t-23 -38t-50 -14.5q-28 0 -48.5 19t-39.5 49.5t-38.5 70.5t-45.5 82t-62.5 83t-87.5 74q-9 -18 -17.5 -46.5t-14.5 -62t-9.5 -69.5t-2.5 -69.5t7 -63t19 -48.5q-11 -15 -23 -26q-11 -10 -23.5 -18t-25.5 -6q-11 1 -22 9
t-19 17q-10 11 -19 24v491q0 46 16 60.5t60 14.5q36 0 64.5 -26.5t53 -66.5t46 -86t43 -86t44 -66.5t50.5 -26.5q26 0 40.5 14t22 38.5t10 58.5t4.5 73.5t5.5 84t12.5 89.5l10 5q5 2 9 3.5t9 1.5t9 -1.5t9 -3.5q4 -3 10 -5q9 -72 13 -108t4 -53.5t-2.5 -23t-6 -15t-6 -31
t-2.5 -70.5z" />
    <glyph glyph-name="O" unicode="O" horiz-adv-x="665" 
d="M533 281q0 34 -13.5 70.5t-39.5 65.5t-64 48t-87 19q-60 0 -99 -21.5t-62.5 -51t-33 -61t-9.5 -51.5q0 -29 13.5 -64t39 -66t63.5 -52t88 -21q51 0 89 23.5t63.5 54.5t38.5 62t13 45zM644 299q0 -72 -24.5 -127t-67 -92.5t-100 -56.5t-123.5 -19q-59 0 -115.5 19
t-100.5 56.5t-71 92.5t-27 127q0 80 25.5 136.5t69 92t100.5 52t119 16.5q102 0 163.5 -29t95.5 -73t45 -96.5t11 -98.5z" />
    <glyph glyph-name="P" unicode="P" horiz-adv-x="496" 
d="M323 368q-2 10 0.5 17.5t6 13.5t6.5 10.5t2 9.5q-2 17 -5 23.5t-5 9t-3.5 3.5t-1.5 7q-10 8 -21 15q-9 5 -20 10t-22 5q-5 0 -9.5 -4.5t-8.5 -10.5t-7.5 -10.5t-6.5 -4.5q-4 -8 -7 -16q-7 -16 -7 -30q0 -16 7 -32q3 -9 7 -16h95zM454 406q0 -42 -8.5 -63t-23.5 -30
t-35 -12.5t-44 -10.5t-50.5 -23t-53.5 -51q-12 -15 -19 -36.5t-13.5 -47.5t-14.5 -56.5t-20 -63.5l-32 -14l-24 14q-7 26 -12 70t-7.5 97t-2.5 111.5t2.5 114.5t7.5 105t12 84l111 28l115 -28q27 -24 47.5 -41.5t35 -37t22 -44.5t7.5 -65z" />
    <glyph glyph-name="Q" unicode="Q" horiz-adv-x="665" 
d="M543 307q0 43 -16.5 77t-44.5 57t-63.5 35t-72.5 12q-35 0 -70.5 -6.5t-64.5 -26t-47 -55t-18 -93.5q0 -48 17 -82t40 -55.5t48 -31.5t40 -10q71 26 126 55q24 12 46.5 26.5t40 30t28.5 32.5t11 35zM652 307q0 -4 -3 -22t-8.5 -45t-12.5 -60.5t-15 -68.5t-16.5 -68.5
t-17.5 -59.5h-55q-43 15 -97 21t-110 14t-109.5 23.5t-95 48.5t-67 89.5t-25.5 146.5q0 67 26.5 118t71.5 85t104 51t124 17q91 0 150 -23t93.5 -62.5t48.5 -92.5t14 -112z" />
    <glyph glyph-name="R" unicode="R" horiz-adv-x="510" 
d="M336 430q3 8 -2 16t-12 16.5t-13 16.5t-5 17q-7 -2 -13 2.5t-11 9t-10 8t-9 0.5q-4 2 -8.5 -1t-9 -7.5t-9.5 -8t-10 -3.5q-3 -11 -12.5 -22.5t-18.5 -22.5t-14.5 -20t-0.5 -15q-5 -8 1 -13t15 -11t18.5 -14.5t11.5 -21.5h80q-2 12 4 22t13.5 19.5t12.5 17.5t2 15z
M464 436q0 -34 -16 -57t-34.5 -45.5t-34.5 -49.5t-16 -69q0 -17 5.5 -30.5t15.5 -31t25 -40.5t35 -59v-60l-41 -13l-40 13q-25 28 -40 47t-27 34t-26 28.5t-36 31.5q-17 -17 -27 -24t-18 -17.5t-18 -32t-27 -67.5l-29 -13l-31 13q-20 61 -31 111t-15.5 90t-4 71.5t4.5 54.5
q9 55 32 84q0 1 -10.5 17t-20 39t-11.5 50.5t15 50.5t59.5 38.5t121.5 15.5q85 0 133 -20.5t72 -49t29.5 -59t5.5 -51.5z" />
    <glyph glyph-name="S" unicode="S" horiz-adv-x="462" 
d="M400 175q0 -43 -17 -74.5t-43.5 -52t-59 -30.5t-64.5 -10q-38 0 -61 8.5t-36 20.5t-20 24.5t-13 20.5q41 12 78 14.5t64.5 8t44 20t16.5 50.5q0 29 -16.5 48.5t-41 35t-53.5 31.5t-53.5 39t-41 57t-16.5 85q0 15 12.5 40.5t36.5 49.5t58.5 41.5t77.5 17.5q27 0 41 -6.5
t21 -17.5t10.5 -24.5t10.5 -27.5q-37 -10 -66 -14.5t-49 -11.5t-30.5 -21.5t-10.5 -44.5q0 -24 16.5 -40t41 -30t53 -29.5t53 -38.5t41 -56t16.5 -83z" />
    <glyph glyph-name="T" unicode="T" horiz-adv-x="400" 
d="M382 566q-15 -12 -32.5 -18.5t-33 -12t-26 -13t-11.5 -22.5q-41 -27 -50 -75.5t-3 -109.5t18 -130t12 -137l-49 -18l-41 18q0 17 5 52t9.5 78.5t7 91.5t-2.5 91.5t-19 78.5t-43 52q-1 11 -7.5 17.5t-15.5 10t-20 5.5t-21 5l-22 26l22 28q27 7 69 12.5t88 5t90 -8.5
t76 -27z" />
    <glyph glyph-name="U" unicode="U" horiz-adv-x="584" 
d="M531 370q0 -90 -7 -155.5t-32 -108t-73 -63t-130 -20.5q-81 0 -128 25.5t-71 80.5t-30.5 142t-6.5 209q0 13 0.5 24.5t0.5 23.5v26.5t-1 34.5q6 6 12 10q5 4 11 7.5t13 3.5q6 0 12.5 -3.5t11.5 -7.5q6 -4 12 -10q26 -50 33 -106t7 -111t-0.5 -105t10.5 -88t41 -60.5
t91 -22.5q55 0 84.5 44t43 114.5t16 158.5t2.5 176q11 -3 24.5 0t21.5 2q24 -5 32 -12.5t8 -29t-4 -63t-4 -116.5z" />
    <glyph glyph-name="V" unicode="V" horiz-adv-x="571" 
d="M511 563q-8 -33 -22 -65t-28.5 -62.5t-28 -58.5t-20.5 -51q-33 -109 -54.5 -170.5t-38 -90.5t-30.5 -34.5t-32 -2.5q-66 119 -111 228q-19 46 -35.5 94.5t-26 94t-9.5 85t14 67.5q28 -7 44.5 -27t27 -48.5t19 -64t20 -74.5t29 -79t46.5 -77q42 43 62 86.5t30 84t15 74
t17.5 57t37.5 33t74 1.5z" />
    <glyph glyph-name="W" unicode="W" horiz-adv-x="838" 
d="M790 585q-3 -56 -9.5 -108.5t-21 -110t-38 -124.5t-60.5 -152q-27 -63 -45.5 -81t-33 -5t-27 52t-28 90.5t-36 109.5t-50.5 109q-14 -4 -29 -28t-31 -57.5t-33 -73.5t-34.5 -76.5t-35.5 -65t-36.5 -40.5t-37.5 -3t-38 49q-32 124 -58 227q-11 44 -21.5 87.5t-18.5 80.5
t-13.5 63.5t-6.5 37.5q35 4 58.5 -11t39 -42.5t25.5 -64t20 -75t22 -76.5t30 -68q40 24 60.5 62.5t30.5 81.5t14.5 85.5t13 74t26 47t53.5 5.5q26 -8 37.5 -31.5t17 -56.5t9 -71.5t13.5 -75.5t31 -69t61 -52q22 30 34 60t18.5 59.5t11 59t11 58.5t18 59t32.5 60h55z" />
    <glyph glyph-name="X" unicode="X" horiz-adv-x="592" 
d="M458 0q-39 13 -60 23.5t-32.5 20.5t-17 20.5t-13 23.5t-21 29.5t-40.5 38.5q-24 -20 -37.5 -38t-28.5 -36.5t-36.5 -38t-62.5 -43.5l-21 42l21 36q10 36 23.5 63.5t25.5 53t20.5 53t8.5 63.5q0 48 -24.5 106t-72.5 108l-9 45l9 32q40 -6 65.5 -18.5t41.5 -27.5t25.5 -31
t17.5 -29t17.5 -21.5t26.5 -8.5q15 0 30 12t30.5 31.5t33.5 43.5t41 49q8 -5 12 -1.5t9 1.5q7 0 11 -3t7.5 -6.5t7.5 -6.5t12 -3q-15 -53 -32 -86t-32 -60.5t-24.5 -55.5t-9.5 -70q0 -21 1.5 -43.5t11 -49.5t29.5 -61t56 -79v-58z" />
    <glyph glyph-name="Y" unicode="Y" horiz-adv-x="536" 
d="M452 614q-32 -94 -56.5 -150.5t-42 -87t-28 -42.5t-12.5 -18q-9 -26 -7.5 -48.5t6 -44.5t9 -43.5t1 -46t-18.5 -52.5t-49 -62q-5 -4 -9 -8q-4 -3 -8.5 -5t-8.5 0q-4 1 -10 7q-3 3 -5 6q0 29 -3 70t-10 87.5t-18.5 96t-29 97t-41.5 90t-56 74.5q-3 5 -6 11q-2 5 -4.5 11
t-2.5 11q-1 7 1 15.5t5 15.5q3 8 7 16q33 -6 51.5 -10.5t29.5 -11.5t18.5 -17.5t18.5 -26.5t29.5 -39t51.5 -55q26 20 41.5 32.5t27.5 27t22.5 37t27.5 63.5q6 3 11 5q10 3 21 5q7 1 15.5 -0.5t15.5 -3.5z" />
    <glyph glyph-name="Z" unicode="Z" horiz-adv-x="530" 
d="M429 41q-26 -18 -67 -26t-89.5 -9t-99.5 4t-96 14q15 55 47.5 113.5t64.5 113.5t56.5 101.5t24.5 77.5q0 36 -16 52t-41.5 25t-57 17t-61.5 28q32 13 65 24q28 8 59.5 14.5t58.5 4.5q21 -2 44.5 -8.5t43.5 -14.5q23 -9 46 -20v-87q-9 -10 -25.5 -34.5t-36 -57
t-39.5 -69.5t-36.5 -70.5t-27 -61.5t-10.5 -42q0 -16 17.5 -23t44 -11t57.5 -6.5t59 -9.5q5 -1 6.5 -7t1.5 -12.5t1 -12.5t6 -7z" />
    <glyph glyph-name="bracketleft" unicode="[" horiz-adv-x="526" 
d="M366 -76q-29 -9 -49.5 -13.5t-38.5 -5.5t-36 0.5t-40 4.5l6 1240q20 7 37 14t33 13t32 12.5t36 14.5v-108q-12 -29 -22 -48.5t-17.5 -36.5t-12 -35.5t-4.5 -43.5l-6 -802q0 -20 7 -40.5t18.5 -44.5t26 -54t30.5 -67z" />
    <glyph glyph-name="backslash" unicode="\" horiz-adv-x="868" 
d="M936 -142q-35 44 -83 113t-104 153.5t-115.5 178.5t-116.5 189t-107.5 185.5t-87.5 166.5q3 -2 2 9t-3 27t-4.5 34t-2.5 31t4 18t14 -5q31 -32 75.5 -91t96.5 -139.5t109 -179.5t114 -210.5t110.5 -233t98.5 -246.5z" />
    <glyph glyph-name="bracketright" unicode="]" horiz-adv-x="526" 
d="M280 576q1 -124 -2 -238t-9 -213t-13.5 -180.5t-13.5 -139t-11 -89.5l-5 -32q-17 0 -31.5 1t-28.5 1.5t-28.5 0t-31.5 -2.5v122q19 27 35.5 50t29 47t19.5 51t6 62l-18 856q0 23 -8 47t-21 55t-29 71.5t-32 96.5v62h120q1 -29 9 -44t18.5 -27t20 -26.5t12.5 -40.5
q8 -59 10.5 -126.5t3 -134t-0.5 -126.5t-1 -103z" />
    <glyph glyph-name="asciicircum" unicode="^" 
d="M552 36q-50 33 -84.5 75.5t-63 80t-56 63.5t-63.5 26q-17 0 -33.5 -14t-34 -36t-38 -50t-44 -55t-52 -51t-63.5 -39v62q49 49 83 87.5t57.5 68t39.5 50t29 34t26 19.5t30 6q36 0 60 -21t50 -55.5t61.5 -78.5t95.5 -90v-82z" />
    <glyph glyph-name="underscore" unicode="_" horiz-adv-x="500" 
d="M47 -120q-4 0 -2 8.5t6 19.5l10 28h397v-56h-411z" />
    <glyph glyph-name="grave" unicode="`" horiz-adv-x="460" 
d="M273 650q-8 0 -33 2.5t-52.5 13t-49 31t-21.5 56.5q0 5 4.5 6.5t11 1t14 -1.5t13.5 -1q4 0 17.5 -12t30.5 -29t35 -35.5t30 -31.5z" />
    <glyph glyph-name="a" unicode="a" horiz-adv-x="512" 
d="M337 202q0 24 -4.5 44.5t-18.5 33.5q-11 9 -28 13t-28 14q-7 -6 -15.5 -8.5t-17 -3.5t-15.5 -2.5t-11 -4.5q-15 -12 -20 -19.5t-5 -14t3 -14.5t3 -20q0 -23 4.5 -44.5t18.5 -32.5q12 -9 31.5 -10t32.5 -1q10 0 22.5 8t23 19t17.5 23t7 20zM443 220q0 -85 -9 -132t-47 -52
q-7 -1 -17.5 5t-22 13.5t-23.5 14t-21 6.5q-11 0 -23 -5t-25.5 -11t-27.5 -10.5t-30 -4.5q-37 0 -61 16.5t-37.5 42.5t-18.5 57t-5 60q0 175 140 175q14 0 28 -4.5t27.5 -10t25.5 -10.5t23 -6q19 -2 33.5 3.5t26 12t20.5 11t17 1.5q17 -7 23.5 -25t7 -42.5t-1.5 -52
t-2 -52.5z" />
    <glyph glyph-name="b" unicode="b" horiz-adv-x="512" 
d="M334 168q0 12 -9.5 29t-23 32.5t-29 26t-27.5 10.5q-9 0 -20.5 -3t-21 -11.5t-16.5 -24.5t-7 -43q0 -22 1.5 -35t8 -24t20.5 -23.5t40 -34.5q20 18 36 30t26.5 22.5t16 21.5t5.5 27zM449 168q0 -21 -10.5 -49.5t-28.5 -54t-42 -43t-51 -17.5q-12 0 -20 8.5t-26.5 16.5
t-55.5 10t-107 -11l-13 520q5 2 9 5q7 4 17 6q5 0 10.5 -2t10.5 -4q5 -3 11 -7q29 -57 34.5 -94t2.5 -59t-6.5 -31.5t7 -12.5t42.5 -1.5t101 1.5q6 0 25 -13t39 -36.5t35.5 -57t15.5 -74.5z" />
    <glyph glyph-name="c" unicode="c" horiz-adv-x="362" 
d="M310 404q-38 -13 -70 -25t-55 -29t-36 -40.5t-13 -59.5q0 -8 3.5 -19.5t9.5 -22.5t15 -20.5t20 -13.5q9 -14 24.5 -16t31.5 -2.5t28.5 -3.5t14.5 -18q9 -3 8.5 -9.5t-2.5 -14.5t-3 -16.5t5 -17.5l-78 -19l-57 19q-36 24 -61.5 44.5t-42 42t-24 47t-7.5 59.5q0 25 13 51.5
t33 52.5t43.5 49t45.5 40l72 19l82 -19v-58z" />
    <glyph glyph-name="d" unicode="d" horiz-adv-x="512" 
d="M341 215q0 26 -2.5 38t-10 20.5t-21 17.5t-35.5 29q-23 -8 -39.5 -8t-27 -4t-15.5 -17.5t-5 -48.5q0 -15 2.5 -18t7 -8.5t10.5 -20t12 -52.5q5 -4 11 -8q5 -3 11.5 -6t12.5 -5q11 -2 24 0t24 7q13 4 26 12q-1 5 1.5 12.5t5.5 17t5.5 20t2.5 22.5zM434 269q2 -39 9 -72
t9.5 -59t-5 -45.5t-34.5 -32.5t-78 -19.5t-136 -6.5q-25 0 -47.5 14t-40 38t-28 57t-10.5 72q0 58 16.5 93.5t42 55.5t57 27.5t61.5 8t55.5 -2t38.5 -2.5q0 41 -1 74.5t4 62t20.5 53t48.5 45.5q23 -81 28 -147t3 -114q-3 -56 -13 -100z" />
    <glyph glyph-name="e" unicode="e" horiz-adv-x="458" 
d="M275 282q13 14 11.5 32.5t-15.5 30.5q-14 13 -32 12t-31 -15t-12.5 -32t14.5 -31t33 -12t32 15zM429 259q0 -31 -13 -44.5t-33.5 -16.5t-45.5 1.5t-50 9.5t-47 7.5t-35 -3.5t-15 -24t12 -54q12 -6 26.5 -7.5t33 -2.5t41 -4t48.5 -12q12 -25 10.5 -38.5t-12 -20t-26 -7
t-31.5 2t-29 5t-19 2.5q-53 0 -89 -2.5t-58 9.5t-31 47t-9 111q0 64 13.5 104t38 63t59 31.5t76.5 8.5q84 0 134.5 -40t50.5 -126z" />
    <glyph glyph-name="f" unicode="f" horiz-adv-x="291" 
d="M245 548q-3 -17 -3 -29t-1.5 -21t-5.5 -15t-15 -10q-2 -6 -7.5 -7t-12 -1t-12 -1t-7.5 -6q-5 -16 -6 -33.5t1 -33.5t5 -27t5 -14q0 -11 8 -12t17.5 -3t17 -11t7.5 -35q0 -21 -4 -32t-9.5 -21t-12.5 -23t-12.5 -37t-9.5 -63.5t-4 -102.5q-16 3 -28.5 -4.5t-22 -13
t-15.5 -2.5t-7 27q-8 1 -11 15t-3 35.5t2 47t3 48.5t1 41.5t-4 24.5q-1 13 -7 18.5t-13 10t-12.5 11t-5.5 20.5q0 2 4.5 19.5t12.5 43t18.5 56t22 59t24 51.5t23.5 33z" />
    <glyph glyph-name="g" unicode="g" horiz-adv-x="508" 
d="M335 212q0 11 -5 29t-15 35.5t-25 30.5t-35 13q-15 0 -31 -6.5t-28.5 -17t-20.5 -24t-8 -27.5q0 -42 24.5 -76.5t65.5 -47.5q25 16 40.5 30.5t23.5 25.5t11 20t3 15zM438 -23q-12 -23 -19.5 -31t-15.5 -13.5t-18.5 -14.5t-29.5 -34l-206 -16l-42 62l35 34
q14 -20 38.5 -26t52 -4t53.5 9.5t43 15.5q3 8 7 16q3 7 5.5 14.5t2.5 15.5q0 7 -2.5 14.5t-5.5 14.5q-4 8 -7 16q-54 0 -102.5 -0.5t-86 14t-59.5 52t-22 113.5q0 49 18.5 83.5t42.5 56.5t48 32t35 10q10 0 40 1t65 -1t67.5 -9.5t47.5 -24.5z" />
    <glyph glyph-name="h" unicode="h" horiz-adv-x="496" 
d="M393 46q-7 -6 -13 -11q-5 -5 -12 -8.5t-13 -4.5q-9 -2 -19 1.5t-18 8.5q-10 5 -19 14q0 47 1 72.5t-2.5 44t-13.5 36t-32 49.5q-35 -15 -51.5 -24t-22.5 -25.5t-5 -47.5t1 -90q-5 -9 -11 -15q-5 -5 -12 -9.5t-14 -4.5t-13.5 4.5t-12 10l-10 10t-5.5 4.5v438q4 1 5.5 6.5
t2 12t1.5 11.5t3 7q7 4 13 3.5t11 -2.5q5 -3 11 -7q20 -26 27.5 -41.5t7 -25.5t-5 -17.5t-8 -16.5t-2.5 -21.5t12 -33.5q9 -16 23 -22t31 -8t35.5 -1.5t37 -2.5t35.5 -12t29.5 -29.5t20 -55t7.5 -88.5q0 -21 -1 -34.5t-1.5 -24.5t0 -22t2.5 -28z" />
    <glyph glyph-name="i" unicode="i" horiz-adv-x="227" 
d="M161 38q-8 -5 -16 -9q-7 -3 -15.5 -6t-15.5 -2q-7 0 -13.5 3t-12.5 6l-14 8v279q6 8 13 14q6 5 13 9.5t15 5.5q8 0 16 -4.5t15 -9.5q8 -6 15 -15v-279zM137 551q8 -8 7 -18.5t-9 -17.5q-8 -8 -18.5 -8t-18.5 8t-7.5 19t8.5 19t19 7t19 -9z" />
    <glyph glyph-name="j" unicode="j" horiz-adv-x="227" 
d="M151 303q5 -16 11.5 -45.5t11.5 -66t7 -78t-1.5 -82.5t-13.5 -78.5t-30 -66.5q-2 3 -8 4t-12.5 5.5t-13.5 13.5t-10 27q-7 36 -2 84t5 99q0 29 -0.5 57t-0.5 53.5t2.5 46.5t9.5 35q3 6 8.5 4t12.5 -5.5t13.5 -6.5t10.5 0zM149 490q7 -8 6.5 -18t-8.5 -16t-17.5 -5.5
t-16.5 7.5q-6 8 -5.5 18t8.5 16q7 6 17 6t16 -8z" />
    <glyph glyph-name="k" unicode="k" horiz-adv-x="516" 
d="M330 1q-25 33 -41 50.5t-27 26t-19 10t-18 1.5q-11 0 -21 -7t-21 -17.5t-22.5 -23t-23.5 -22.5q-10 14 -19.5 51.5t-18 87.5t-14 108.5t-7 114t1.5 104.5t13 80q2 6 8 5.5t13.5 -3.5t14 -5t8.5 1q22 -28 30 -61t8.5 -66.5t-2 -64t0 -54.5t13.5 -38t38 -14q1 0 20 9t68 43
h52q-4 -21 -10.5 -38t-12.5 -30.5t-10.5 -25t-5.5 -22.5q-2 -30 4 -50t17.5 -40.5t25.5 -45.5t28 -64h-71z" />
    <glyph glyph-name="l" unicode="l" horiz-adv-x="227" 
d="M185 259q9 -21 6 -55q-2 -29 -15.5 -78t-47.5 -121q-32 48 -42.5 103t-10.5 103q0 55 11 110q-13 25 -18 60q-5 30 -2.5 73.5t20.5 102.5q2 7 8 8t12.5 1.5t12.5 2.5t9 10q2 -5 6 -5t8 1t7.5 1t5.5 -5q24 -61 31.5 -117t7.5 -100q-1 -51 -9 -95z" />
    <glyph glyph-name="m" unicode="m" horiz-adv-x="742" 
d="M639 27l-25 14q0 63 1 100.5t-4.5 65.5t-22 54t-50.5 66q-36 -28 -52 -44t-21.5 -27.5t-3.5 -24.5t3 -35.5t-2 -58.5t-19 -96l-32 -11l-26 11q-16 50 -18 98t-7 86t-23 61t-66 23q-26 0 -38 -27.5t-16.5 -66.5t-3.5 -82t1 -73l-37 -18l-39 18q-23 37 -31.5 75.5t-6.5 79
t12.5 83t25.5 87.5q3 4 7 8q8 8 20 9q14 2 32.5 2t39 -0.5l41 -1t37.5 0.5q13 1 28 -4.5t30 -12t31 -12.5t32 -7q22 -1 40.5 4.5t35.5 12.5t33 13.5t33 8.5t33 -1t30 -8q16 -5 31 -12q4 -18 16 -58t18 -89.5t1 -101.5t-35 -95z" />
    <glyph glyph-name="n" unicode="n" horiz-adv-x="496" 
d="M408 5l-60 22q-12 42 -17 82t-8.5 75t-7 64.5t-12 50.5t-24.5 32.5t-43 11.5q-29 0 -46.5 -29t-27.5 -72.5t-13.5 -95t-3.5 -96.5q-1 0 -6 -5.5t-12 -11t-16 -9t-17 1.5q-5 -3 -11.5 0.5t-12.5 9t-10 10t-5 4.5l-9 79l9 258q34 25 82 36t100 10.5t104.5 -12.5t96.5 -34
l11 -234l-11 -126z" />
    <glyph glyph-name="o" unicode="o" horiz-adv-x="497" 
d="M357 203q0 38 -14.5 73t-42.5 51q-7 4 -16.5 4t-19 -1t-18.5 -1.5t-16 1.5q-11 -12 -22.5 -19t-18.5 -14q-8 -7 -12.5 -13t-6.5 -13.5t-2.5 -18.5t-0.5 -28q0 -18 3 -36.5t12 -34t25.5 -25.5t43.5 -10q15 0 33.5 9t34.5 21.5t27 27.5t11 27zM485 224q0 -63 -19.5 -104.5
t-51.5 -65.5t-74.5 -33.5t-88.5 -9.5q-51 0 -93.5 21t-73 52.5t-48 69t-17.5 70.5q0 4 4.5 21.5t15.5 41t29.5 50t46.5 48.5t67 36.5t91 14.5q55 0 95 -16.5t66 -45t38.5 -67.5t12.5 -83z" />
    <glyph glyph-name="p" unicode="p" horiz-adv-x="512" 
d="M337 183v44.5t-14 42.5q-7 9 -17 14t-19.5 8t-16.5 4t-8 1q-12 0 -28.5 -7t-27.5 -21q-12 -15 -16 -34.5t-4 -32.5q0 -21 7 -38.5t18 -30t24.5 -19t26.5 -6.5q17 0 31 9t23.5 21t15 24.5t5.5 20.5zM470 202q0 -74 -16 -109.5t-46 -49t-72 -12.5t-93 1q-20 0 -37 -24
t-30.5 -59.5t-24 -76t-16.5 -73.5h-63l7 554q10 15 29.5 23t49 11.5t69.5 4t91 0.5q22 0 48.5 -14t49.5 -39.5t38.5 -60.5t15.5 -76z" />
    <glyph glyph-name="q" unicode="q" horiz-adv-x="512" 
d="M366 248q0 7 2 27t-8 37q-4 7 -11.5 13t-15 9.5t-14 5.5t-9.5 2q-5 0 -17 3.5t-26 6.5t-27 2.5t-20 -7.5q-8 -8 -9.5 -22t0 -29.5t3.5 -28.5t2 -19v-28t13 -32q11 -11 31 -13t31 -2q16 0 29.5 6t23.5 16.5t16 24t6 28.5zM404 -71q-11 21 -17 41.5t-11 38.5t-11 31.5
t-17 21.5q-30 22 -60.5 28t-60 7.5t-55.5 4.5t-45 18.5t-30.5 49t-11.5 97.5q0 43 13.5 75t36.5 53t53.5 31t65.5 10q23 0 52.5 -3t60 -9.5t59.5 -17t53 -26.5v-451h-75z" />
    <glyph glyph-name="r" unicode="r" horiz-adv-x="340" 
d="M368 355q-11 -14 -26 -22.5t-30 -15.5t-28.5 -14.5t-22.5 -19.5q-14 -19 -22 -45.5t-13 -62t-8 -80.5t-6 -100h-72q-37 60 -46.5 105t-7.5 74q3 34 18 58q-27 47 -26 85q0 16 6 31.5t21 27.5t41 19.5t66 7.5q14 -4 36 -10q19 -5 48 -14.5t72 -23.5z" />
    <glyph glyph-name="s" unicode="s" horiz-adv-x="385" 
d="M359 130q0 -15 -6 -27t-16 -22.5t-22.5 -21t-25.5 -23.5q-34 -30 -66 -48q-14 -8 -28 -14t-27.5 -8t-25 1t-19.5 13q-6 7 -10 16.5t-7 18.5q-4 11 -5 21q30 35 52.5 51t38 25t23.5 17t8 27q0 18 -12 31t-30 25t-39.5 24t-39.5 28t-30 37.5t-12 51.5q0 12 5 18.5
t10.5 13.5t8 18.5t-1.5 34.5q12 13 27 23q13 8 29 15t35 7q14 -1 30 -4t30 -8q16 -5 32 -11q-9 -16 -18.5 -24.5t-18 -13.5t-15 -7.5t-8.5 -6.5q-3 -3 -2 -8.5t1.5 -12.5t-1.5 -15.5t-9 -17.5q39 -48 69.5 -74.5t52 -47t32.5 -42.5t11 -60z" />
    <glyph glyph-name="t" unicode="t" horiz-adv-x="270" 
d="M237 383q-11 -7 -21 -18q-8 -9 -16.5 -23.5t-13.5 -35.5q-8 -35 -12.5 -78.5t-8.5 -84t-7 -71t-8 -40.5h-44l-22 325q-10 1 -17.5 9t-13.5 16q-7 10 -12 22q0 20 8.5 26t19.5 7l22 2t17 11q4 7 2 23.5t-5 36t-4 38.5t5 31h44q6 -10 8.5 -23.5t3.5 -27t2.5 -26t6.5 -19.5
q10 -17 22 -28t21.5 -21t16 -21.5t6.5 -29.5z" />
    <glyph glyph-name="u" unicode="u" horiz-adv-x="494" 
d="M421 288q26 -75 20 -133q-3 -25 -12.5 -49t-30.5 -42.5t-54.5 -30t-83.5 -11.5q-48 0 -81 13t-54.5 34t-33.5 48t-17.5 56t-6.5 56.5t-1 50.5q0 27 0.5 45.5t0.5 35v32.5t-1 38q5 3 10 5q8 3 17 5q12 0 24 -5q6 -3 13 -5q30 -43 39 -71.5t8.5 -50t-4.5 -38.5t-0.5 -36.5
t19.5 -44t57 -60.5q41 33 54.5 60.5t13 52.5t-8.5 48.5t-9.5 48t9.5 52t49 59.5q56 -48 73 -79.5t15 -49.5t-13 -25.5t-11 -8.5z" />
    <glyph glyph-name="v" unicode="v" horiz-adv-x="467" 
d="M436 356q-26 -43 -41 -85t-26.5 -80.5t-21.5 -71.5t-24.5 -57.5t-36.5 -38.5t-58 -14q-25 0 -42.5 15.5t-31 41.5t-24.5 59.5t-23 69t-27 71.5t-36 66l-6 18q-2 8 -4 17t-1 17q0 6 2 13t4 13q3 7 5 14q6 -2 8 4t3 14t2.5 14t6.5 4q32 -12 53 -33.5t39 -48.5t37 -56.5
t47 -57.5q33 33 52.5 59t29.5 45.5t13.5 33.5t5 24t4.5 16t12 11q4 2 11.5 -0.5t17.5 -5.5t22.5 -4t27.5 4q2 -8 4 -17q2 -8 3 -16t1 -15t-1 -14t-3 -14q-2 -8 -4 -15z" />
    <glyph glyph-name="w" unicode="w" horiz-adv-x="747" 
d="M695 334q0 -14 -4 -44t-13 -66t-22.5 -74.5t-31.5 -70t-41.5 -52t-52.5 -20.5q-18 0 -31.5 10.5t-28 31t-33 51t-46.5 70.5h-47q-15 -29 -23.5 -58.5t-19.5 -52.5t-27.5 -37.5t-46.5 -14.5q-32 0 -50 8.5t-29 25.5t-17.5 44t-16.5 63t-27 82.5t-47 103.5v70q7 0 12.5 5
t10 11.5t9 12t8.5 5.5q30 -1 39 -6t9.5 -16t-1 -30t7 -46t33.5 -64.5t79 -85.5q9 21 18 48.5t20 58.5t25 64.5t34 66.5l16 8q7 3 14.5 5.5t15.5 2.5t15.5 -2.5t15.5 -5.5q8 -4 17 -8q12 -40 22 -69.5t20 -51.5t21.5 -39t25.5 -32q14 11 29 35t34.5 52t44.5 56.5t60 48.5v-94
z" />
    <glyph glyph-name="x" unicode="x" horiz-adv-x="534" 
d="M451 15q-34 4 -57.5 11t-40.5 14t-30.5 12t-28.5 6q-13 1 -28.5 -3t-36.5 -10.5t-50 -14.5t-68 -15q10 36 25 60.5t27.5 49.5t18.5 56.5t-1 79.5q-3 16 -11.5 33.5t-19 37.5t-21.5 43.5t-18 52.5q29 -3 54 -13.5t45.5 -22.5t37 -21.5t30.5 -9.5q26 -1 43.5 8t35.5 21
t39.5 23.5t54.5 14.5q-7 -25 -16.5 -50.5t-18.5 -50.5t-15.5 -48t-7.5 -43q-2 -45 6 -81t19 -63t21 -46t12 -31z" />
    <glyph glyph-name="y" unicode="y" horiz-adv-x="491" 
d="M375 347q-21 -26 -31.5 -45.5t-17.5 -40t-13.5 -44.5t-17.5 -58.5t-31 -81.5t-54 -114h-73q10 63 15.5 99.5t8 55t3 23t-0.5 3.5t-2 -4t-1 1q3 65 1 101t-6.5 53t-11 20t-13.5 2t-14 -1t-11.5 11.5t-6 39.5t1.5 82q34 -15 50 -26t25.5 -23t19.5 -28.5t33 -42.5
q27 20 41 34t21 24.5t11 18.5t11.5 15.5t21.5 16t41 20.5v-111z" />
    <glyph glyph-name="z" unicode="z" horiz-adv-x="419" 
d="M421 16q-42 -18 -81.5 -26.5t-79.5 -9.5t-81.5 5.5t-87.5 18.5v70q40 58 63.5 91.5t35.5 54t15.5 34.5t3.5 33q0 13 -10 23.5t-26.5 24.5t-37.5 36t-44 57q30 18 62 31q27 11 58 19.5t59 5.5q20 -2 42.5 -11t41.5 -19q22 -11 43 -26v-94q-19 -14 -39.5 -37t-38 -47
t-29 -46t-11.5 -35q0 -22 9.5 -34.5t27.5 -26.5t44.5 -34.5t60.5 -57.5z" />
    <glyph glyph-name="braceleft" unicode="{" horiz-adv-x="528" 
d="M310 778q-18 -34 -25 -71t-8.5 -74t0.5 -73.5t2.5 -69t-4.5 -61t-19 -49.5q-3 -22 -10 -34.5t-15 -19.5q-9 -8 -19 -10q29 -23 51 -90q9 -29 18 -69.5t16 -97t10.5 -130t2.5 -167.5q-9 14 -23.5 67t-30 131t-29.5 175t-22 199t-7.5 202t13 185t39.5 147.5t74 89.5
l18 -120z" />
    <glyph glyph-name="bar" unicode="|" horiz-adv-x="330" 
d="M203 22q0 -7 -21 -12.5t-42 -5.5q-13 0 -17 2t-3 5t3.5 6t2.5 5v650q0 7 21 12.5t42 5.5q13 0 17 -2.5t3 -5.5t-3.5 -6t-2.5 -4v-650z" />
    <glyph glyph-name="braceright" unicode="}" horiz-adv-x="528" 
d="M284 -272h-100q0 85 4 141.5t10 91.5t12.5 54t11.5 29.5t7.5 18t1 20t-9.5 34t-23 61.5l94 90zM292 330q-23 38 -34.5 59.5t-17.5 35t-8 24t-6.5 27.5t-13.5 45t-28 77v334h100z" />
    <glyph glyph-name="asciitilde" unicode="~" 
d="M465 362q-24 -24 -35.5 -37t-21 -19.5t-21 -8t-35.5 -1.5q-7 8 -25 17q-15 8 -43 17t-75 18q-17 3 -34 1.5t-37 -4t-43.5 -3.5t-51.5 2q12 12 10 22t-8 18t-12 14t-2 11q6 7 21 11t34 6t39.5 2h37.5q30 0 52 -9t42.5 -19.5t42.5 -19t52 -8.5q12 0 24.5 9.5t25 20.5t25 19
t25.5 5q4 -1 3.5 -10t-0.5 -20t1.5 -21t8.5 -13z" />
    <glyph glyph-name="uni00A0" unicode="&#xa0;" horiz-adv-x="499" 
 />
    <glyph glyph-name="exclamdown" unicode="&#xa1;" horiz-adv-x="227" 
d="M49 564q5 2 11 3q5 1 10.5 1.5t10.5 0.5q3 0 7 -1l8 -2t9 -2l3 -6q1 -3 2 -6.5t0 -5.5q0 -4 -5 -9q-3 -3 -5 -4q-3 -2 -7 -3q-8 -2 -13 -2q-5 -1 -9.5 0t-9.5 3t-10 3q-1 2 -2 5t-1 8q-2 5 0 11q0 3 1 6zM78 394q46 -46 60.5 -107t8.5 -119.5t-26.5 -105.5t-42.5 -66
q-33 48 -55 103t-25.5 109t15 102.5t65.5 83.5z" />
    <glyph glyph-name="cent" unicode="&#xa2;" horiz-adv-x="362" 
d="M310 404q-38 -13 -70 -25t-55 -29t-36 -40.5t-13 -59.5q0 -8 3.5 -19.5t9.5 -22.5t15 -20.5t20 -13.5q9 -14 24.5 -16t31.5 -2.5t28.5 -3.5t14.5 -18q9 -3 8.5 -9.5t-2.5 -14.5t-3 -16.5t5 -17.5l-26 -6l-55 -113l-37 113l-17 6q-36 24 -61.5 44.5t-42 42t-24 47
t-7.5 59.5q0 25 13 51.5t33 52.5t43.5 49t45.5 40l22 6l40 108l30 -106l62 -8v-58z" />
    <glyph glyph-name="sterling" unicode="&#xa3;" 
d="M64 -61q4 5 11 14.5t14 20t12 20.5t5 17q0 10 -4 21.5t-4 26.5q0 29 -0.5 57t-0.5 56h-22h-16h-8.5t-10.5 0.5t-9 3t-4 7.5q0 4 0.5 7.5t0.5 8.5q0 12 8 17.5t19 7.5t22.5 2h19.5q0 26 -0.5 51.5t-0.5 51.5v45q0 93 42 135.5t137 42.5q10 0 19.5 1t19.5 1q20 0 39.5 -7.5
t37.5 -19.5t34 -26.5t29 -27.5v-79h-80q-10 12 -16 23t-13.5 19t-18.5 12.5t-31 4.5q-22 0 -37 -8t-24 -21.5t-13 -31t-4 -37.5q0 -32 -1 -65t1 -65q10 1 19.5 1h20.5q6 0 23.5 -0.5t36 -2.5t32.5 -8t14 -16q0 -13 -19 -18.5t-43.5 -7.5t-47.5 -1.5t-31 0.5
q4 -31 11.5 -62.5t18.5 -60.5q3 -8 22.5 -16.5t47 -17t59.5 -17.5t60 -18.5t48.5 -19.5t25.5 -21h-451z" />
    <glyph glyph-name="currency" unicode="&#xa4;" horiz-adv-x="506" 
d="M253 222q57 0 88 40.5t31 102.5q0 30 -8 56.5t-23 46t-37.5 30.5t-50.5 11q-29 0 -51 -11t-37.5 -30.5t-23.5 -46t-8 -56.5q0 -31 8 -57t23.5 -45t37.5 -30t51 -11zM19 168l69 71q-38 55 -38 126t38 124l-69 71l45 43l67 -69q24 18 54.5 29t67.5 11q36 0 67 -11t55 -29
l67 69l45 -43l-69 -71q37 -54 37 -124q0 -35 -10 -67t-28 -58l70 -72l-45 -43l-68 69q-49 -37 -121 -37t-121 37l-68 -69z" />
    <glyph glyph-name="yen" unicode="&#xa5;" horiz-adv-x="536" 
d="M452 614q-18 -55 -39 -109.5t-48 -105.5q-12 -25 -30 -52q-3 -5 -11.5 -15.5t-10.5 -15.5l-6 -21q7 0 27 -0.5t41 -3.5t37 -9.5t16 -18.5q0 -11 -15.5 -18t-36 -11t-40 -6t-26.5 -2q2 -8 4 -16.5t4 -16.5q7 0 25 -1t37 -4.5t33.5 -9.5t14.5 -17t-14 -18t-33 -10.5
t-37 -5.5t-25 -2q-6 -32 -24.5 -57.5t-40.5 -48.5q-5 -5 -11 -9t-12 -4q-5 0 -10 4.5t-8 8.5q0 52 -6 103q-23 0 -46 -0.5t-46 -0.5q-9 0 -14.5 1.5t-5.5 12.5v23t3 17.5t10.5 11.5t23.5 4q17 0 33 -1t33 0q-2 8 -3 16.5t-3 17.5q-19 0 -38 -0.5t-38 -0.5q-10 0 -15.5 1.5
t-5.5 12.5v23t3 17.5t10.5 11.5t23.5 4q11 0 22.5 -0.5t22.5 -0.5q-14 51 -34.5 102t-50.5 95q-8 12 -17.5 23t-19.5 22q-5 5 -9 17t-4 19q0 11 4 23t9 21q25 -4 53 -10.5t45 -27.5q8 -8 14 -17.5t12 -18.5q17 -23 36 -44.5t39 -41.5q29 23 46 37.5t28.5 30t21 36t23.5 56.5
q8 4 18 7t18 3q10 0 22 -3t21 -7z" />
    <glyph glyph-name="brokenbar" unicode="&#xa6;" horiz-adv-x="382" 
d="M44 -7q0 -2 -6 -3t-16 -2.5t-21.5 -2t-22.5 -0.5q-14 0 -17.5 1t-3 2.5t3.5 2.5t3 2v292q0 3 21.5 5.5t43.5 2.5q14 0 18 -1t3.5 -2.5t-3.5 -3l-3 -1.5v-292zM38 370q0 -3 -21.5 -5.5t-43.5 -2.5q-14 0 -18 1t-3.5 2.5t3.5 2.5t3 2v292q0 1 6 2.5t16 3t21.5 2t22.5 0.5
q13 0 17 -1t3.5 -2.5t-3.5 -3l-3 -1.5v-292z" />
    <glyph glyph-name="dieresis" unicode="&#xa8;" horiz-adv-x="460" 
d="M173 654q-26 6 -41.5 8t-26 6.5t-19 13.5t-20.5 29q17 13 33 7.5t28.5 -16t20 -18t7.5 1.5q0 11 0.5 19t2.5 7t5.5 -14t9.5 -44zM375 685q0 2 1 1.5t1 -6t-3 -17.5t-11 -32q-12 8 -17.5 10t-12 8.5t-17.5 23l-35 52.5q27 0 41.5 -2.5t20.5 -5t5.5 -5t-3.5 -2.5
q-4 0 0.5 -6.5t11 -13t12.5 -9.5t6 4z" />
    <glyph glyph-name="copyright" unicode="&#xa9;" horiz-adv-x="820" 
d="M562 199q0 -14 0.5 -23.5t-3 -17t-12 -14t-26.5 -14.5h-45q-13 -6 -19 -10.5t-17 -3.5q-3 3 -9 7q-5 2 -13.5 4.5t-21.5 2.5q-39 0 -64 10.5t-43 28.5t-32.5 41t-32.5 48q-6 8 -11.5 15.5t-8.5 11.5v139q5 11 9 17.5t6.5 11t4 8t3.5 8.5q9 34 31 56.5t47.5 37.5
t50.5 23.5t40 15.5q11 5 31 4t40 -5q23 -4 47 -11q4 0 11.5 -2t15 -5.5t13.5 -8.5t8 -11q5 -19 -3.5 -32.5t-23.5 -11.5q-11 1 -13.5 7t-7.5 7q-22 3 -46 1q-20 -2 -44.5 -7t-46.5 -17q-6 -3 -15.5 -8.5t-19 -12.5t-17.5 -15t-10 -16q-8 -29 -16 -46t-12.5 -29.5t-3 -26.5
t12.5 -37q-5 -9 -2 -20q2 -10 10 -24.5t28 -33.5q36 -36 60.5 -47t48 -10t51.5 8t70 7zM760 247q-5 -32 -22.5 -62t-44 -58.5t-58.5 -55t-66 -50.5q-7 1 -12 3q-11 4 -14 12q-2 4 -0.5 8.5t3.5 8.5t5 9q55 33 85.5 62.5t46 55.5t22.5 48t15 40q5 4 9 8q8 6 17 5q5 -2 7.5 -7
t4.5 -11q2 -7 2 -16zM274 62l5 -10t3 -8.5t-1 -7.5q-2 -4 -5.5 -6t-7.5 -4t-9 -3q-5 4 -31.5 22.5t-58.5 50.5t-62 77t-41 102q-1 7 0 13l2 10t6 7q7 2 13 -1q4 -2 7 -4q7 -22 17 -53t29.5 -64t51 -65t82.5 -56zM762 451q0 -7 -1 -12t-3 -8.5t-4 -1.5q-18 8 -35.5 32t-38 55
t-45.5 64.5t-56.5 61.5t-71.5 46.5t-90 18.5q-58 0 -101.5 -13.5t-79 -42.5t-66 -75t-61.5 -111h-11q-5 0 -9.5 1t-7.5 3t-5 5l-4 6q-2 4 -3 7q3 14 16 37.5t34.5 51t51.5 55t66.5 50t80 36.5t92.5 14q18 0 48.5 -7t67 -22t75.5 -37.5t72 -53.5t57 -71t32 -89z" />
    <glyph glyph-name="ordfeminine" unicode="&#xaa;" horiz-adv-x="316" 
d="M187 599q0 14 -2.5 25.5t-10.5 18.5q-6 5 -15.5 7.5t-16.5 7.5q-8 -7 -18 -6.5t-15 -3.5q-9 -7 -11.5 -11.5t-2.5 -8t1.5 -8t1.5 -11.5q0 -14 2.5 -26t10.5 -18q7 -5 18 -5.5t19 -0.5q6 0 12.5 4.5t12.5 10.5t10 13t4 12zM248 609q0 -48 -5 -75.5t-27 -29.5q-4 0 -10 3
t-13 7.5t-13.5 8t-11.5 3.5q-13 -1 -27.5 -9t-32.5 -8q-21 0 -35 9.5t-21.5 24t-10.5 32t-3 34.5q0 99 80 99q17 0 32 -8t27 -9q11 -1 19.5 2t15 6.5t11.5 6t9 1.5q10 -4 13.5 -14.5t4 -24.5t-0.5 -29.5t-1 -29.5z" />
    <glyph glyph-name="guillemotleft" unicode="&#xab;" horiz-adv-x="339" 
d="M166 400q3 0 1.5 0t-4.5 -0.5t-6 -1.5t-3 -2q0 -13 -11 -25.5t-23.5 -27.5t-23.5 -35t-11 -47q0 -24 11 -40.5t23.5 -31t23.5 -29.5t11 -35q0 -2 -0.5 2.5t-4.5 4.5q-8 0 -26 10t-36.5 28t-33 43.5t-14.5 57.5q0 17 12 39t30.5 42t41 34t43.5 14zM298 396q3 0 1.5 0
t-4.5 -0.5t-6 -1.5t-3 -2q0 -13 -11 -25.5t-23.5 -27.5t-23.5 -35t-11 -47q0 -24 11 -40.5t23.5 -31t23.5 -29.5t11 -35q0 -2 -0.5 2.5t-4.5 4.5q-8 0 -26 10t-36.5 28t-33 43.5t-14.5 57.5q0 17 12 39t30.5 42t41 34t43.5 14z" />
    <glyph glyph-name="uni00AD" unicode="&#xad;" horiz-adv-x="294" 
d="M250 311q0 -17 -10.5 -24.5t-26 -9.5t-33 -1t-32.5 1q-34 0 -50.5 -1t-22.5 1.5t-5.5 9.5t0.5 24t5 24.5t15.5 9.5t27.5 1t42 -1q7 0 22 1t30 -1t26.5 -9.5t11.5 -24.5z" />
    <glyph glyph-name="registered" unicode="&#xae;" horiz-adv-x="820" 
d="M474 475q3 6 -1 12t-9 12t-10 12.5t-4 13.5q-5 -1 -9.5 2t-8 6.5t-7.5 6t-7 0.5q-3 1 -6.5 -1t-7 -5.5t-7 -6t-7.5 -2.5q-2 -8 -9.5 -17t-14 -17.5t-11 -15.5t-0.5 -11q-3 -6 1.5 -10t11 -8.5t13.5 -10.5t9 -16h60q-2 9 3 16.5t10.5 14.5t9.5 13t1 12zM571 479
q0 -25 -12 -42.5t-26 -34.5t-26 -37.5t-12 -51.5q0 -12 4 -22.5t11.5 -23.5t19 -30.5t26.5 -44.5v-46l-31 -9l-30 9q-19 22 -30.5 36t-20.5 25.5t-19.5 21.5t-27.5 24q-13 -13 -20 -18.5t-13.5 -13.5t-13.5 -24t-20 -51l-22 -9l-24 9q-30 92 -35 152t0 95q6 41 25 63l-8 12
t-15 30t-9 38.5t11 38t45 29t92 11.5q64 0 100 -15t54 -36.5t22.5 -45t4.5 -39.5zM78 492q23 66 68.5 112t97 75.5t101 43t80.5 13.5q22 0 56.5 -8.5t73.5 -26.5t78.5 -47t71 -69.5t51 -93.5t19.5 -120q0 -34 -7.5 -76t-29 -87.5t-62 -92t-106.5 -89.5q-3 3 -5 7q-5 7 -5 14
t7 16l8 8q47 27 80.5 61t54.5 72.5t31 80.5t10 86q0 60 -22 121t-64.5 109.5t-104.5 79.5t-142 31q-60 0 -104.5 -15.5t-76.5 -39t-53.5 -53t-36 -57.5t-23 -51.5t-15.5 -35.5q-4 -2 -8 -2q-6 -2 -13 2q-5 2 -6.5 7.5t-2.5 10.5q-1 6 -1 14zM72 280q-1 6 0 12q1 5 2.5 9.5
t5.5 6.5q5 2 12 0q4 -1 6 -3q14 -35 22 -63t24.5 -55t48 -56t91.5 -64q3 -3 6 -7q2 -3 4 -7t4 -6q5 -10 1 -14t-12 -6q-9 -2 -21 -1q-34 24 -65 51t-57 58t-44.5 67t-27.5 78z" />
    <glyph glyph-name="macron" unicode="&#xaf;" horiz-adv-x="520" 
d="M390 731q12 0 22.5 -5.5t18 -13.5t12 -16t4.5 -14q0 -8 -6.5 -15.5t-15.5 -13.5t-18.5 -10t-16.5 -4h-245q-10 0 -20 5t-18.5 12.5t-13.5 16t-5 16.5q0 3 3.5 10t10.5 14t18 12.5t25 5.5h245z" />
    <glyph glyph-name="degree" unicode="&#xb0;" horiz-adv-x="360" 
d="M223 645q0 20 -8 38.5t-22 26.5q-8 5 -18.5 2.5t-18.5 -0.5q-5 -7 -11 -10.5t-10 -7.5q-8 -7 -10 -13.5t-2 -24.5q0 -9 1.5 -19t6 -18.5t13.5 -13.5t23 -5q8 0 18 4.5t18.5 11.5t14 15t5.5 14zM290 656q0 -33 -10 -55t-27 -34.5t-39.5 -17.5t-46.5 -5q-27 0 -49 11
t-38.5 27.5t-25.5 36.5t-9 37q0 3 5.5 21t20.5 38.5t41 36.5t67 16q58 0 84.5 -32.5t26.5 -79.5z" />
    <glyph glyph-name="acute" unicode="&#xb4;" horiz-adv-x="460" 
d="M206 735q13 13 32 26.5t38 24.5t35.5 18t24.5 7q3 0 9.5 1.5t13.5 2t12 -1t5 -7.5q0 -36 -19 -51.5t-45.5 -20t-55.5 -2t-50 2.5zM206 735q-19 -17 -19 -29q0 -6 -0.5 -2t0 10.5t4 13.5t11.5 7h4z" />
    <glyph glyph-name="mu" unicode="&#xb5;" horiz-adv-x="494" 
d="M173 37q-6 -46 -23.5 -94.5t-37.5 -90.5q-30 46 -41 102t-11 110q0 30 2.5 61.5t8.5 61.5q-3 23 -4 46.5t-1 46.5q0 26 0.5 51t0.5 51v24.5t-1 24.5q6 3 14 6.5t15 3.5q8 0 17.5 -3t17.5 -7q18 -26 33 -56.5t15 -63.5q0 -16 -3.5 -31t-3.5 -31q0 -18 7.5 -34.5t19 -31.5
t25.5 -28.5t26 -24.5q26 21 47 48t21 63q0 27 -9.5 53t-9.5 54q0 32 18 57.5t41 45.5q11 -10 26.5 -24.5t29 -31t23 -34.5t9.5 -34q0 -12 -6.5 -23t-17.5 -16q10 -25 15.5 -55t5.5 -56q0 -42 -13.5 -71.5t-38 -48t-58 -27t-72.5 -8.5q-22 0 -44 3.5t-43 11.5z" />
    <glyph glyph-name="mu" unicode="&#x3bc;" horiz-adv-x="494" 
d="M173 37q-6 -46 -23.5 -94.5t-37.5 -90.5q-30 46 -41 102t-11 110q0 30 2.5 61.5t8.5 61.5q-3 23 -4 46.5t-1 46.5q0 26 0.5 51t0.5 51v24.5t-1 24.5q6 3 14 6.5t15 3.5q8 0 17.5 -3t17.5 -7q18 -26 33 -56.5t15 -63.5q0 -16 -3.5 -31t-3.5 -31q0 -18 7.5 -34.5t19 -31.5
t25.5 -28.5t26 -24.5q26 21 47 48t21 63q0 27 -9.5 53t-9.5 54q0 32 18 57.5t41 45.5q11 -10 26.5 -24.5t29 -31t23 -34.5t9.5 -34q0 -12 -6.5 -23t-17.5 -16q10 -25 15.5 -55t5.5 -56q0 -42 -13.5 -71.5t-38 -48t-58 -27t-72.5 -8.5q-22 0 -44 3.5t-43 11.5z" />
    <glyph glyph-name="mu" unicode="&#x3bc;" horiz-adv-x="494" 
d="M173 37q-6 -46 -23.5 -94.5t-37.5 -90.5q-30 46 -41 102t-11 110q0 30 2.5 61.5t8.5 61.5q-3 23 -4 46.5t-1 46.5q0 26 0.5 51t0.5 51v24.5t-1 24.5q6 3 14 6.5t15 3.5q8 0 17.5 -3t17.5 -7q18 -26 33 -56.5t15 -63.5q0 -16 -3.5 -31t-3.5 -31q0 -18 7.5 -34.5t19 -31.5
t25.5 -28.5t26 -24.5q26 21 47 48t21 63q0 27 -9.5 53t-9.5 54q0 32 18 57.5t41 45.5q11 -10 26.5 -24.5t29 -31t23 -34.5t9.5 -34q0 -12 -6.5 -23t-17.5 -16q10 -25 15.5 -55t5.5 -56q0 -42 -13.5 -71.5t-38 -48t-58 -27t-72.5 -8.5q-22 0 -44 3.5t-43 11.5z" />
    <glyph glyph-name="paragraph" unicode="&#xb6;" horiz-adv-x="547" 
d="M196 744q21 0 45.5 -3.5t48.5 -11.5t46.5 -20t40.5 -28q8 -1 15 -1.5t14 -0.5q6 0 15.5 1t12.5 9t8 9.5t10.5 2t9.5 2.5t6 11q1 -6 6 -6q3 0 5.5 1.5t4.5 1.5q4 0 6 -6q17 -52 24 -116t7 -121q0 -28 -1 -56.5t-6 -55.5q3 -8 4 -22t1 -22q0 -29 -6 -75t-14.5 -95.5
t-18.5 -94.5t-19 -70q-12 25 -19 68t-10.5 90t-4.5 92t-1 75q0 31 1.5 62t6.5 61q-11 22 -15.5 55t-4.5 58q0 11 1 21.5t2 21.5q0 5 1 10t1 10q0 2 -6 8.5t-13.5 13.5t-14.5 13.5t-8 8.5l-10 -698q-11 45 -22.5 88.5t-23.5 88.5q-1 3 -1 17t-0.5 30.5t-1 30.5t-1.5 17
q-4 13 -8.5 28t-10 29.5t-12 27.5t-14.5 22q-24 25 -49 31.5t-48.5 8t-44.5 4.5t-37 20t-25 55t-9 110q0 88 37 138.5t100 50.5z" />
    <glyph glyph-name="periodcentered" unicode="&#xb7;" horiz-adv-x="257" 
d="M172 405q16 -9 22.5 -24.5t5.5 -33.5t-9 -35.5t-21 -30.5q-23 -23 -54.5 -27.5t-56.5 16.5q-17 14 -18.5 35t7.5 41.5t25.5 37.5t37.5 23q17 5 31 5.5t30 -7.5z" />
    <glyph glyph-name="cedilla" unicode="&#xb8;" horiz-adv-x="360" 
d="M172 -8q10 0 27.5 -12t35 -31.5t30 -45t12.5 -51.5q0 -52 -27.5 -78.5t-70.5 -26.5q-16 0 -13 16.5t13 37.5t21 40.5t11 25.5q0 10 -7 23.5t-16.5 27.5t-19 27t-13.5 23.5t-1 17t18 6.5z" />
    <glyph glyph-name="ordmasculine" unicode="&#xba;" horiz-adv-x="373" 
d="M239 596q0 25 -9.5 48t-28.5 34q-9 5 -23 2t-23 0q-8 -8 -15.5 -12.5t-12.5 -9.5q-10 -9 -12 -17.5t-2 -30.5q0 -12 2 -24.5t8 -23t17 -17t29 -6.5q10 0 22.5 6t23 14.5t17.5 18.5t7 18zM324 610q0 -42 -13 -69.5t-34.5 -43.5t-49.5 -22.5t-58 -6.5q-34 0 -62.5 14
t-49 35t-32 46t-11.5 47q0 4 7 26.5t26 48t52 46t84 20.5q36 0 63 -11t44 -30t25.5 -45t8.5 -55z" />
    <glyph glyph-name="guillemotright" unicode="&#xbb;" horiz-adv-x="360" 
d="M56 389q21 0 43.5 -14t41 -34t30.5 -42t12 -39q0 -32 -14.5 -57.5t-33 -43.5t-37 -28t-25.5 -10q-4 0 -4.5 -4.5t-0.5 -2.5q0 20 11 35t23.5 29.5t23.5 31t11 40.5q0 27 -11 47t-23.5 35t-23.5 27.5t-11 25.5q0 1 -3 2t-6 1.5t-4.5 0.5t1.5 0zM188 394q21 0 43.5 -14
t41 -34t30.5 -42t12 -39q0 -32 -14.5 -57.5t-33 -43.5t-37 -28t-25.5 -10q-4 0 -4.5 -4.5t-0.5 -2.5q0 20 11 35t23.5 29.5t23.5 31t11 40.5q0 27 -11 47t-23.5 35t-23.5 27.5t-11 25.5q0 1 -3 2t-6 1.5t-4.5 0.5t1.5 0z" />
    <glyph glyph-name="questiondown" unicode="&#xbf;" horiz-adv-x="388" 
d="M237 510v-37h-56v37h56zM31 98q0 17 15 48t42.5 64.5t65.5 64.5t83 48v-57q-9 -35 -14 -53.5t-8.5 -27t-6 -10t-8 -2.5t-14.5 -4t-24 -15l-14 -48l14 -65q12 0 18 -5.5t9.5 -11.5t6.5 -10.5t10 -2.5q29 -20 44.5 -16.5t28.5 15t28 23.5t43 8v-56q-5 -3 -17.5 -12
t-31.5 -19t-44.5 -17.5t-56.5 -7.5q-32 0 -62 11t-54 32t-38.5 52.5t-14.5 73.5z" />
    <glyph glyph-name="Agrave" unicode="&#xc0;" horiz-adv-x="586" 
d="M353 338q-7 2 -11.5 0t-5.5 0q-9 26 -10 33.5t-2.5 10.5t-5.5 9.5t-19 29.5h-12q-8 -10 -14 -13.5t-11 -4t-8.5 -0.5t-5.5 -3q-9 -15 -11.5 -27t-2.5 -21.5v-17t-3 -12.5q-4 1 -8 -1q-3 -2 -5 -6t-2 -15q0 -9 4 -21t12 -23.5t20 -19t29 -7.5q18 0 28.5 4t17.5 9t12.5 11
t13.5 9v76zM548 58q0 -6 -4.5 -13.5t-11.5 -14.5t-16 -12t-18 -5q-21 0 -38.5 19t-40 42.5t-53.5 42.5t-79 19q-41 0 -67.5 -9t-44 -23t-28.5 -29.5t-21 -29.5t-22.5 -23t-31.5 -9q-15 0 -22.5 4t-10.5 11t-3 17v23q0 9 6.5 35.5t19 64.5t30.5 84.5t40 94.5q7 15 14.5 40.5
t16.5 55t20 60t26 55t34 40t44 15.5q22 0 27 -2t5 -5t0.5 -5t13.5 -2q9 0 21 -17t25 -44.5t26 -62t24 -68.5q18 -59 30.5 -91.5t20 -49.5t10.5 -24t3 -14q0 -5 8.5 -29t19 -52.5t19 -54t8.5 -34.5zM313 682q-8 0 -33 2.5t-52.5 13t-49 31t-21.5 56.5q0 5 4.5 6.5t11 1
t14 -1.5t13.5 -1q4 0 17.5 -12t30.5 -29t35 -35.5t30 -31.5z" />
    <glyph glyph-name="Aacute" unicode="&#xc1;" horiz-adv-x="586" 
d="M353 338q-7 2 -11.5 0t-5.5 0q-9 26 -10 33.5t-2.5 10.5t-5.5 9.5t-19 29.5h-12q-8 -10 -14 -13.5t-11 -4t-8.5 -0.5t-5.5 -3q-9 -15 -11.5 -27t-2.5 -21.5v-17t-3 -12.5q-4 1 -8 -1q-3 -2 -5 -6t-2 -15q0 -9 4 -21t12 -23.5t20 -19t29 -7.5q18 0 28.5 4t17.5 9t12.5 11
t13.5 9v76zM548 58q0 -6 -4.5 -13.5t-11.5 -14.5t-16 -12t-18 -5q-21 0 -38.5 19t-40 42.5t-53.5 42.5t-79 19q-41 0 -67.5 -9t-44 -23t-28.5 -29.5t-21 -29.5t-22.5 -23t-31.5 -9q-15 0 -22.5 4t-10.5 11t-3 17v23q0 9 6.5 35.5t19 64.5t30.5 84.5t40 94.5q7 15 14.5 40.5
t16.5 55t20 60t26 55t34 40t44 15.5q22 0 27 -2t5 -5t0.5 -5t13.5 -2q9 0 21 -17t25 -44.5t26 -62t24 -68.5q18 -59 30.5 -91.5t20 -49.5t10.5 -24t3 -14q0 -5 8.5 -29t19 -52.5t19 -54t8.5 -34.5zM246 735q13 13 32 26.5t38 24.5t35.5 18t24.5 7q3 0 9.5 1.5t13.5 2t12 -1
t5 -7.5q0 -36 -19 -51.5t-45.5 -20t-55.5 -2t-50 2.5zM246 735q-19 -17 -19 -29q0 -6 -0.5 -2t0 10.5t4 13.5t11.5 7h4z" />
    <glyph glyph-name="Acircumflex" unicode="&#xc2;" horiz-adv-x="586" 
d="M353 338q-7 2 -11.5 0t-5.5 0q-9 26 -10 33.5t-2.5 10.5t-5.5 9.5t-19 29.5h-12q-8 -10 -14 -13.5t-11 -4t-8.5 -0.5t-5.5 -3q-9 -15 -11.5 -27t-2.5 -21.5v-17t-3 -12.5q-4 1 -8 -1q-3 -2 -5 -6t-2 -15q0 -9 4 -21t12 -23.5t20 -19t29 -7.5q18 0 28.5 4t17.5 9t12.5 11
t13.5 9v76zM548 58q0 -6 -4.5 -13.5t-11.5 -14.5t-16 -12t-18 -5q-21 0 -38.5 19t-40 42.5t-53.5 42.5t-79 19q-41 0 -67.5 -9t-44 -23t-28.5 -29.5t-21 -29.5t-22.5 -23t-31.5 -9q-15 0 -22.5 4t-10.5 11t-3 17v23q0 9 6.5 35.5t19 64.5t30.5 84.5t40 94.5q7 15 14.5 40.5
t16.5 55t20 60t26 55t34 40t44 15.5q22 0 27 -2t5 -5t0.5 -5t13.5 -2q9 0 21 -17t25 -44.5t26 -62t24 -68.5q18 -59 30.5 -91.5t20 -49.5t10.5 -24t3 -14q0 -5 8.5 -29t19 -52.5t19 -54t8.5 -34.5zM292 794q25 0 53 -17t52 -39t40 -42.5t16 -27.5q0 -12 -13 -27t-36 -15
q-17 0 -29.5 6.5t-24.5 14.5t-25.5 14.5t-32.5 6.5q-14 0 -29.5 -6.5t-31.5 -14.5t-31 -14.5t-28 -6.5q-12 0 -27 13t-15 36q25 33 52 59q23 23 52 41.5t58 18.5z" />
    <glyph glyph-name="Atilde" unicode="&#xc3;" horiz-adv-x="586" 
d="M353 338q-7 2 -11.5 0t-5.5 0q-9 26 -10 33.5t-2.5 10.5t-5.5 9.5t-19 29.5h-12q-8 -10 -14 -13.5t-11 -4t-8.5 -0.5t-5.5 -3q-9 -15 -11.5 -27t-2.5 -21.5v-17t-3 -12.5q-4 1 -8 -1q-3 -2 -5 -6t-2 -15q0 -9 4 -21t12 -23.5t20 -19t29 -7.5q18 0 28.5 4t17.5 9t12.5 11
t13.5 9v76zM548 58q0 -6 -4.5 -13.5t-11.5 -14.5t-16 -12t-18 -5q-21 0 -38.5 19t-40 42.5t-53.5 42.5t-79 19q-41 0 -67.5 -9t-44 -23t-28.5 -29.5t-21 -29.5t-22.5 -23t-31.5 -9q-15 0 -22.5 4t-10.5 11t-3 17v23q0 9 6.5 35.5t19 64.5t30.5 84.5t40 94.5q7 15 14.5 40.5
t16.5 55t20 60t26 55t34 40t44 15.5q22 0 27 -2t5 -5t0.5 -5t13.5 -2q9 0 21 -17t25 -44.5t26 -62t24 -68.5q18 -59 30.5 -91.5t20 -49.5t10.5 -24t3 -14q0 -5 8.5 -29t19 -52.5t19 -54t8.5 -34.5zM196 841q9 0 33 -7t48.5 -15t44 -15t20.5 -7q26 -8 49 -7t40.5 1t28 -4.5
t10.5 -23.5q-7 -14 -19 -25q-11 -10 -27.5 -17.5t-42.5 -7.5q-6 0 -27 5t-45.5 12t-47 13t-31.5 9q-39 11 -65.5 9.5t-43 -3t-24 2t-7.5 24.5q0 2 6.5 11t20 19t33.5 18t46 8z" />
    <glyph glyph-name="Adieresis" unicode="&#xc4;" horiz-adv-x="586" 
d="M353 338q-7 2 -11.5 0t-5.5 0q-9 26 -10 33.5t-2.5 10.5t-5.5 9.5t-19 29.5h-12q-8 -10 -14 -13.5t-11 -4t-8.5 -0.5t-5.5 -3q-9 -15 -11.5 -27t-2.5 -21.5v-17t-3 -12.5q-4 1 -8 -1q-3 -2 -5 -6t-2 -15q0 -9 4 -21t12 -23.5t20 -19t29 -7.5q18 0 28.5 4t17.5 9t12.5 11
t13.5 9v76zM548 58q0 -6 -4.5 -13.5t-11.5 -14.5t-16 -12t-18 -5q-21 0 -38.5 19t-40 42.5t-53.5 42.5t-79 19q-41 0 -67.5 -9t-44 -23t-28.5 -29.5t-21 -29.5t-22.5 -23t-31.5 -9q-15 0 -22.5 4t-10.5 11t-3 17v23q0 9 6.5 35.5t19 64.5t30.5 84.5t40 94.5q7 15 14.5 40.5
t16.5 55t20 60t26 55t34 40t44 15.5q22 0 27 -2t5 -5t0.5 -5t13.5 -2q9 0 21 -17t25 -44.5t26 -62t24 -68.5q18 -59 30.5 -91.5t20 -49.5t10.5 -24t3 -14q0 -5 8.5 -29t19 -52.5t19 -54t8.5 -34.5zM173 654q-26 6 -41.5 8t-26 6.5t-19 13.5t-20.5 29q17 13 33 7.5t28.5 -16
t20 -18t7.5 1.5q0 11 0.5 19t2.5 7t5.5 -14t9.5 -44zM375 685q0 2 1 1.5t1 -6t-3 -17.5t-11 -32q-12 8 -17.5 10t-12 8.5t-17.5 23l-35 52.5q27 0 41.5 -2.5t20.5 -5t5.5 -5t-3.5 -2.5q-4 0 0.5 -6.5t11 -13t12.5 -9.5t6 4z" />
    <glyph glyph-name="Aring" unicode="&#xc5;" horiz-adv-x="586" 
d="M353 338q-7 2 -11.5 0t-5.5 0q-9 26 -10 33.5t-2.5 10.5t-5.5 9.5t-19 29.5h-12q-8 -10 -14 -13.5t-11 -4t-8.5 -0.5t-5.5 -3q-9 -15 -11.5 -27t-2.5 -21.5v-17t-3 -12.5q-4 1 -8 -1q-3 -2 -5 -6t-2 -15q0 -9 4 -21t12 -23.5t20 -19t29 -7.5q18 0 28.5 4t17.5 9t12.5 11
t13.5 9v76zM548 58q0 -6 -4.5 -13.5t-11.5 -14.5t-16 -12t-18 -5q-21 0 -38.5 19t-40 42.5t-53.5 42.5t-79 19q-41 0 -67.5 -9t-44 -23t-28.5 -29.5t-21 -29.5t-22.5 -23t-31.5 -9q-15 0 -22.5 4t-10.5 11t-3 17v23q0 9 6.5 35.5t19 64.5t30.5 84.5t40 94.5q7 15 14.5 40.5
t16.5 55t20 60t26 55t34 40t44 15.5q22 0 27 -2t5 -5t0.5 -5t13.5 -2q9 0 21 -17t25 -44.5t26 -62t24 -68.5q18 -59 30.5 -91.5t20 -49.5t10.5 -24t3 -14q0 -5 8.5 -29t19 -52.5t19 -54t8.5 -34.5zM284 835q25 0 43.5 -12t30.5 -29t18 -35t6 -29q0 -26 -10.5 -48t-25.5 -38
t-32 -25t-30 -9t-30 9t-32.5 25.5t-26 38t-10.5 47.5q0 16 6.5 34t19.5 34t31.5 26.5t41.5 10.5z" />
    <glyph glyph-name="AE" unicode="&#xc6;" horiz-adv-x="696" 
d="M361 177q-14 -17 -32.5 -29t-41.5 -12q-41 0 -67 -9t-43.5 -23t-29 -29.5t-21.5 -29.5t-22.5 -23t-31.5 -9q-24 0 -30 10t-6 32q0 28 10.5 67t25.5 80t31.5 79.5t28.5 65.5q8 18 15.5 44.5t16.5 55.5t20 58.5t25.5 53t33.5 38.5t44 16h13q5 0 12 -1t7 -9q0 -2 6.5 -3.5
t8.5 -1.5q14 -3 27 -6t27 -3q9 0 13 2.5t8 6t9.5 6t16.5 2.5q31 0 61.5 -1.5t60.5 -1.5q7 0 24.5 -0.5t35.5 -3t31.5 -7.5t13.5 -15q0 -7 -5.5 -13t-10.5 -10q-11 -9 -32.5 -16t-44 -14t-41 -13.5t-22.5 -14.5q-6 -11 -10 -24t-4 -25q0 -23 14 -37.5t34 -22.5
q5 -2 11.5 -3.5t11.5 -3.5q6 -3 10 -8t10 -8q10 2 20 3t20 1q8 0 14.5 -0.5t13.5 -5.5q6 -4 16 -14.5t10 -17.5q0 -8 -7.5 -16t-12.5 -13q-13 -12 -29 -13.5t-33.5 -3t-36.5 -7t-38 -23.5q-14 -14 -23 -31t-9 -37t10 -39t25 -30q12 -9 22.5 -9t23.5 -5q8 -4 20.5 -8.5
t25.5 -8.5t25.5 -7t21.5 -3v-49q-6 0 -10.5 -2.5t-9.5 -6t-11 -6t-15 -2.5q-27 0 -54 1.5t-54 1.5h-93q-8 6 -12 11t-15 3q0 15 -5.5 28.5t-10.5 27.5q-7 23 -9 46.5t-2 47.5zM353 338q-2 1 -5 1t-5.5 -0.5t-5.5 -1.5l-1 1q-5 11 -6.5 22.5t-6.5 22.5q-4 11 -11 19.5
t-13 18.5h-12q-6 -8 -12.5 -11.5t-12 -5t-9.5 -2t-5 -2.5q-8 -11 -10.5 -23t-3 -22.5t-0.5 -19t-3 -13.5q-1 0 -1.5 0.5t-1.5 0.5q-8 0 -10 -8.5t-2 -14.5q0 -13 5 -25.5t14 -22.5t20.5 -16.5t25.5 -6.5q19 0 28 3t14.5 8t11 11t18.5 11v76z" />
    <glyph glyph-name="Ccedilla" unicode="&#xc7;" horiz-adv-x="495" 
d="M283 61q7 0 18.5 -8t23 -21t20 -30t8.5 -34q0 -35 -18 -53t-47 -18q-11 0 -9 11t8.5 25t14 27t7.5 18q0 10 -10 24.5t-18.5 27.5t-10.5 22t13 9zM472 100q0 -18 0.5 -30.5t-3.5 -22t-15 -18t-35 -18.5h-57q-17 -8 -25 -13.5t-22 -4.5q-4 5 -12 9q-7 3 -17.5 6t-27.5 3
q-50 0 -82 13.5t-55.5 36.5t-42 52.5t-42.5 62.5q-8 11 -15 20.5t-11 14.5v179q7 14 11.5 22.5t8 14t6 10t4.5 11.5q11 44 39.5 73.5t62 48.5t65.5 30t51 20q15 7 40.5 5.5t50.5 -6.5q29 -5 62 -14q6 0 15 -3t18.5 -7.5t17.5 -11t10 -14.5q6 -23 -4.5 -40.5t-30.5 -15.5
q-14 2 -17.5 9t-8.5 9l-17 1.5t-43.5 0t-57.5 -8.5t-60 -23q-7 -4 -19 -10.5t-24.5 -15.5t-22.5 -19.5t-13 -21.5q-11 -38 -21 -59.5t-15.5 -38t-4 -34t15.5 -47.5q-5 -11 -2 -26q2 -13 12.5 -31.5t35.5 -43.5q31 -31 55 -47t44.5 -22t40.5 -4.5t42.5 6t50.5 9t64 4.5z" />
    <glyph glyph-name="Egrave" unicode="&#xc8;" horiz-adv-x="413" 
d="M348 27q-8 0 -13.5 -4.5t-13.5 -9.5t-35.5 -2.5t-91.5 2.5h-93q-7 4 -9 7t-3.5 4.5t-4.5 2t-10 0.5q0 10 -4 22t-9.5 28t-9.5 37.5t-4 52.5v142v146q0 29 4 46.5t9.5 30.5t9.5 25t4 32q8 0 11 1t4.5 2.5t3.5 4t8 6.5q4 3 13.5 3t25.5 -0.5t40.5 -1.5t60.5 -1
q30 0 54 -2.5t38 -8t15 -15t-16 -23.5t-39 -21t-42.5 -12t-37 -10t-21.5 -15q-25 -50 -6.5 -77.5t63.5 -38.5q5 -1 11 -8t9 -8q15 3 28 4q11 1 22.5 0t17.5 -6q13 -11 19.5 -18t7 -13t-5 -13t-15.5 -17q-12 -12 -27.5 -13.5t-33.5 -3t-37.5 -6.5t-38.5 -24
q-36 -36 -32 -73.5t35 -63.5q7 -6 12.5 -7.5t10.5 -1.5t10.5 -0.5t12.5 -4.5q3 -2 15.5 -6.5t27.5 -9t29 -8t21 -3.5v-49zM260 650q-8 0 -33 2.5t-52.5 13t-49 31t-21.5 56.5q0 5 4.5 6.5t11 1t14 -1.5t13.5 -1q4 0 17.5 -12t30.5 -29t35 -35.5t30 -31.5z" />
    <glyph glyph-name="Eacute" unicode="&#xc9;" horiz-adv-x="413" 
d="M348 27q-8 0 -13.5 -4.5t-13.5 -9.5t-35.5 -2.5t-91.5 2.5h-93q-7 4 -9 7t-3.5 4.5t-4.5 2t-10 0.5q0 10 -4 22t-9.5 28t-9.5 37.5t-4 52.5v142v146q0 29 4 46.5t9.5 30.5t9.5 25t4 32q8 0 11 1t4.5 2.5t3.5 4t8 6.5q4 3 13.5 3t25.5 -0.5t40.5 -1.5t60.5 -1
q30 0 54 -2.5t38 -8t15 -15t-16 -23.5t-39 -21t-42.5 -12t-37 -10t-21.5 -15q-25 -50 -6.5 -77.5t63.5 -38.5q5 -1 11 -8t9 -8q15 3 28 4q11 1 22.5 0t17.5 -6q13 -11 19.5 -18t7 -13t-5 -13t-15.5 -17q-12 -12 -27.5 -13.5t-33.5 -3t-37.5 -6.5t-38.5 -24
q-36 -36 -32 -73.5t35 -63.5q7 -6 12.5 -7.5t10.5 -1.5t10.5 -0.5t12.5 -4.5q3 -2 15.5 -6.5t27.5 -9t29 -8t21 -3.5v-49zM155 635q13 13 32 26.5t38 24.5t35.5 18t24.5 7q3 0 9.5 1.5t13.5 2t12 -1t5 -7.5q0 -36 -19 -51.5t-45.5 -20t-55.5 -2t-50 2.5zM155 635
q-19 -17 -19 -29q0 -6 -0.5 -2t0 10.5t4 13.5t11.5 7h4z" />
    <glyph glyph-name="Ecircumflex" unicode="&#xca;" horiz-adv-x="413" 
d="M348 27q-8 0 -13.5 -4.5t-13.5 -9.5t-35.5 -2.5t-91.5 2.5h-93q-7 4 -9 7t-3.5 4.5t-4.5 2t-10 0.5q0 10 -4 22t-9.5 28t-9.5 37.5t-4 52.5v142v146q0 29 4 46.5t9.5 30.5t9.5 25t4 32q8 0 11 1t4.5 2.5t3.5 4t8 6.5q4 3 13.5 3t25.5 -0.5t40.5 -1.5t60.5 -1
q30 0 54 -2.5t38 -8t15 -15t-16 -23.5t-39 -21t-42.5 -12t-37 -10t-21.5 -15q-25 -50 -6.5 -77.5t63.5 -38.5q5 -1 11 -8t9 -8q15 3 28 4q11 1 22.5 0t17.5 -6q13 -11 19.5 -18t7 -13t-5 -13t-15.5 -17q-12 -12 -27.5 -13.5t-33.5 -3t-37.5 -6.5t-38.5 -24
q-36 -36 -32 -73.5t35 -63.5q7 -6 12.5 -7.5t10.5 -1.5t10.5 -0.5t12.5 -4.5q3 -2 15.5 -6.5t27.5 -9t29 -8t21 -3.5v-49zM204 794q25 0 53 -17t52 -39t40 -42.5t16 -27.5q0 -12 -13 -27t-36 -15q-17 0 -29.5 6.5t-24.5 14.5t-25.5 14.5t-32.5 6.5q-14 0 -29.5 -6.5
t-31.5 -14.5t-31 -14.5t-28 -6.5q-12 0 -27 13t-15 36q25 33 52 59q23 23 52 41.5t58 18.5z" />
    <glyph glyph-name="Edieresis" unicode="&#xcb;" horiz-adv-x="413" 
d="M348 27q-8 0 -13.5 -4.5t-13.5 -9.5t-35.5 -2.5t-91.5 2.5h-93q-7 4 -9 7t-3.5 4.5t-4.5 2t-10 0.5q0 10 -4 22t-9.5 28t-9.5 37.5t-4 52.5v142v146q0 29 4 46.5t9.5 30.5t9.5 25t4 32q8 0 11 1t4.5 2.5t3.5 4t8 6.5q4 3 13.5 3t25.5 -0.5t40.5 -1.5t60.5 -1
q30 0 54 -2.5t38 -8t15 -15t-16 -23.5t-39 -21t-42.5 -12t-37 -10t-21.5 -15q-25 -50 -6.5 -77.5t63.5 -38.5q5 -1 11 -8t9 -8q15 3 28 4q11 1 22.5 0t17.5 -6q13 -11 19.5 -18t7 -13t-5 -13t-15.5 -17q-12 -12 -27.5 -13.5t-33.5 -3t-37.5 -6.5t-38.5 -24
q-36 -36 -32 -73.5t35 -63.5q7 -6 12.5 -7.5t10.5 -1.5t10.5 -0.5t12.5 -4.5q3 -2 15.5 -6.5t27.5 -9t29 -8t21 -3.5v-49zM173 654q-26 6 -41.5 8t-26 6.5t-19 13.5t-20.5 29q17 13 33 7.5t28.5 -16t20 -18t7.5 1.5q0 11 0.5 19t2.5 7t5.5 -14t9.5 -44zM375 685q0 2 1 1.5
t1 -6t-3 -17.5t-11 -32q-12 8 -17.5 10t-12 8.5t-17.5 23l-35 52.5q27 0 41.5 -2.5t20.5 -5t5.5 -5t-3.5 -2.5q-4 0 0.5 -6.5t11 -13t12.5 -9.5t6 4z" />
    <glyph glyph-name="Igrave" unicode="&#xcc;" horiz-adv-x="243" 
d="M189 321q0 -79 1 -127t-2.5 -79t-13.5 -52.5t-32 -46.5h-21.5t-10.5 2t-7 6t-11 12q-14 13 -20 34.5t-7.5 52.5t-1 73.5t0.5 98.5v159q0 12 2 35t7.5 47t15.5 43t27 23q5 1 14 -1t18 -7t16.5 -11.5t10.5 -13.5q1 -2 0.5 -9.5t-1 -16.5t-0.5 -17t1 -11q1 -1 7.5 -8
t6.5 -27v-159zM173 650q-8 0 -33 2.5t-52.5 13t-49 31t-21.5 56.5q0 5 4.5 6.5t11 1t14 -1.5t13.5 -1q4 0 17.5 -12t30.5 -29t35 -35.5t30 -31.5z" />
    <glyph glyph-name="Iacute" unicode="&#xcd;" horiz-adv-x="243" 
d="M189 321q0 -79 1 -127t-2.5 -79t-13.5 -52.5t-32 -46.5h-21.5t-10.5 2t-7 6t-11 12q-14 13 -20 34.5t-7.5 52.5t-1 73.5t0.5 98.5v159q0 12 2 35t7.5 47t15.5 43t27 23q5 1 14 -1t18 -7t16.5 -11.5t10.5 -13.5q1 -2 0.5 -9.5t-1 -16.5t-0.5 -17t1 -11q1 -1 7.5 -8
t6.5 -27v-159zM127 735q13 13 32 26.5t38 24.5t35.5 18t24.5 7q3 0 9.5 1.5t13.5 2t12 -1t5 -7.5q0 -36 -19 -51.5t-45.5 -20t-55.5 -2t-50 2.5zM127 735q-19 -17 -19 -29q0 -6 -0.5 -2t0 10.5t4 13.5t11.5 7h4z" />
    <glyph glyph-name="Icircumflex" unicode="&#xce;" horiz-adv-x="243" 
d="M139 770q18 0 38.5 -12.5t38 -28t29 -30.5t11.5 -20q0 -9 -9.5 -20t-26.5 -11q-12 0 -21.5 5t-18 10.5t-18.5 10.5t-23 5q-10 0 -21.5 -5t-23 -10.5t-23 -10.5t-20.5 -5q-8 0 -19 9.5t-11 26.5q18 24 38 43q17 16 38 29.5t42 13.5zM189 321q0 -79 1 -127t-2.5 -79
t-13.5 -52.5t-32 -46.5h-21.5t-10.5 2t-7 6t-11 12q-14 13 -20 34.5t-7.5 52.5t-1 73.5t0.5 98.5v159q0 12 2 35t7.5 47t15.5 43t27 23q5 1 14 -1t18 -7t16.5 -11.5t10.5 -13.5q1 -2 0.5 -9.5t-1 -16.5t-0.5 -17t1 -11q1 -1 7.5 -8t6.5 -27v-159z" />
    <glyph glyph-name="Idieresis" unicode="&#xcf;" horiz-adv-x="243" 
d="M189 321q0 -79 1 -127t-2.5 -79t-13.5 -52.5t-32 -46.5h-21.5t-10.5 2t-7 6t-11 12q-14 13 -20 34.5t-7.5 52.5t-1 73.5t0.5 98.5v159q0 12 2 35t7.5 47t15.5 43t27 23q5 1 14 -1t18 -7t16.5 -11.5t10.5 -13.5q1 -2 0.5 -9.5t-1 -16.5t-0.5 -17t1 -11q1 -1 7.5 -8
t6.5 -27v-159zM84 654q-26 6 -41.5 8t-26 6.5t-19 13.5t-20.5 29q17 13 33 7.5t28.5 -16t20 -18t7.5 1.5q0 11 0.5 19t2.5 7t5.5 -14t9.5 -44zM286 685q0 2 1 1.5t1 -6t-3 -17.5t-11 -32q-12 8 -17.5 10t-12 8.5t-17.5 23l-35 52.5q27 0 41.5 -2.5t20.5 -5t5.5 -5t-3.5 -2.5
q-4 0 0.5 -6.5t11 -13t12.5 -9.5t6 4z" />
    <glyph glyph-name="Eth" unicode="&#xd0;" horiz-adv-x="564" 
d="M441 319q0 40 -12 76q-4 11 -10 25t-6 26q-8 1 -13 6t-8.5 12.5t-7.5 15t-9 12.5t-12.5 8.5t-14 7t-12 8.5t-6.5 14q-6 0 -11.5 -0.5t-10.5 -0.5q-8 0 -13 2.5t-6 10.5q-5 1 -9 1h-9q-51 0 -82 -30.5t-31 -81.5v-95q8 -1 27 -2.5t38.5 -5.5t34.5 -11t15 -19t-15.5 -18.5
t-35 -9.5t-39 -3.5t-26.5 -0.5q0 -13 -1 -25.5t-1 -24.5v-10t1.5 -11.5t4.5 -9.5t9 -4q2 -17 8.5 -28t8.5 -29q4 2 6 2q5 0 11.5 -3t11.5 -5q11 -4 21.5 -5t21.5 -1q27 0 54 9q2 1 6 2.5t6 1.5q1 0 1.5 -0.5t1.5 -0.5q7 13 11 14.5t18 1.5q4 13 11 18.5t14.5 10.5t13 12.5
t5.5 24.5q9 1 13 9t5.5 18t3 20.5t4.5 17.5q5 0 7.5 6.5t4 15t2 16.5t0.5 10zM568 327q0 -10 -3 -17q-1 -4 -3.5 -9.5t-5.5 -7.5q-1 -1 -2 -1t-2 -1t-1.5 -7.5t-0.5 -14.5v-15v-8q0 -13 -3 -20t-7 -12.5t-9 -11.5t-9 -16q-13 -33 -25.5 -51.5t-27 -31.5t-32.5 -25.5
t-42 -33.5q-5 0 -18.5 -7t-19.5 -9q-18 -7 -36.5 -9.5t-38.5 -2.5q-36 0 -72.5 -0.5t-72.5 -0.5q-6 0 -16 0.5t-20.5 2t-20 4.5t-13.5 8q-3 3 -3 7v8q0 6 -2 8q-15 21 -20.5 39t-5.5 44l1 117q3 5 7.5 6.5t7.5 6.5q-17 1 -32.5 0.5t-32.5 -0.5q-9 0 -15.5 2.5t-6.5 13.5v23
t3 17.5t10.5 11.5t23.5 4q12 0 24.5 -0.5t25.5 -0.5v49q-2 7 -7.5 9.5t-7.5 10.5q0 1 -0.5 6.5t-0.5 12v12v7.5q0 26 2.5 56t13.5 53v6q0 13 5 25.5t13 22.5t19.5 16t24.5 6q26 0 52.5 -1.5t52.5 -1.5q14 0 27 0.5t27 1.5q10 1 19.5 2t19.5 1q13 0 28 -5q25 -9 53 -24
t53.5 -34.5t46 -43.5t29.5 -50q5 -14 13 -28t15 -28q1 -3 1 -8q0 -10 -1 -19t-1 -19q0 -8 3 -12.5t6.5 -8.5t6.5 -9.5t3 -14.5z" />
    <glyph glyph-name="Ntilde" unicode="&#xd1;" horiz-adv-x="661" 
d="M582 309q0 -24 5 -54t10 -61.5t6.5 -62t-4.5 -54t-23 -38t-50 -14.5q-28 0 -48.5 19t-39.5 49.5t-38.5 70.5t-45.5 82t-62.5 83t-87.5 74q-9 -18 -17.5 -46.5t-14.5 -62t-9.5 -69.5t-2.5 -69.5t7 -63t19 -48.5q-11 -15 -23 -26q-11 -10 -23.5 -18t-25.5 -6q-11 1 -22 9
t-19 17q-10 11 -19 24v491q0 46 16 60.5t60 14.5q36 0 64.5 -26.5t53 -66.5t46 -86t43 -86t44 -66.5t50.5 -26.5q26 0 40.5 14t22 38.5t10 58.5t4.5 73.5t5.5 84t12.5 89.5l10 5q5 2 9 3.5t9 1.5t9 -1.5t9 -3.5q4 -3 10 -5q9 -72 13 -108t4 -53.5t-2.5 -23t-6 -15t-6 -31
t-2.5 -70.5zM254 772q9 0 33 -7t48.5 -15t44 -15t20.5 -7q26 -8 49 -7t40.5 1t28 -4.5t10.5 -23.5q-7 -14 -19 -25q-11 -10 -27.5 -17.5t-42.5 -7.5q-6 0 -27 5t-45.5 12t-47 13t-31.5 9q-39 11 -65.5 9.5t-43 -3t-24 2t-7.5 24.5q0 2 6.5 11t20 19t33.5 18t46 8z" />
    <glyph glyph-name="Ograve" unicode="&#xd2;" horiz-adv-x="665" 
d="M533 281q0 34 -13.5 70.5t-39.5 65.5t-64 48t-87 19q-60 0 -99 -21.5t-62.5 -51t-33 -61t-9.5 -51.5q0 -29 13.5 -64t39 -66t63.5 -52t88 -21q51 0 89 23.5t63.5 54.5t38.5 62t13 45zM644 299q0 -72 -24.5 -127t-67 -92.5t-100 -56.5t-123.5 -19q-59 0 -115.5 19
t-100.5 56.5t-71 92.5t-27 127q0 80 25.5 136.5t69 92t100.5 52t119 16.5q102 0 163.5 -29t95.5 -73t45 -96.5t11 -98.5zM391 650q-8 0 -33 2.5t-52.5 13t-49 31t-21.5 56.5q0 5 4.5 6.5t11 1t14 -1.5t13.5 -1q4 0 17.5 -12t30.5 -29t35 -35.5t30 -31.5z" />
    <glyph glyph-name="Oacute" unicode="&#xd3;" horiz-adv-x="665" 
d="M533 281q0 34 -13.5 70.5t-39.5 65.5t-64 48t-87 19q-60 0 -99 -21.5t-62.5 -51t-33 -61t-9.5 -51.5q0 -29 13.5 -64t39 -66t63.5 -52t88 -21q51 0 89 23.5t63.5 54.5t38.5 62t13 45zM644 299q0 -72 -24.5 -127t-67 -92.5t-100 -56.5t-123.5 -19q-59 0 -115.5 19
t-100.5 56.5t-71 92.5t-27 127q0 80 25.5 136.5t69 92t100.5 52t119 16.5q102 0 163.5 -29t95.5 -73t45 -96.5t11 -98.5zM356 735q13 13 32 26.5t38 24.5t35.5 18t24.5 7q3 0 9.5 1.5t13.5 2t12 -1t5 -7.5q0 -36 -19 -51.5t-45.5 -20t-55.5 -2t-50 2.5zM356 735
q-19 -17 -19 -29q0 -6 -0.5 -2t0 10.5t4 13.5t11.5 7h4z" />
    <glyph glyph-name="Ocircumflex" unicode="&#xd4;" horiz-adv-x="665" 
d="M533 281q0 34 -13.5 70.5t-39.5 65.5t-64 48t-87 19q-60 0 -99 -21.5t-62.5 -51t-33 -61t-9.5 -51.5q0 -29 13.5 -64t39 -66t63.5 -52t88 -21q51 0 89 23.5t63.5 54.5t38.5 62t13 45zM644 299q0 -72 -24.5 -127t-67 -92.5t-100 -56.5t-123.5 -19q-59 0 -115.5 19
t-100.5 56.5t-71 92.5t-27 127q0 80 25.5 136.5t69 92t100.5 52t119 16.5q102 0 163.5 -29t95.5 -73t45 -96.5t11 -98.5zM344 794q25 0 53 -17t52 -39t40 -42.5t16 -27.5q0 -12 -13 -27t-36 -15q-17 0 -29.5 6.5t-24.5 14.5t-25.5 14.5t-32.5 6.5q-14 0 -29.5 -6.5
t-31.5 -14.5t-31 -14.5t-28 -6.5q-12 0 -27 13t-15 36q25 33 52 59q23 23 52 41.5t58 18.5z" />
    <glyph glyph-name="Otilde" unicode="&#xd5;" horiz-adv-x="665" 
d="M533 281q0 34 -13.5 70.5t-39.5 65.5t-64 48t-87 19q-60 0 -99 -21.5t-62.5 -51t-33 -61t-9.5 -51.5q0 -29 13.5 -64t39 -66t63.5 -52t88 -21q51 0 89 23.5t63.5 54.5t38.5 62t13 45zM644 299q0 -72 -24.5 -127t-67 -92.5t-100 -56.5t-123.5 -19q-59 0 -115.5 19
t-100.5 56.5t-71 92.5t-27 127q0 80 25.5 136.5t69 92t100.5 52t119 16.5q102 0 163.5 -29t95.5 -73t45 -96.5t11 -98.5zM254 850q9 0 33 -7t48.5 -15t44 -15t20.5 -7q26 -8 49 -7t40.5 1t28 -4.5t10.5 -23.5q-7 -14 -19 -25q-11 -10 -27.5 -17.5t-42.5 -7.5q-6 0 -27 5
t-45.5 12t-47 13t-31.5 9q-39 11 -65.5 9.5t-43 -3t-24 2t-7.5 24.5q0 2 6.5 11t20 19t33.5 18t46 8z" />
    <glyph glyph-name="Odieresis" unicode="&#xd6;" horiz-adv-x="665" 
d="M533 281q0 34 -13.5 70.5t-39.5 65.5t-64 48t-87 19q-60 0 -99 -21.5t-62.5 -51t-33 -61t-9.5 -51.5q0 -29 13.5 -64t39 -66t63.5 -52t88 -21q51 0 89 23.5t63.5 54.5t38.5 62t13 45zM644 299q0 -72 -24.5 -127t-67 -92.5t-100 -56.5t-123.5 -19q-59 0 -115.5 19
t-100.5 56.5t-71 92.5t-27 127q0 80 25.5 136.5t69 92t100.5 52t119 16.5q102 0 163.5 -29t95.5 -73t45 -96.5t11 -98.5zM230 654q-26 6 -41.5 8t-26 6.5t-19 13.5t-20.5 29q17 13 33 7.5t28.5 -16t20 -18t7.5 1.5q0 11 0.5 19t2.5 7t5.5 -14t9.5 -44zM432 685q0 2 1 1.5
t1 -6t-3 -17.5t-11 -32q-12 8 -17.5 10t-12 8.5t-17.5 23l-35 52.5q27 0 41.5 -2.5t20.5 -5t5.5 -5t-3.5 -2.5q-4 0 0.5 -6.5t11 -13t12.5 -9.5t6 4z" />
    <glyph glyph-name="multiply" unicode="&#xd7;" horiz-adv-x="506" 
d="M416 122q-34 4 -57.5 11t-40.5 14t-30.5 12t-28.5 6q-13 1 -28.5 -3t-36.5 -10.5t-50 -14.5t-68 -15q10 36 25 60.5t27.5 49.5t18.5 56.5t-1 79.5q-3 16 -11.5 33.5t-19 37.5t-21.5 43.5t-18 52.5q29 -3 54 -13.5t45.5 -22.5t37 -21.5t30.5 -9.5q26 -1 43.5 8t35.5 21
t39.5 23.5t54.5 14.5q-7 -25 -16.5 -50.5t-18.5 -50.5t-15.5 -48.5t-7.5 -42.5q-2 -46 6 -81.5t19 -62.5t21 -46t12 -31z" />
    <glyph glyph-name="Oslash" unicode="&#xd8;" 
d="M326 272q0 37 -10 71q-29 -48 -63 -95.5t-70 -90.5q8 -21 12.5 -42.5t6.5 -43.5q6 -10 18 -21.5t24 -11.5q13 0 26.5 11.5t21.5 21.5q11 50 22.5 100t11.5 101zM302 385q-3 8 -5.5 16t-4.5 16q-10 4 -22.5 7.5t-23.5 3.5q-10 0 -22.5 -3.5t-21.5 -7.5q0 -8 -9 -18
t-14 -16q-7 -9 -13 -22q-9 -20 -13 -42.5t-4 -45.5q0 -20 4 -35t12 -34q74 89 137 181zM437 236q0 -51 -7.5 -103t-29 -94t-60 -68.5t-100.5 -26.5q-59 0 -97.5 29.5t-58.5 83.5q-11 -9 -22.5 -17.5t-23.5 -15.5q-7 -4 -13.5 -3.5t-14.5 0.5t-12 -1q38 37 73 76
q-11 44 -13.5 87.5t-2.5 88.5q0 48 10 97t33 88t62 63.5t96 24.5q35 0 64 -13t52 -40q11 20 22 39.5t21 40.5q2 -4 8.5 -4.5t6.5 -3.5q0 -4 -5.5 -17.5t-13 -29.5t-14.5 -30l-9 -18q15 -25 24.5 -53.5t15 -59t7.5 -61.5t2 -59z" />
    <glyph glyph-name="Ugrave" unicode="&#xd9;" horiz-adv-x="584" 
d="M531 370q0 -90 -7 -155.5t-32 -108t-73 -63t-130 -20.5q-81 0 -128 25.5t-71 80.5t-30.5 142t-6.5 209q0 13 0.5 24.5t0.5 23.5v26.5t-1 34.5q6 6 12 10q5 4 11 7.5t13 3.5q6 0 12.5 -3.5t11.5 -7.5q6 -4 12 -10q26 -50 33 -106t7 -111t-0.5 -105t10.5 -88t41 -60.5
t91 -22.5q55 0 84.5 44t43 114.5t16 158.5t2.5 176q11 -3 24.5 0t21.5 2q24 -5 32 -12.5t8 -29t-4 -63t-4 -116.5zM328 650q-8 0 -33 2.5t-52.5 13t-49 31t-21.5 56.5q0 5 4.5 6.5t11 1t14 -1.5t13.5 -1q4 0 17.5 -12t30.5 -29t35 -35.5t30 -31.5z" />
    <glyph glyph-name="Uacute" unicode="&#xda;" horiz-adv-x="584" 
d="M531 370q0 -90 -7 -155.5t-32 -108t-73 -63t-130 -20.5q-81 0 -128 25.5t-71 80.5t-30.5 142t-6.5 209q0 13 0.5 24.5t0.5 23.5v26.5t-1 34.5q6 6 12 10q5 4 11 7.5t13 3.5q6 0 12.5 -3.5t11.5 -7.5q6 -4 12 -10q26 -50 33 -106t7 -111t-0.5 -105t10.5 -88t41 -60.5
t91 -22.5q55 0 84.5 44t43 114.5t16 158.5t2.5 176q11 -3 24.5 0t21.5 2q24 -5 32 -12.5t8 -29t-4 -63t-4 -116.5zM206 735q13 13 32 26.5t38 24.5t35.5 18t24.5 7q3 0 9.5 1.5t13.5 2t12 -1t5 -7.5q0 -36 -19 -51.5t-45.5 -20t-55.5 -2t-50 2.5zM206 735q-19 -17 -19 -29
q0 -6 -0.5 -2t0 10.5t4 13.5t11.5 7h4z" />
    <glyph glyph-name="Ucircumflex" unicode="&#xdb;" horiz-adv-x="584" 
d="M531 370q0 -90 -7 -155.5t-32 -108t-73 -63t-130 -20.5q-81 0 -128 25.5t-71 80.5t-30.5 142t-6.5 209q0 13 0.5 24.5t0.5 23.5v26.5t-1 34.5q6 6 12 10q5 4 11 7.5t13 3.5q6 0 12.5 -3.5t11.5 -7.5q6 -4 12 -10q26 -50 33 -106t7 -111t-0.5 -105t10.5 -88t41 -60.5
t91 -22.5q55 0 84.5 44t43 114.5t16 158.5t2.5 176q11 -3 24.5 0t21.5 2q24 -5 32 -12.5t8 -29t-4 -63t-4 -116.5zM292 794q25 0 53 -17t52 -39t40 -42.5t16 -27.5q0 -12 -13 -27t-36 -15q-17 0 -29.5 6.5t-24.5 14.5t-25.5 14.5t-32.5 6.5q-14 0 -29.5 -6.5t-31.5 -14.5
t-31 -14.5t-28 -6.5q-12 0 -27 13t-15 36q25 33 52 59q23 23 52 41.5t58 18.5z" />
    <glyph glyph-name="Udieresis" unicode="&#xdc;" horiz-adv-x="584" 
d="M531 370q0 -90 -7 -155.5t-32 -108t-73 -63t-130 -20.5q-81 0 -128 25.5t-71 80.5t-30.5 142t-6.5 209q0 13 0.5 24.5t0.5 23.5v26.5t-1 34.5q6 6 12 10q5 4 11 7.5t13 3.5q6 0 12.5 -3.5t11.5 -7.5q6 -4 12 -10q26 -50 33 -106t7 -111t-0.5 -105t10.5 -88t41 -60.5
t91 -22.5q55 0 84.5 44t43 114.5t16 158.5t2.5 176q11 -3 24.5 0t21.5 2q24 -5 32 -12.5t8 -29t-4 -63t-4 -116.5zM227 654q-26 6 -41.5 8t-26 6.5t-19 13.5t-20.5 29q17 13 33 7.5t28.5 -16t20 -18t7.5 1.5q0 11 0.5 19t2.5 7t5.5 -14t9.5 -44zM429 685q0 2 1 1.5t1 -6
t-3 -17.5t-11 -32q-12 8 -17.5 10t-12 8.5t-17.5 23l-35 52.5q27 0 41.5 -2.5t20.5 -5t5.5 -5t-3.5 -2.5q-4 0 0.5 -6.5t11 -13t12.5 -9.5t6 4z" />
    <glyph glyph-name="Yacute" unicode="&#xdd;" horiz-adv-x="536" 
d="M452 614q-32 -94 -56.5 -150.5t-42 -87t-28 -42.5t-12.5 -18q-9 -26 -7.5 -48.5t6 -44.5t9 -43.5t1 -46t-18.5 -52.5t-49 -62q-5 -4 -9 -8q-4 -3 -8.5 -5t-8.5 0q-4 1 -10 7q-3 3 -5 6q0 29 -3 70t-10 87.5t-18.5 96t-29 97t-41.5 90t-56 74.5q-3 5 -6 11q-2 5 -4.5 11
t-2.5 11q-1 7 1 15.5t5 15.5q3 8 7 16q33 -6 51.5 -10.5t29.5 -11.5t18.5 -17.5t18.5 -26.5t29.5 -39t51.5 -55q26 20 41.5 32.5t27.5 27t22.5 37t27.5 63.5q6 3 11 5q10 3 21 5q7 1 15.5 -0.5t15.5 -3.5zM249 690q13 13 32 26.5t38 24.5t35.5 18t24.5 7q3 0 9.5 1.5t13.5 2
t12 -1t5 -7.5q0 -36 -19 -51.5t-45.5 -20t-55.5 -2t-50 2.5zM249 690q-19 -17 -19 -29q0 -6 -0.5 -2t0 10.5t4 13.5t11.5 7h4z" />
    <glyph glyph-name="germandbls" unicode="&#xdf;" horiz-adv-x="508" 
d="M318 449q-11 6 -14 14t-5 15t-8 12t-23 5q-20 0 -35.5 -11.5t-15.5 -34.5q0 -12 2 -18t4 -10t4 -9t2 -15h16t14 -12l59 47v17zM463 177q-5 -79 -27.5 -124t-53.5 -67t-66 -25.5t-65 0.5t-49.5 11l-19.5 7q-5 2 0 2.5t15 1t23 3t26 8.5t23.5 17.5t14.5 30.5t11.5 42.5
t14.5 44.5t12 38t5 23q0 23 -13.5 41t-38.5 18q-17 0 -24 -3t-11 -7t-8 -8.5t-15 -7.5v-71l-73 -137q-6 6 -7.5 9t-3 3.5t-6 0.5h-16.5q-8 19 -13 36q-5 14 -9 26.5t-4 14.5v369q0 42 7 65t16 35.5t18 18.5t14 13h195q10 -9 25 -21q26 -21 73 -64v-97q0 -4 -4 -11
t-8.5 -17.5t-8.5 -26t-4 -36.5q0 -24 9 -42t20 -35.5t19 -36t7 -42.5z" />
    <glyph glyph-name="agrave" unicode="&#xe0;" horiz-adv-x="512" 
d="M337 202q0 24 -4.5 44.5t-18.5 33.5q-11 9 -28 13t-28 14q-7 -6 -15.5 -8.5t-17 -3.5t-15.5 -2.5t-11 -4.5q-15 -12 -20 -19.5t-5 -14t3 -14.5t3 -20q0 -23 4.5 -44.5t18.5 -32.5q12 -9 31.5 -10t32.5 -1q10 0 22.5 8t23 19t17.5 23t7 20zM443 220q0 -85 -9 -132t-47 -52
q-7 -1 -17.5 5t-22 13.5t-23.5 14t-21 6.5q-11 0 -23 -5t-25.5 -11t-27.5 -10.5t-30 -4.5q-37 0 -61 16.5t-37.5 42.5t-18.5 57t-5 60q0 175 140 175q14 0 28 -4.5t27.5 -10t25.5 -10.5t23 -6q19 -2 33.5 3.5t26 12t20.5 11t17 1.5q17 -7 23.5 -25t7 -42.5t-1.5 -52
t-2 -52.5zM331 447q-8 0 -33 2.5t-52.5 13t-49 31t-21.5 56.5q0 5 4.5 6.5t11 1t14 -1.5t13.5 -1q4 0 17.5 -12t30.5 -29t35 -35.5t30 -31.5z" />
    <glyph glyph-name="aacute" unicode="&#xe1;" horiz-adv-x="512" 
d="M337 202q0 24 -4.5 44.5t-18.5 33.5q-11 9 -28 13t-28 14q-7 -6 -15.5 -8.5t-17 -3.5t-15.5 -2.5t-11 -4.5q-15 -12 -20 -19.5t-5 -14t3 -14.5t3 -20q0 -23 4.5 -44.5t18.5 -32.5q12 -9 31.5 -10t32.5 -1q10 0 22.5 8t23 19t17.5 23t7 20zM443 220q0 -85 -9 -132t-47 -52
q-7 -1 -17.5 5t-22 13.5t-23.5 14t-21 6.5q-11 0 -23 -5t-25.5 -11t-27.5 -10.5t-30 -4.5q-37 0 -61 16.5t-37.5 42.5t-18.5 57t-5 60q0 175 140 175q14 0 28 -4.5t27.5 -10t25.5 -10.5t23 -6q19 -2 33.5 3.5t26 12t20.5 11t17 1.5q17 -7 23.5 -25t7 -42.5t-1.5 -52
t-2 -52.5zM201 526q13 13 32 26.5t38 24.5t35.5 18t24.5 7q3 0 9.5 1.5t13.5 2t12 -1t5 -7.5q0 -36 -19 -51.5t-45.5 -20t-55.5 -2t-50 2.5zM201 526q-19 -17 -19 -29q0 -6 -0.5 -2t0 10.5t4 13.5t11.5 7h4z" />
    <glyph glyph-name="acircumflex" unicode="&#xe2;" horiz-adv-x="512" 
d="M263 617q17 0 36.5 -12t36 -27t27.5 -29.5t11 -19.5q0 -8 -8.5 -18.5t-25.5 -10.5q-12 0 -20.5 4.5t-17 10t-17.5 10t-22 4.5q-10 0 -21 -4.5t-22 -10t-21.5 -10t-19.5 -4.5q-8 0 -18.5 8.5t-10.5 25.5q17 23 36 41q16 16 36.5 29t40.5 13zM337 202q0 24 -4.5 44.5
t-18.5 33.5q-11 9 -28 13t-28 14q-7 -6 -15.5 -8.5t-17 -3.5t-15.5 -2.5t-11 -4.5q-15 -12 -20 -19.5t-5 -14t3 -14.5t3 -20q0 -23 4.5 -44.5t18.5 -32.5q12 -9 31.5 -10t32.5 -1q10 0 22.5 8t23 19t17.5 23t7 20zM443 220q0 -85 -9 -132t-47 -52q-7 -1 -17.5 5t-22 13.5
t-23.5 14t-21 6.5q-11 0 -23 -5t-25.5 -11t-27.5 -10.5t-30 -4.5q-37 0 -61 16.5t-37.5 42.5t-18.5 57t-5 60q0 175 140 175q14 0 28 -4.5t27.5 -10t25.5 -10.5t23 -6q19 -2 33.5 3.5t26 12t20.5 11t17 1.5q17 -7 23.5 -25t7 -42.5t-1.5 -52t-2 -52.5z" />
    <glyph glyph-name="atilde" unicode="&#xe3;" horiz-adv-x="512" 
d="M337 202q0 24 -4.5 44.5t-18.5 33.5q-11 9 -28 13t-28 14q-7 -6 -15.5 -8.5t-17 -3.5t-15.5 -2.5t-11 -4.5q-15 -12 -20 -19.5t-5 -14t3 -14.5t3 -20q0 -23 4.5 -44.5t18.5 -32.5q12 -9 31.5 -10t32.5 -1q10 0 22.5 8t23 19t17.5 23t7 20zM443 220q0 -85 -9 -132t-47 -52
q-7 -1 -17.5 5t-22 13.5t-23.5 14t-21 6.5q-11 0 -23 -5t-25.5 -11t-27.5 -10.5t-30 -4.5q-37 0 -61 16.5t-37.5 42.5t-18.5 57t-5 60q0 175 140 175q14 0 28 -4.5t27.5 -10t25.5 -10.5t23 -6q19 -2 33.5 3.5t26 12t20.5 11t17 1.5q17 -7 23.5 -25t7 -42.5t-1.5 -52
t-2 -52.5zM179 626q9 0 33 -7t48.5 -15t44 -15t20.5 -7q26 -8 49 -7t40.5 1t28 -4.5t10.5 -23.5q-7 -14 -19 -25q-11 -10 -27.5 -17.5t-42.5 -7.5q-6 0 -27 5t-45.5 12t-47 13t-31.5 9q-39 11 -65.5 9.5t-43 -3t-24 2t-7.5 24.5q0 2 6.5 11t20 19t33.5 18t46 8z" />
    <glyph glyph-name="adieresis" unicode="&#xe4;" horiz-adv-x="512" 
d="M337 202q0 24 -4.5 44.5t-18.5 33.5q-11 9 -28 13t-28 14q-7 -6 -15.5 -8.5t-17 -3.5t-15.5 -2.5t-11 -4.5q-15 -12 -20 -19.5t-5 -14t3 -14.5t3 -20q0 -23 4.5 -44.5t18.5 -32.5q12 -9 31.5 -10t32.5 -1q10 0 22.5 8t23 19t17.5 23t7 20zM443 220q0 -85 -9 -132t-47 -52
q-7 -1 -17.5 5t-22 13.5t-23.5 14t-21 6.5q-11 0 -23 -5t-25.5 -11t-27.5 -10.5t-30 -4.5q-37 0 -61 16.5t-37.5 42.5t-18.5 57t-5 60q0 175 140 175q14 0 28 -4.5t27.5 -10t25.5 -10.5t23 -6q19 -2 33.5 3.5t26 12t20.5 11t17 1.5q17 -7 23.5 -25t7 -42.5t-1.5 -52
t-2 -52.5zM173 502q-26 6 -41.5 8t-26 6.5t-19 13.5t-20.5 29q17 13 33 7.5t28.5 -16t20 -18t7.5 1.5q0 11 0.5 19t2.5 7t5.5 -14t9.5 -44zM375 533q0 2 1 1.5t1 -6t-3 -17.5t-11 -32q-12 8 -17.5 10t-12 8.5t-17.5 23l-35 52.5q27 0 41.5 -2.5t20.5 -5t5.5 -5t-3.5 -2.5
q-4 0 0.5 -6.5t11 -13t12.5 -9.5t6 4z" />
    <glyph glyph-name="aring" unicode="&#xe5;" horiz-adv-x="512" 
d="M337 202q0 24 -4.5 44.5t-18.5 33.5q-11 9 -28 13t-28 14q-7 -6 -15.5 -8.5t-17 -3.5t-15.5 -2.5t-11 -4.5q-15 -12 -20 -19.5t-5 -14t3 -14.5t3 -20q0 -23 4.5 -44.5t18.5 -32.5q12 -9 31.5 -10t32.5 -1q10 0 22.5 8t23 19t17.5 23t7 20zM443 220q0 -85 -9 -132t-47 -52
q-7 -1 -17.5 5t-22 13.5t-23.5 14t-21 6.5q-11 0 -23 -5t-25.5 -11t-27.5 -10.5t-30 -4.5q-37 0 -61 16.5t-37.5 42.5t-18.5 57t-5 60q0 175 140 175q14 0 28 -4.5t27.5 -10t25.5 -10.5t23 -6q19 -2 33.5 3.5t26 12t20.5 11t17 1.5q17 -7 23.5 -25t7 -42.5t-1.5 -52
t-2 -52.5z" />
    <glyph glyph-name="ae" unicode="&#xe6;" horiz-adv-x="720" 
d="M555 311q0 19 -14 32.5t-33 13.5q-18 0 -31.5 -14t-13.5 -32q0 -19 14 -31.5t32 -12.5t32 12.5t14 31.5zM387 42q-9 0 -19.5 5t-21.5 11.5t-22 11.5t-21 5q-11 0 -23.5 -5t-25.5 -10.5t-27.5 -10.5t-29.5 -5q-36 0 -60 16t-37.5 41.5t-19 57t-5.5 61.5q0 36 6.5 68
t23 55.5t43 37.5t67.5 14q26 0 52 -3q8 -1 16.5 -2t16.5 -1q7 0 16.5 2t18 5t16 5t10.5 2q2 0 2 -10v-13q1 -1 2 -3q2 -4 4 -4q27 34 64.5 43t78.5 9t75 -9.5t58.5 -29.5t38 -51.5t13.5 -75.5q0 -62 -63 -62q-35 0 -69.5 10t-69.5 10q-17 0 -27 -6.5t-10 -25.5
q0 -12 3.5 -25.5t8.5 -24.5q15 -8 36 -8.5t38 -2.5q39 -3 75 -15q4 -8 7 -17t3 -19q0 -19 -14.5 -24t-29.5 -5q-19 0 -38 4.5t-35 4.5q-24 0 -48 -1.5t-48 -1.5q-5 -5 -13 -6.5t-16 -1.5zM325 224q2 9 1.5 18.5t0.5 19.5q-6 13 -14.5 19t-17.5 9t-18.5 6t-18.5 11
q-7 -6 -15.5 -8.5t-16.5 -3.5t-15.5 -2.5t-11.5 -4.5q-8 -5 -16.5 -13.5t-8.5 -19.5q0 -9 3 -17.5t3 -17.5q0 -24 2.5 -40.5t11 -27t23.5 -15.5t40 -5q23 0 39.5 12.5t29.5 30.5q-1 9 -5 14.5t-2 13.5z" />
    <glyph glyph-name="ccedilla" unicode="&#xe7;" horiz-adv-x="362" 
d="M193 82q5 0 14 -6t17.5 -16t15 -23t6.5 -26q0 -26 -14 -39.5t-36 -13.5q-8 0 -6.5 8.5t7 19t11 20.5t5.5 13q0 7 -7.5 18t-14 21t-8.5 17t10 7zM310 404q-38 -13 -70 -25t-55 -29t-36 -40.5t-13 -59.5q0 -8 3.5 -19.5t9.5 -22.5t15 -20.5t20 -13.5q9 -14 24.5 -16
t31.5 -2.5t28.5 -3.5t14.5 -18q9 -3 8.5 -9.5t-2.5 -14.5t-3 -16.5t5 -17.5l-78 -19l-57 19q-36 24 -61.5 44.5t-42 42t-24 47t-7.5 59.5q0 25 13 51.5t33 52.5t43.5 49t45.5 40l72 19l82 -19v-58z" />
    <glyph glyph-name="egrave" unicode="&#xe8;" horiz-adv-x="458" 
d="M275 282q13 14 11.5 32.5t-15.5 30.5q-14 13 -32 12t-31 -15t-12.5 -32t14.5 -31t33 -12t32 15zM429 259q0 -31 -13 -44.5t-33.5 -16.5t-45.5 1.5t-50 9.5t-47 7.5t-35 -3.5t-15 -24t12 -54q12 -6 26.5 -7.5t33 -2.5t41 -4t48.5 -12q12 -25 10.5 -38.5t-12 -20t-26 -7
t-31.5 2t-29 5t-19 2.5q-53 0 -89 -2.5t-58 9.5t-31 47t-9 111q0 64 13.5 104t38 63t59 31.5t76.5 8.5q84 0 134.5 -40t50.5 -126zM328 429q-8 0 -33 2.5t-52.5 13t-49 31t-21.5 56.5q0 5 4.5 6.5t11 1t14 -1.5t13.5 -1q4 0 17.5 -12t30.5 -29t35 -35.5t30 -31.5z" />
    <glyph glyph-name="eacute" unicode="&#xe9;" horiz-adv-x="458" 
d="M275 282q13 14 11.5 32.5t-15.5 30.5q-14 13 -32 12t-31 -15t-12.5 -32t14.5 -31t33 -12t32 15zM429 259q0 -31 -13 -44.5t-33.5 -16.5t-45.5 1.5t-50 9.5t-47 7.5t-35 -3.5t-15 -24t12 -54q12 -6 26.5 -7.5t33 -2.5t41 -4t48.5 -12q12 -25 10.5 -38.5t-12 -20t-26 -7
t-31.5 2t-29 5t-19 2.5q-53 0 -89 -2.5t-58 9.5t-31 47t-9 111q0 64 13.5 104t38 63t59 31.5t76.5 8.5q84 0 134.5 -40t50.5 -126zM167 523q13 13 32 26.5t38 24.5t35.5 18t24.5 7q3 0 9.5 1.5t13.5 2t12 -1t5 -7.5q0 -36 -19 -51.5t-45.5 -20t-55.5 -2t-50 2.5zM167 523
q-19 -17 -19 -29q0 -6 -0.5 -2t0 10.5t4 13.5t11.5 7h4z" />
    <glyph glyph-name="ecircumflex" unicode="&#xea;" horiz-adv-x="458" 
d="M234 605q17 0 37 -12t36.5 -27t27.5 -29.5t11 -18.5q0 -8 -9 -19t-25 -11q-12 0 -21 4.5t-17 10.5t-17.5 10.5t-22.5 4.5q-10 0 -21 -4.5t-22 -10.5t-21 -10.5t-19 -4.5t-19.5 9t-10.5 25q17 23 36 41q16 16 36.5 29t40.5 13zM275 282q13 14 11.5 32.5t-15.5 30.5
q-14 13 -32 12t-31 -15t-12.5 -32t14.5 -31t33 -12t32 15zM429 259q0 -31 -13 -44.5t-33.5 -16.5t-45.5 1.5t-50 9.5t-47 7.5t-35 -3.5t-15 -24t12 -54q12 -6 26.5 -7.5t33 -2.5t41 -4t48.5 -12q12 -25 10.5 -38.5t-12 -20t-26 -7t-31.5 2t-29 5t-19 2.5q-53 0 -89 -2.5
t-58 9.5t-31 47t-9 111q0 64 13.5 104t38 63t59 31.5t76.5 8.5q84 0 134.5 -40t50.5 -126z" />
    <glyph glyph-name="edieresis" unicode="&#xeb;" horiz-adv-x="458" 
d="M275 282q13 14 11.5 32.5t-15.5 30.5q-14 13 -32 12t-31 -15t-12.5 -32t14.5 -31t33 -12t32 15zM429 259q0 -31 -13 -44.5t-33.5 -16.5t-45.5 1.5t-50 9.5t-47 7.5t-35 -3.5t-15 -24t12 -54q12 -6 26.5 -7.5t33 -2.5t41 -4t48.5 -12q12 -25 10.5 -38.5t-12 -20t-26 -7
t-31.5 2t-29 5t-19 2.5q-53 0 -89 -2.5t-58 9.5t-31 47t-9 111q0 64 13.5 104t38 63t59 31.5t76.5 8.5q84 0 134.5 -40t50.5 -126zM148 488q-26 6 -41.5 8t-26 6.5t-19 13.5t-20.5 29q17 13 33 7.5t28.5 -16t20 -18t7.5 1.5q0 11 0.5 19t2.5 7t5.5 -14t9.5 -44zM350 519
q0 2 1 1.5t1 -6t-3 -17.5t-11 -32q-12 8 -17.5 10t-12 8.5t-17.5 23l-35 52.5q27 0 41.5 -2.5t20.5 -5t5.5 -5t-3.5 -2.5q-4 0 0.5 -6.5t11 -13t12.5 -9.5t6 4z" />
    <glyph glyph-name="igrave" unicode="&#xec;" horiz-adv-x="227" 
d="M161 38q-8 -5 -16 -9q-7 -3 -15.5 -6t-15.5 -2q-7 0 -13.5 3t-12.5 6l-14 8v279q6 8 13 14q6 5 13 9.5t15 5.5q8 0 16 -4.5t15 -9.5q8 -6 15 -15v-279zM189 417q-8 0 -33 2.5t-52 13t-48.5 30.5t-21.5 56q0 5 4.5 6.5t11 1t14 -1.5t13.5 -1q4 0 17.5 -12t30.5 -29
t34.5 -35t29.5 -31z" />
    <glyph glyph-name="iacute" unicode="&#xed;" horiz-adv-x="227" 
d="M161 38q-8 -5 -16 -9q-7 -3 -15.5 -6t-15.5 -2q-7 0 -13.5 3t-12.5 6l-14 8v279q6 8 13 14q6 5 13 9.5t15 5.5q8 0 16 -4.5t15 -9.5q8 -6 15 -15v-279zM66 482q13 13 32 26.5t38 24.5t35.5 18t24.5 7q3 0 9.5 1.5t13.5 2t12 -1t5 -7.5q0 -35 -19 -51t-45.5 -20.5
t-55.5 -2t-50 2.5zM66 482q-19 -17 -19 -29q0 -6 -0.5 -2t0 10.5t4 13.5t11.5 7h4z" />
    <glyph glyph-name="icircumflex" unicode="&#xee;" horiz-adv-x="227" 
d="M161 38q-8 -5 -16 -9q-7 -3 -15.5 -6t-15.5 -2q-7 0 -13.5 3t-12.5 6l-14 8v279q6 8 13 14q6 5 13 9.5t15 5.5q8 0 16 -4.5t15 -9.5q8 -6 15 -15v-279zM115 589q14 0 30.5 -10t30.5 -23t23 -24.5t9 -15.5q0 -8 -7 -16.5t-21 -8.5q-10 0 -17 4t-14 8.5t-15 8.5t-19 4
q-8 0 -17.5 -4t-18.5 -8.5t-18 -8.5t-16 -4t-15.5 7.5t-8.5 21.5q14 19 30 34q14 13 30.5 24t33.5 11z" />
    <glyph glyph-name="idieresis" unicode="&#xef;" horiz-adv-x="227" 
d="M161 38q-8 -5 -16 -9q-7 -3 -15.5 -6t-15.5 -2q-7 0 -13.5 3t-12.5 6l-14 8v279q6 8 13 14q6 5 13 9.5t15 5.5q8 0 16 -4.5t15 -9.5q8 -6 15 -15v-279zM56 470q-26 6 -41.5 8t-26 6.5t-19 13.5t-20.5 29q17 13 33 7t28.5 -16.5t20 -18t7.5 2.5t0.5 18t2.5 7t5.5 -13.5
t9.5 -43.5zM234 506q0 2 1 1.5t1 -6t-3 -17t-11 -31.5q-12 8 -17.5 10t-12 8.5t-17.5 22.5t-35 53q27 0 41.5 -2.5t20.5 -5t5.5 -5t-3.5 -2.5q-4 0 0.5 -6.5t11 -13t12.5 -10t6 3.5z" />
    <glyph glyph-name="eth" unicode="&#xf0;" 
d="M324 185q0 13 -2.5 26t-9 23t-17 16.5t-25.5 6.5t-28.5 -9t-23 -22.5t-15.5 -29.5t-6 -29q0 -8 9 -18.5t21 -20.5t24.5 -19t18.5 -15q16 14 26.5 21.5t16.5 15t8.5 19.5t2.5 35zM450 203q0 -38 -13 -74t-37 -63.5t-57 -44.5t-73 -17q-39 0 -74.5 13t-63.5 37t-44.5 57
t-16.5 74q0 43 13.5 71t33.5 46.5t43.5 31t43.5 24.5t33.5 25.5t13.5 35.5v11q-11 -2 -25.5 -5t-29.5 -6t-29 -5t-24 -2q-12 0 -18 8t-12 17q-2 4 -5 8t-3 9q0 7 10.5 12t24 8t26.5 4.5t18 2.5l28 4l28 4q-5 11 -12.5 19.5t-13.5 18.5v55h37q18 -19 34.5 -38.5t32.5 -39.5
q21 3 41 3q6 0 16.5 -1t20.5 -4t17 -9t7 -15q0 -7 -8 -12.5t-18.5 -9t-20.5 -6t-15 -3.5q16 -24 32 -54t29 -62.5t21.5 -65t8.5 -62.5z" />
    <glyph glyph-name="ntilde" unicode="&#xf1;" horiz-adv-x="496" 
d="M408 5l-60 22q-12 42 -17 82t-8.5 75t-7 64.5t-12 50.5t-24.5 32.5t-43 11.5q-29 0 -46.5 -29t-27.5 -72.5t-13.5 -95t-3.5 -96.5q-1 0 -6 -5.5t-12 -11t-16 -9t-17 1.5q-5 -3 -11.5 0.5t-12.5 9t-10 10t-5 4.5l-9 79l9 258q34 25 82 36t100 10.5t104.5 -12.5t96.5 -34
l11 -234l-11 -126zM179 638q9 0 33 -7t48.5 -15t44 -15t20.5 -7q26 -8 49 -7t40.5 1t28 -4.5t10.5 -23.5q-7 -14 -19 -25q-11 -10 -27.5 -17.5t-42.5 -7.5q-6 0 -27 5t-45.5 12t-47 13t-31.5 9q-39 11 -65.5 9.5t-43 -3t-24 2t-7.5 24.5q0 2 6.5 11t20 19t33.5 18t46 8z" />
    <glyph glyph-name="ograve" unicode="&#xf2;" horiz-adv-x="497" 
d="M357 203q0 38 -14.5 73t-42.5 51q-7 4 -16.5 4t-19 -1t-18.5 -1.5t-16 1.5q-11 -12 -22.5 -19t-18.5 -14q-8 -7 -12.5 -13t-6.5 -13.5t-2.5 -18.5t-0.5 -28q0 -18 3 -36.5t12 -34t25.5 -25.5t43.5 -10q15 0 33.5 9t34.5 21.5t27 27.5t11 27zM485 224q0 -63 -19.5 -104.5
t-51.5 -65.5t-74.5 -33.5t-88.5 -9.5q-51 0 -93.5 21t-73 52.5t-48 69t-17.5 70.5q0 4 4.5 21.5t15.5 41t29.5 50t46.5 48.5t67 36.5t91 14.5q55 0 95 -16.5t66 -45t38.5 -67.5t12.5 -83zM336 421q-8 0 -33 2.5t-52.5 13t-49 31t-21.5 56.5q0 5 4.5 6.5t11 1t14 -1.5
t13.5 -1q4 0 17.5 -12t30.5 -29t35 -35.5t30 -31.5z" />
    <glyph glyph-name="oacute" unicode="&#xf3;" horiz-adv-x="497" 
d="M357 203q0 38 -14.5 73t-42.5 51q-7 4 -16.5 4t-19 -1t-18.5 -1.5t-16 1.5q-11 -12 -22.5 -19t-18.5 -14q-8 -7 -12.5 -13t-6.5 -13.5t-2.5 -18.5t-0.5 -28q0 -18 3 -36.5t12 -34t25.5 -25.5t43.5 -10q15 0 33.5 9t34.5 21.5t27 27.5t11 27zM485 224q0 -63 -19.5 -104.5
t-51.5 -65.5t-74.5 -33.5t-88.5 -9.5q-51 0 -93.5 21t-73 52.5t-48 69t-17.5 70.5q0 4 4.5 21.5t15.5 41t29.5 50t46.5 48.5t67 36.5t91 14.5q55 0 95 -16.5t66 -45t38.5 -67.5t12.5 -83zM187 529q13 13 32 26.5t38 24.5t35.5 18t24.5 7q3 0 9.5 1.5t13.5 2t12 -1t5 -7.5
q0 -36 -19 -51.5t-45.5 -20t-55.5 -2t-50 2.5zM187 529q-19 -17 -19 -29q0 -6 -0.5 -2t0 10.5t4 13.5t11.5 7h4z" />
    <glyph glyph-name="ocircumflex" unicode="&#xf4;" horiz-adv-x="497" 
d="M248 595q16 0 35 -11.5t34.5 -25.5t26 -28t10.5 -18q0 -8 -8.5 -17.5t-23.5 -9.5q-11 0 -19.5 4t-16.5 9.5t-17 9.5t-21 4q-9 0 -19 -4t-20.5 -9.5t-20.5 -9.5t-19 -4q-8 0 -17.5 8t-9.5 24q16 21 34 39q15 14 33.5 26.5t38.5 12.5zM357 203q0 38 -14.5 73t-42.5 51
q-7 4 -16.5 4t-19 -1t-18.5 -1.5t-16 1.5q-11 -12 -22.5 -19t-18.5 -14q-8 -7 -12.5 -13t-6.5 -13.5t-2.5 -18.5t-0.5 -28q0 -18 3 -36.5t12 -34t25.5 -25.5t43.5 -10q15 0 33.5 9t34.5 21.5t27 27.5t11 27zM485 224q0 -63 -19.5 -104.5t-51.5 -65.5t-74.5 -33.5t-88.5 -9.5
q-51 0 -93.5 21t-73 52.5t-48 69t-17.5 70.5q0 4 4.5 21.5t15.5 41t29.5 50t46.5 48.5t67 36.5t91 14.5q55 0 95 -16.5t66 -45t38.5 -67.5t12.5 -83z" />
    <glyph glyph-name="otilde" unicode="&#xf5;" horiz-adv-x="497" 
d="M357 203q0 38 -14.5 73t-42.5 51q-7 4 -16.5 4t-19 -1t-18.5 -1.5t-16 1.5q-11 -12 -22.5 -19t-18.5 -14q-8 -7 -12.5 -13t-6.5 -13.5t-2.5 -18.5t-0.5 -28q0 -18 3 -36.5t12 -34t25.5 -25.5t43.5 -10q15 0 33.5 9t34.5 21.5t27 27.5t11 27zM485 224q0 -63 -19.5 -104.5
t-51.5 -65.5t-74.5 -33.5t-88.5 -9.5q-51 0 -93.5 21t-73 52.5t-48 69t-17.5 70.5q0 4 4.5 21.5t15.5 41t29.5 50t46.5 48.5t67 36.5t91 14.5q55 0 95 -16.5t66 -45t38.5 -67.5t12.5 -83zM179 632q9 0 33 -7t48.5 -15t44 -15t20.5 -7q26 -8 49 -7t40.5 1t28 -4.5t10.5 -23.5
q-7 -14 -19 -25q-11 -10 -27.5 -17.5t-42.5 -7.5q-6 0 -27 5t-45.5 12t-47 13t-31.5 9q-39 11 -65.5 9.5t-43 -3t-24 2t-7.5 24.5q0 2 6.5 11t20 19t33.5 18t46 8z" />
    <glyph glyph-name="odieresis" unicode="&#xf6;" horiz-adv-x="497" 
d="M357 203q0 38 -14.5 73t-42.5 51q-7 4 -16.5 4t-19 -1t-18.5 -1.5t-16 1.5q-11 -12 -22.5 -19t-18.5 -14q-8 -7 -12.5 -13t-6.5 -13.5t-2.5 -18.5t-0.5 -28q0 -18 3 -36.5t12 -34t25.5 -25.5t43.5 -10q15 0 33.5 9t34.5 21.5t27 27.5t11 27zM485 224q0 -63 -19.5 -104.5
t-51.5 -65.5t-74.5 -33.5t-88.5 -9.5q-51 0 -93.5 21t-73 52.5t-48 69t-17.5 70.5q0 4 4.5 21.5t15.5 41t29.5 50t46.5 48.5t67 36.5t91 14.5q55 0 95 -16.5t66 -45t38.5 -67.5t12.5 -83zM148 488q-26 6 -41.5 8t-26 6.5t-19 13.5t-20.5 29q17 13 33 7.5t28.5 -16t20 -18
t7.5 1.5q0 11 0.5 19t2.5 7t5.5 -14t9.5 -44zM350 519q0 2 1 1.5t1 -6t-3 -17.5t-11 -32q-12 8 -17.5 10t-12 8.5t-17.5 23l-35 52.5q27 0 41.5 -2.5t20.5 -5t5.5 -5t-3.5 -2.5q-4 0 0.5 -6.5t11 -13t12.5 -9.5t6 4z" />
    <glyph glyph-name="oslash" unicode="&#xf8;" horiz-adv-x="497" 
d="M335 293q-36 -38 -74 -73t-76 -71q11 -17 28.5 -24t37.5 -7q13 0 31 8t34.5 20.5t28.5 27.5t12 29q0 23 -4 46.5t-18 43.5zM409 397q31 32 59 65q-1 -3 1 -2.5t2 -3.5q0 -1 -8 -10.5t-17.5 -21t-18.5 -21.5t-11 -12q38 -31 53.5 -75t15.5 -92q0 -57 -16.5 -97.5t-47 -66
t-73.5 -37.5t-97 -12q-43 0 -78.5 17.5t-67.5 45.5q-5 -4 -18.5 -15t-29 -23t-29 -21t-18.5 -9q-8 0 -12 -2q23 20 44.5 39t43.5 39q-26 27 -46.5 65t-20.5 77q0 6 2.5 15t6 18.5t7 18.5t6.5 14q34 71 93.5 108.5t138.5 37.5q36 0 71.5 -8.5t64.5 -30.5zM167 224
q0 -15 2 -30t7 -29q37 35 74 71t73 72q-9 11 -19 17t-24 6q-10 0 -19 -1.5t-19 -1.5q-4 0 -12 2q-9 -11 -20 -17.5t-21 -15.5q-9 -8 -14 -16t-6.5 -17t-1.5 -18.5v-21.5z" />
    <glyph glyph-name="ugrave" unicode="&#xf9;" horiz-adv-x="494" 
d="M421 288q26 -75 20 -133q-3 -25 -12.5 -49t-30.5 -42.5t-54.5 -30t-83.5 -11.5q-48 0 -81 13t-54.5 34t-33.5 48t-17.5 56t-6.5 56.5t-1 50.5q0 27 0.5 45.5t0.5 35v32.5t-1 38q5 3 10 5q8 3 17 5q12 0 24 -5q6 -3 13 -5q30 -43 39 -71.5t8.5 -50t-4.5 -38.5t-0.5 -36.5
t19.5 -44t57 -60.5q41 33 54.5 60.5t13 52.5t-8.5 48.5t-9.5 48t9.5 52t49 59.5q56 -48 73 -79.5t15 -49.5t-13 -25.5t-11 -8.5zM319 424q-8 0 -33 2.5t-52.5 13t-49 31t-21.5 56.5q0 5 4.5 6.5t11 1t14 -1.5t13.5 -1q4 0 17.5 -12t30.5 -29t35 -35.5t30 -31.5z" />
    <glyph glyph-name="uacute" unicode="&#xfa;" horiz-adv-x="494" 
d="M421 288q26 -75 20 -133q-3 -25 -12.5 -49t-30.5 -42.5t-54.5 -30t-83.5 -11.5q-48 0 -81 13t-54.5 34t-33.5 48t-17.5 56t-6.5 56.5t-1 50.5q0 27 0.5 45.5t0.5 35v32.5t-1 38q5 3 10 5q8 3 17 5q12 0 24 -5q6 -3 13 -5q30 -43 39 -71.5t8.5 -50t-4.5 -38.5t-0.5 -36.5
t19.5 -44t57 -60.5q41 33 54.5 60.5t13 52.5t-8.5 48.5t-9.5 48t9.5 52t49 59.5q56 -48 73 -79.5t15 -49.5t-13 -25.5t-11 -8.5zM206 523q13 13 32 26.5t38 24.5t35.5 18t24.5 7q3 0 9.5 1.5t13.5 2t12 -1t5 -7.5q0 -36 -19 -51.5t-45.5 -20t-55.5 -2t-50 2.5zM206 523
q-19 -17 -19 -29q0 -6 -0.5 -2t0 10.5t4 13.5t11.5 7h4z" />
    <glyph glyph-name="ucircumflex" unicode="&#xfb;" horiz-adv-x="494" 
d="M255 618q18 0 39.5 -13t39.5 -29.5t30 -31.5t12 -20q0 -9 -10 -20.5t-27 -11.5q-13 0 -22.5 5t-18.5 11t-19 11t-24 5q-11 0 -22.5 -5t-23.5 -11t-23.5 -11t-21.5 -5q-9 0 -20 10t-11 27q19 25 39 44q17 17 39 31t44 14zM421 288q26 -75 20 -133q-3 -25 -12.5 -49
t-30.5 -42.5t-54.5 -30t-83.5 -11.5q-48 0 -81 13t-54.5 34t-33.5 48t-17.5 56t-6.5 56.5t-1 50.5q0 27 0.5 45.5t0.5 35v32.5t-1 38q5 3 10 5q8 3 17 5q12 0 24 -5q6 -3 13 -5q30 -43 39 -71.5t8.5 -50t-4.5 -38.5t-0.5 -36.5t19.5 -44t57 -60.5q41 33 54.5 60.5t13 52.5
t-8.5 48.5t-9.5 48t9.5 52t49 59.5q56 -48 73 -79.5t15 -49.5t-13 -25.5t-11 -8.5z" />
    <glyph glyph-name="udieresis" unicode="&#xfc;" horiz-adv-x="494" 
d="M421 288q26 -75 20 -133q-3 -25 -12.5 -49t-30.5 -42.5t-54.5 -30t-83.5 -11.5q-48 0 -81 13t-54.5 34t-33.5 48t-17.5 56t-6.5 56.5t-1 50.5q0 27 0.5 45.5t0.5 35v32.5t-1 38q5 3 10 5q8 3 17 5q12 0 24 -5q6 -3 13 -5q30 -43 39 -71.5t8.5 -50t-4.5 -38.5t-0.5 -36.5
t19.5 -44t57 -60.5q41 33 54.5 60.5t13 52.5t-8.5 48.5t-9.5 48t9.5 52t49 59.5q56 -48 73 -79.5t15 -49.5t-13 -25.5t-11 -8.5zM168 488q-26 6 -41.5 8t-26 6.5t-19 13.5t-20.5 29q17 13 33 7.5t28.5 -16t20 -18t7.5 1.5q0 11 0.5 19t2.5 7t5.5 -14t9.5 -44zM370 519
q0 2 1 1.5t1 -6t-3 -17.5t-11 -32q-12 8 -17.5 10t-12 8.5t-17.5 23l-35 52.5q27 0 41.5 -2.5t20.5 -5t5.5 -5t-3.5 -2.5q-4 0 0.5 -6.5t11 -13t12.5 -9.5t6 4z" />
    <glyph glyph-name="yacute" unicode="&#xfd;" horiz-adv-x="491" 
d="M375 347q-21 -26 -31.5 -45.5t-17.5 -40t-13.5 -44.5t-17.5 -58.5t-31 -81.5t-54 -114h-73q10 63 15.5 99.5t8 55t3 23t-0.5 3.5t-2 -4t-1 1q3 65 1 101t-6.5 53t-11 20t-13.5 2t-14 -1t-11.5 11.5t-6 39.5t1.5 82q34 -15 50 -26t25.5 -23t19.5 -28.5t33 -42.5
q27 20 41 34t21 24.5t11 18.5t11.5 15.5t21.5 16t41 20.5v-111zM229 531q13 13 32 26.5t38 24.5t35.5 18t24.5 7q3 0 9.5 1.5t13.5 2t12 -1t5 -7.5q0 -36 -19 -51.5t-45.5 -20t-55.5 -2t-50 2.5zM229 531q-19 -17 -19 -29q0 -6 -0.5 -2t0 10.5t4 13.5t11.5 7h4z" />
    <glyph glyph-name="ydieresis" unicode="&#xff;" horiz-adv-x="491" 
d="M375 347q-21 -26 -31.5 -45.5t-17.5 -40t-13.5 -44.5t-17.5 -58.5t-31 -81.5t-54 -114h-73q10 63 15.5 99.5t8 55t3 23t-0.5 3.5t-2 -4t-1 1q3 65 1 101t-6.5 53t-11 20t-13.5 2t-14 -1t-11.5 11.5t-6 39.5t1.5 82q34 -15 50 -26t25.5 -23t19.5 -28.5t33 -42.5
q27 20 41 34t21 24.5t11 18.5t11.5 15.5t21.5 16t41 20.5v-111zM173 548q-26 6 -41.5 8t-26 6.5t-19 13.5t-20.5 29q17 13 33 7.5t28.5 -16t20 -18t7.5 1.5q0 11 0.5 19t2.5 7t5.5 -14t9.5 -44zM375 579q0 2 1 1.5t1 -6t-3 -17.5t-11 -32q-12 8 -17.5 10t-12 8.5t-17.5 23
l-35 52.5q27 0 41.5 -2.5t20.5 -5t5.5 -5t-3.5 -2.5q-4 0 0.5 -6.5t11 -13t12.5 -9.5t6 4z" />
    <glyph glyph-name="dotlessi" unicode="&#x131;" horiz-adv-x="227" 
d="M161 38q-8 -5 -16 -9q-7 -3 -15.5 -6t-15.5 -2q-7 0 -13.5 3t-12.5 6l-14 8v279q6 8 13 14q6 5 13 9.5t15 5.5q8 0 16 -4.5t15 -9.5q8 -6 15 -15v-279z" />
    <glyph glyph-name="Lslash" unicode="&#x141;" horiz-adv-x="371" 
d="M358 56q0 -5 -4 -11q-10 -14 -22.5 -22t-29.5 -8h-120q-12 0 -23.5 -0.5t-23.5 -0.5q-22 0 -34 7.5t-27 21.5q-7 6 -10.5 21t-5.5 32.5t-2.5 33.5t-0.5 24v116q-5 -1 -10.5 -1h-10.5h-11q-8 0 -15 1t-7 12q0 18 1.5 28t7.5 15t16.5 6.5t28.5 1.5v62v120q0 10 3 27t9.5 33
t15.5 28.5t21 15.5q3 1 9 1q21 0 32 -14t16.5 -34t6 -41.5t0.5 -36.5q0 -41 -2 -80.5t-3 -80.5q8 0 19.5 -1t22 -4.5t18 -9.5t7.5 -17t-6.5 -17t-15.5 -9.5t-19 -4.5t-18 -1q2 -5 4.5 -9.5t2.5 -9.5q0 -17 -1.5 -33t-1.5 -33q0 -9 1.5 -12.5t3.5 -4.5t4.5 -2t5.5 -6
q4 -7 6 -13t7 -13q10 -13 25 -20.5t31.5 -11.5t33.5 -5t32 -1h3q1 -5 6 -9.5t10.5 -9t9.5 -9.5t4 -11z" />
    <glyph glyph-name="lslash" unicode="&#x142;" horiz-adv-x="227" 
d="M230 301q0 -17 -14.5 -23t-28.5 -8l-2 -11q4 -7 5 -19t1 -20q0 -26 -6 -54t-15 -56.5t-20.5 -55.5t-21.5 -49q-30 45 -41.5 98.5t-11.5 107.5q0 14 1 29l2 30q-13 0 -21.5 -3.5t-21.5 -3.5q-8 0 -21 4t-13 15v19q0 16 8 23t20 9t26 0.5t26 -1.5q-9 22 -12.5 46.5
t-3.5 48.5q0 32 5 66t16 64q3 7 8.5 8t12.5 1.5t12.5 2.5t8.5 10q2 -5 7 -5q4 0 7 1t6 1q5 0 7 -5q12 -26 20 -56.5t12.5 -62t5.5 -63t0 -59.5q12 -2 24.5 -8.5t12.5 -20.5z" />
    <glyph glyph-name="OE" unicode="&#x152;" horiz-adv-x="786" 
d="M329 4q-65 0 -122 21t-99.5 59.5t-67.5 93t-25 121.5q0 73 23 128.5t64 93t99 56.5t128 19h23q20 0 41 -1t41 -7q2 2 3.5 0.5t3.5 0.5q10 0 14 2.5t7 6t8.5 6t18.5 2.5q30 0 60 -1.5t59 -1.5q6 0 23.5 -0.5t36 -2.5t33 -7.5t14.5 -15.5q0 -7 -5.5 -13t-10.5 -10
q-14 -12 -36 -19t-43.5 -12.5t-38.5 -11.5t-22 -15q-5 -11 -9 -23.5t-4 -25.5q0 -24 14.5 -38.5t35.5 -22.5q5 -2 10 -3t10 -3q7 -2 11 -7.5t9 -8.5q19 4 41 4q7 0 14.5 -0.5t12.5 -5.5q6 -5 16.5 -14.5t10.5 -17.5t-8 -16l-13 -13q-12 -12 -27.5 -13.5t-33.5 -3t-37.5 -7
t-38.5 -23.5q-14 -14 -22.5 -31t-8.5 -37t9.5 -38.5t24.5 -30.5q9 -7 13.5 -8t14.5 -1q7 0 10 -1t8 -4q7 -3 19.5 -8t27 -9t27 -7t19.5 -3v-49q-7 0 -11 -2.5t-8 -6t-10 -6t-16 -2.5q-27 0 -54 1.5t-55 1.5h-93q-5 3 -7.5 6t-4.5 4.5t-5 2.5t-10 1q-23 -16 -53.5 -19.5
t-58.5 -3.5zM427 387q0 51 -22.5 74t-75.5 23q-63 0 -112.5 -28.5t-75.5 -87.5q-7 -16 -11.5 -34t-4.5 -35q0 -20 5 -39t13 -36q26 -57 74.5 -92.5t111.5 -35.5q24 0 40 8.5t26 23t14.5 33t4.5 39.5q0 22 4 43t4 43q0 26 2.5 50.5t2.5 50.5z" />
    <glyph glyph-name="oe" unicode="&#x153;" horiz-adv-x="805" 
d="M251 11q-66 0 -121 35.5t-86 92.5q-11 20 -18 41t-7 44q0 6 2.5 14.5t5.5 17.5t6.5 17t5.5 13q34 73 93.5 111.5t140.5 38.5q47 0 90 -14.5t74 -51.5q27 35 67.5 45t82.5 10q41 0 75 -9.5t58.5 -29.5t38 -51.5t13.5 -75.5q0 -62 -63 -62q-35 0 -69.5 10t-69.5 10
q-17 0 -27.5 -6.5t-10.5 -25.5q0 -12 4 -25.5t9 -24.5q15 -8 37 -8.5t39 -2.5q19 -2 37 -5.5t36 -9.5q4 -8 7 -17t3 -19q0 -19 -14.5 -24t-29.5 -5q-20 0 -38.5 4.5t-34.5 4.5q-24 0 -47.5 -1.5t-47.5 -1.5q-16 0 -33 3t-29 14q-35 -34 -83.5 -45t-95.5 -11zM618 282
q-13 -14 -32 -15t-33 12t-14.5 31t12.5 32t30.5 15t32.5 -12q14 -12 15.5 -30.5t-11.5 -32.5zM357 203q0 -12 -11 -27t-27 -27.5t-34.5 -21.5t-33.5 -9q-27 0 -43.5 10t-25.5 25.5t-12 34t-3 36.5q0 17 0.5 28t2.5 18.5t6.5 13.5t12.5 13q7 7 18.5 14t22.5 19q7 -2 16 -1.5
t18.5 1.5t19 1t16.5 -4q28 -16 42.5 -51t14.5 -73z" />
    <glyph glyph-name="Scaron" unicode="&#x160;" horiz-adv-x="462" 
d="M400 175q0 -43 -17 -74.5t-43.5 -52t-59 -30.5t-64.5 -10q-38 0 -61 8.5t-36 20.5t-20 24.5t-13 20.5q41 12 78 14.5t64.5 8t44 20t16.5 50.5q0 29 -16.5 48.5t-41 35t-53.5 31.5t-53.5 39t-41 57t-16.5 85q0 15 12.5 40.5t36.5 49.5t58.5 41.5t77.5 17.5q27 0 41 -6.5
t21 -17.5t10.5 -24.5t10.5 -27.5q-37 -10 -66 -14.5t-49 -11.5t-30.5 -21.5t-10.5 -44.5q0 -24 16.5 -40t41 -30t53 -29.5t53 -38.5t41 -56t16.5 -83zM86 787q12 0 26.5 -9t31.5 -19.5t36 -19t39 -8.5q13 0 30.5 8.5t35.5 19t35.5 19.5t31.5 9q6 0 13.5 -5.5t13.5 -13
t10.5 -16t4.5 -14.5q0 -1 -6 -16.5t-25 -33.5t-55 -33t-96 -15q-29 0 -60 8.5t-56.5 22.5t-42 31.5t-16.5 35.5q0 10 5.5 19t13.5 15.5t16 10.5t14 4z" />
    <glyph glyph-name="scaron" unicode="&#x161;" horiz-adv-x="385" 
d="M104 625q9 0 19 -6t22 -13.5t25 -13.5t27 -6q9 0 21 6t25 13.5t25.5 13.5t21.5 6q4 0 9 -4t9.5 -9t7.5 -11t3 -10q0 -1 -4 -12t-17.5 -23.5t-38.5 -23t-67 -10.5q-20 0 -41.5 6t-39.5 15.5t-29.5 22t-11.5 25.5q0 14 13 24t21 10zM359 130q0 -15 -6 -27t-16 -22.5
t-22.5 -21t-25.5 -23.5q-34 -30 -66 -48q-14 -8 -28 -14t-27.5 -8t-25 1t-19.5 13q-6 7 -10 16.5t-7 18.5q-4 11 -5 21q30 35 52.5 51t38 25t23.5 17t8 27q0 18 -12 31t-30 25t-39.5 24t-39.5 28t-30 37.5t-12 51.5q0 12 5 18.5t10.5 13.5t8 18.5t-1.5 34.5q12 13 27 23
q13 8 29 15t35 7q14 -1 30 -4t30 -8q16 -5 32 -11q-9 -16 -18.5 -24.5t-18 -13.5t-15 -7.5t-8.5 -6.5q-3 -3 -2 -8.5t1.5 -12.5t-1.5 -15.5t-9 -17.5q39 -48 69.5 -74.5t52 -47t32.5 -42.5t11 -60z" />
    <glyph glyph-name="Ydieresis" unicode="&#x178;" horiz-adv-x="536" 
d="M452 614q-32 -94 -56.5 -150.5t-42 -87t-28 -42.5t-12.5 -18q-9 -26 -7.5 -48.5t6 -44.5t9 -43.5t1 -46t-18.5 -52.5t-49 -62q-5 -4 -9 -8q-4 -3 -8.5 -5t-8.5 0q-4 1 -10 7q-3 3 -5 6q0 29 -3 70t-10 87.5t-18.5 96t-29 97t-41.5 90t-56 74.5q-3 5 -6 11q-2 5 -4.5 11
t-2.5 11q-1 7 1 15.5t5 15.5q3 8 7 16q33 -6 51.5 -10.5t29.5 -11.5t18.5 -17.5t18.5 -26.5t29.5 -39t51.5 -55q26 20 41.5 32.5t27.5 27t22.5 37t27.5 63.5q6 3 11 5q10 3 21 5q7 1 15.5 -0.5t15.5 -3.5zM173 643q-26 6 -41.5 8t-26 6.5t-19 13.5t-20.5 29q17 13 33 7.5
t28.5 -16t20 -18t7.5 1.5q0 11 0.5 19t2.5 7t5.5 -14t9.5 -44zM375 674q0 2 1 1.5t1 -6t-3 -17.5t-11 -32q-12 8 -17.5 10t-12 8.5t-17.5 23l-35 52.5q27 0 41.5 -2.5t20.5 -5t5.5 -5t-3.5 -2.5q-4 0 0.5 -6.5t11 -13t12.5 -9.5t6 4z" />
    <glyph glyph-name="Zcaron" unicode="&#x17d;" horiz-adv-x="530" 
d="M429 41q-26 -18 -67 -26t-89.5 -9t-99.5 4t-96 14q15 55 47.5 113.5t64.5 113.5t56.5 101.5t24.5 77.5q0 36 -16 52t-41.5 25t-57 17t-61.5 28q32 13 65 24q28 8 59.5 14.5t58.5 4.5q21 -2 44.5 -8.5t43.5 -14.5q23 -9 46 -20v-87q-9 -10 -25.5 -34.5t-36 -57
t-39.5 -69.5t-36.5 -70.5t-27 -61.5t-10.5 -42q0 -16 17.5 -23t44 -11t57.5 -6.5t59 -9.5q5 -1 6.5 -7t1.5 -12.5t1 -12.5t6 -7zM137 787q12 0 26.5 -9t31.5 -19.5t36 -19t39 -8.5q13 0 30.5 8.5t35.5 19t35.5 19.5t31.5 9q6 0 13.5 -5.5t13.5 -13t10.5 -16t4.5 -14.5
q0 -1 -6 -16.5t-25 -33.5t-55 -33t-96 -15q-29 0 -60 8.5t-56.5 22.5t-42 31.5t-16.5 35.5q0 10 5.5 19t13.5 15.5t16 10.5t14 4z" />
    <glyph glyph-name="zcaron" unicode="&#x17e;" horiz-adv-x="419" 
d="M162 625q8 0 18.5 -6t22 -13.5t25 -13.5t27.5 -6q9 0 21 6t24.5 13.5t25 13.5t21.5 6q4 0 9.5 -4t10 -9t7.5 -11t3 -10q0 -1 -4 -12t-17.5 -23.5t-38.5 -23t-67 -10.5q-20 0 -41.5 6t-39.5 15.5t-29.5 22t-11.5 25.5q0 14 13 24t21 10zM421 16q-42 -18 -81.5 -26.5
t-79.5 -9.5t-81.5 5.5t-87.5 18.5v70q40 58 63.5 91.5t35.5 54t15.5 34.5t3.5 33q0 13 -10 23.5t-26.5 24.5t-37.5 36t-44 57q30 18 62 31q27 11 58 19.5t59 5.5q20 -2 42.5 -11t41.5 -19q22 -11 43 -26v-94q-19 -14 -39.5 -37t-38 -47t-29 -46t-11.5 -35q0 -22 9.5 -34.5
t27.5 -26.5t44.5 -34.5t60.5 -57.5z" />
    <glyph glyph-name="florin" unicode="&#x192;" horiz-adv-x="396" 
d="M33 423h106l25 173q8 58 37 89q27 29 70.5 38t103.5 1v-76q-61 5 -87.5 -8t-32.5 -56l-23 -161h118v-70h-128l-54 -385q-9 -63 -40 -94q-23 -23 -58.5 -29t-84.5 0v74q37 -3 60 6.5t29 49.5l55 378h-96v70z" />
    <glyph glyph-name="circumflex" unicode="&#x2c6;" horiz-adv-x="580" 
d="M292 794q25 0 53 -17t52 -39t40 -42.5t16 -27.5q0 -12 -13 -27t-36 -15q-17 0 -29.5 6.5t-24.5 14.5t-25.5 14.5t-32.5 6.5q-14 0 -29.5 -6.5t-31.5 -14.5t-31 -14.5t-28 -6.5q-12 0 -27 13t-15 36q25 33 52 59q23 23 52 41.5t58 18.5z" />
    <glyph glyph-name="caron" unicode="&#x2c7;" horiz-adv-x="580" 
d="M179 794q13 0 27 -6.5t29 -14.5t31 -14.5t33 -6.5q8 0 24 6.5t34 14.5t34.5 14.5t26.5 6.5q12 0 27 -13t15 -36q0 -19 -24 -40t-54 -38.5t-57 -29t-33 -11.5q-20 0 -48.5 13.5t-55.5 33t-46 41.5t-19 38t17 29t39 13z" />
    <glyph glyph-name="breve" unicode="&#x2d8;" horiz-adv-x="520" 
d="M137 787q12 0 26.5 -9t31.5 -19.5t36 -19t39 -8.5q13 0 30.5 8.5t35.5 19t35.5 19.5t31.5 9q6 0 13.5 -5.5t13.5 -13t10.5 -16t4.5 -14.5q0 -1 -6 -16.5t-25 -33.5t-55 -33t-96 -15q-29 0 -60 8.5t-56.5 22.5t-42 31.5t-16.5 35.5q0 10 5.5 19t13.5 15.5t16 10.5t14 4z
" />
    <glyph glyph-name="dotaccent" unicode="&#x2d9;" horiz-adv-x="260" 
d="M138 711q16 -11 28 -22q11 -10 19.5 -21t8.5 -21q0 -7 -8.5 -16.5t-20 -18.5t-21.5 -15t-13 -6q-1 0 -10 6t-19.5 15.5t-19 20.5t-8.5 21q0 3 7 12.5t17 19.5t21 17.5t19 7.5z" />
    <glyph glyph-name="ring" unicode="&#x2da;" horiz-adv-x="380" 
d="M194 835q25 0 43.5 -12t30.5 -29t18 -35t6 -29q0 -26 -10.5 -48t-25.5 -38t-32 -25t-30 -9t-30 9t-32.5 25.5t-26 38t-10.5 47.5q0 16 6.5 34t19.5 34t31.5 26.5t41.5 10.5z" />
    <glyph glyph-name="ogonek" unicode="&#x2db;" horiz-adv-x="340" 
d="M158 -26q15 0 32.5 -20t31.5 -43q17 -28 34 -63q0 -4 -4.5 -12t-11.5 -16.5t-15.5 -14.5t-17.5 -6q-14 0 -31 9t-32 24.5t-25 36t-10 42.5q0 26 16 44.5t33 18.5z" />
    <glyph glyph-name="tilde" unicode="&#x2dc;" horiz-adv-x="520" 
d="M179 772q9 0 33 -7t48.5 -15t44 -15t20.5 -7q26 -8 49 -7t40.5 1t28 -4.5t10.5 -23.5q-7 -14 -19 -25q-11 -10 -27.5 -17.5t-42.5 -7.5q-6 0 -27 5t-45.5 12t-47 13t-31.5 9q-39 11 -65.5 9.5t-43 -3t-24 2t-7.5 24.5q0 2 6.5 11t20 19t33.5 18t46 8z" />
    <glyph glyph-name="hungarumlaut" unicode="&#x2dd;" horiz-adv-x="480" 
d="M356 821q6 0 11.5 -4.5t9 -11t5.5 -13.5t2 -13q0 -10 -9 -22t-21 -22.5t-25.5 -18t-22.5 -7.5q-7 0 -13 5.5t-11 13.5t-8 16.5t-3 13.5q0 1 8.5 11t21.5 21.5t28 21t27 9.5zM194 821q6 0 11 -4.5t8.5 -11t6 -13.5t2.5 -13q-2 -12 -11 -24q-8 -11 -23 -23t-43 -23
q-4 8 -4 13.5t1 8.5q1 4 3 6q0 31 7 48.5t16 25t16.5 9t9.5 1.5z" />
    <glyph glyph-name="endash" unicode="&#x2013;" horiz-adv-x="369" 
d="M486 320q0 -21 -35 -30.5t-87 -12t-111.5 -1t-108.5 1.5q-76 0 -124.5 -0.5t-77.5 -0.5t-42 1.5t-17 6t-2.5 13t1.5 22.5q0 21 16 30t52 11.5t93.5 1t140.5 -1.5q16 0 44.5 1t62 1t68.5 -1.5t63 -6t46 -13t18 -22.5z" />
    <glyph glyph-name="emdash" unicode="&#x2014;" horiz-adv-x="737" 
d="M972 320q0 -14 -32.5 -23t-87 -13.5t-125 -6t-146.5 -1.5t-152 1t-141 1q-151 0 -248.5 -0.5t-156 -0.5t-84 1.5t-33.5 6t-5 13t3 22.5q0 21 32 30t104 11.5t187 1t281 -1.5q32 0 89 1t124.5 1t136.5 -1.5t125.5 -6t92.5 -13t36 -22.5z" />
    <glyph glyph-name="quoteleft" unicode="&#x2018;" horiz-adv-x="200" 
d="M120 519v-14.5t-1 -12.5h34q-15 12 -33 27zM120 519q-15 12 -29.5 26.5t-26 29t-18.5 29t-7 28.5q0 7 5.5 17.5t14.5 21.5t20.5 20t23.5 12q5 -3 9.5 -6.5t4.5 -7.5q0 -60 1.5 -101t1.5 -69z" />
    <glyph glyph-name="quoteright" unicode="&#x2019;" horiz-adv-x="200" 
d="M89 603v-163q0 -1 -2.5 -3t-4.5 -4.5t-3.5 -4t1.5 -1.5q19 0 35 8t27 19.5t17.5 23t6.5 18.5q0 13 -7.5 28.5t-18.5 30t-25 27.5t-26 21zM89 603q-17 11 -27 11q-11 0 -8.5 7t10.5 13.5t16.5 9.5t8.5 -4v-37z" />
    <glyph glyph-name="quotesinglbase" unicode="&#x201a;" horiz-adv-x="200" 
d="M129 180q0 -28 -6.5 -54.5t-14 -50t-13.5 -43t-6 -32.5q0 -1 -2.5 -3t-4.5 -4.5t-3.5 -4t1.5 -1.5q19 0 35 8t27 19.5t17.5 23t6.5 18.5q0 13 -1 31t-5 36t-11.5 33.5t-19.5 23.5zM129 180q-17 11 -27 11q-11 0 -8.5 7t10.5 13.5t16.5 9.5t8.5 -4v-37z" />
    <glyph glyph-name="quotedblleft" unicode="&#x201c;" horiz-adv-x="380" 
d="M96 521q-7 0 -19 14t-24 33t-21 38.5t-9 30.5q0 8 8.5 16t18.5 14t19 10l9 4q3 0 3 -3v-8v-171q0 -6 3.5 -3t7 8.5t5.5 11t-1 5.5zM340 521q-7 0 -19 14t-24 33t-21 38.5t-9 30.5q0 8 8.5 16t18.5 14t19 10l9 4q3 0 3 -3v-8v-171q0 -6 3.5 -3t7 8.5t5.5 11t-1 5.5z" />
    <glyph glyph-name="quotedblright" unicode="&#x201d;" horiz-adv-x="380" 
d="M354 497q0 -8 -4.5 -18.5t-11 -21t-15 -18.5t-16.5 -12q-4 4 -4 10v207q0 8 -4.5 4.5t-9 -10.5t-6 -14t4.5 -7q2 0 12.5 -13.5t22.5 -33t21.5 -40t9.5 -33.5zM124 497q0 -8 -4.5 -18.5t-11 -21t-15 -18.5t-16.5 -12q-4 4 -4 10v207q0 8 -4.5 4.5t-9 -10.5t-6 -14t4.5 -7
q2 0 12.5 -13.5t22.5 -33t21.5 -40t9.5 -33.5z" />
    <glyph glyph-name="quotedblbase" unicode="&#x201e;" horiz-adv-x="380" 
d="M354 32q0 -8 -4.5 -18.5t-11 -21t-15 -18.5t-16.5 -12q-4 4 -4 10v207q0 8 -4.5 4.5t-9 -10.5t-6 -14t4.5 -7q2 0 12.5 -13.5t22.5 -33t21.5 -40t9.5 -33.5zM124 32q0 -8 -4.5 -18.5t-11 -21t-15 -18.5t-16.5 -12q-4 4 -4 10v207q0 8 -4.5 4.5t-9 -10.5t-6 -14t4.5 -7
q2 0 12.5 -13.5t22.5 -33t21.5 -40t9.5 -33.5z" />
    <glyph glyph-name="bullet" unicode="&#x2022;" horiz-adv-x="534" 
d="M425 298q0 -12 -10.5 -38.5t-31 -53.5t-52 -48t-73.5 -21q-41 0 -72 18.5t-52 45t-32 56.5t-11 54q0 16 7.5 42t26.5 51t51.5 42.5t81.5 17.5q40 0 71 -15.5t52.5 -39.5t32.5 -53.5t11 -57.5z" />
    <glyph glyph-name="ellipsis" unicode="&#x2026;" horiz-adv-x="580" 
d="M519 109q16 -9 22.5 -24.5t5.5 -33.5t-9 -35.5t-21 -30.5q-23 -23 -54.5 -27.5t-56.5 16.5q-17 14 -18.5 35t7.5 41.5t25.5 37.5t37.5 23q17 5 31 5.5t30 -7.5zM346 108q16 -9 22.5 -24.5t5.5 -33.5t-9 -36t-21 -30q-23 -23 -54.5 -27.5t-56.5 16.5q-17 14 -18.5 35
t7.5 41.5t25.5 37.5t37.5 23q17 5 31 5.5t30 -7.5zM172 106q16 -9 22.5 -24.5t5.5 -33.5t-9 -35.5t-21 -30.5q-23 -23 -54.5 -27.5t-56.5 16.5q-17 14 -18.5 35t7.5 41.5t25.5 37.5t37.5 23q17 5 31 5.5t30 -7.5z" />
    <glyph glyph-name="guilsinglleft" unicode="&#x2039;" horiz-adv-x="200" 
d="M166 400q3 0 1.5 0t-4.5 -0.5t-6 -1.5t-3 -2q0 -13 -11 -25.5t-23.5 -27.5t-23.5 -35t-11 -47q0 -24 11 -40.5t23.5 -31t23.5 -29.5t11 -35q0 -2 -0.5 2.5t-4.5 4.5q-8 0 -26 10t-36.5 28t-33 43.5t-14.5 57.5q0 17 12 39t30.5 42t41 34t43.5 14z" />
    <glyph glyph-name="guilsinglright" unicode="&#x203a;" horiz-adv-x="200" 
d="M171 264q0 -18 -12 -41t-30.5 -43t-41 -34t-42.5 -14q-2 0 -0.5 0t4.5 0.5t5.5 1t2.5 1.5q0 18 11 30.5t24 26t24 30t11 42.5q0 19 -11 35.5t-24 33t-24 33t-11 36.5q0 3 5 3q7 0 24.5 -11.5t36.5 -30.5t33.5 -45t14.5 -54z" />
    <glyph glyph-name="fraction" unicode="&#x2044;" horiz-adv-x="434" 
d="M329 434q0 -2 3.5 -3t3.5 -3q-3 -18 -12.5 -52t-23.5 -76t-31.5 -89t-37.5 -90t-40.5 -79t-41.5 -57q-5 -5 -9.5 -3t-9.5 -1q25 43 54 99.5t56 117.5t50.5 122.5t38.5 113.5z" />
    <glyph glyph-name="Euro" unicode="&#x20ac;" horiz-adv-x="657" 
d="M31 452h66q11 63 35.5 114t60.5 87.5t81.5 56t99.5 19.5q51 0 92.5 -15.5t72 -43t50 -65t25.5 -82.5h-94q-12 58 -48.5 91t-98.5 33q-75 0 -118.5 -52t-57.5 -143h203v-57h-209q-1 -10 -1 -20v-20v-21t1 -20h209v-57h-202q16 -94 63 -142t120 -48q69 0 107 45t46 114h90
q-2 -50 -19.5 -94t-49 -76.5t-75.5 -51.5t-98 -19t-101 18t-84 53t-63 85.5t-37 115.5h-66v57h59q-1 10 -1 20v21v20t1 20h-59v57z" />
    <glyph glyph-name="trademark" unicode="&#x2122;" horiz-adv-x="884" 
d="M758 360l-2 2q-11 19 -17.5 54t-13 76.5t-15 85t-24.5 80.5q-33 -11 -51 -36.5t-28 -58t-14.5 -66.5t-10.5 -62.5t-17 -47t-33 -18.5q-19 0 -28.5 13t-15.5 34.5t-11 49.5t-14.5 58.5t-27 61t-47.5 57.5q-24 -21 -34 -45t-12 -49.5t1 -51t3 -49t-5 -44t-22 -35.5
q8 -12 7 -9t-1 11t-0.5 38t-0.5 69.5t2.5 83.5t9 81t17.5 61t29 24q23 0 36.5 -19t22 -47.5t15.5 -62t16.5 -62t25.5 -47.5t44 -19q17 0 27.5 19t18 47.5t14.5 62t16.5 62t24.5 47.5t39 19q17 0 27 -16.5t16.5 -42.5t9.5 -59t5 -65t4.5 -61t7.5 -48v-82zM251 728
q-12 -6 -22 -12t-15 -14q-25 -23 -32 -62t-5.5 -86.5t7.5 -100t8 -101.5l-9 -4l-4 2q-11 25 -11.5 71.5t0 98t-3 99t-20.5 75.5q-8 18 -23.5 24t-29.5 11l1 -3l-2 -3q15 4 34 6.5t40.5 3.5t44 0t42.5 -5z" />
    <glyph glyph-name="minus" unicode="&#x2212;" horiz-adv-x="294" 
d="M250 311q0 -17 -10.5 -24.5t-26 -9.5t-33 -1t-32.5 1q-34 0 -50.5 -1t-22.5 1.5t-5.5 9.5t0.5 24t5 24.5t15.5 9.5t27.5 1t42 -1q7 0 22 1t30 -1t26.5 -9.5t11.5 -24.5z" />
    <glyph glyph-name="uniFB01" unicode="&#xfb01;" horiz-adv-x="400" 
d="M230 251q-16 -23 -25 -53.5t-13.5 -63.5t-6 -65t-1.5 -59q-2 0 -3.5 0.5t-3.5 0.5q-18 0 -32 -11t-23 -11q-4 0 -6 3.5t-3 8t-1.5 9.5t-0.5 7q-5 0 -8 7t-4.5 15t-1.5 16.5v11.5q0 32 3 65t3 65v16.5t-4 15.5q-2 12 -8 18t-12.5 10.5t-12 11t-5.5 20.5q0 2 1.5 7.5
t3.5 12.5t3.5 13t2.5 8q5 19 15.5 51t23 65.5t27 62.5t28.5 42l79 -3q-2 -11 -1.5 -22t-1 -21.5t-6.5 -19t-16 -12.5q-2 -6 -7.5 -7t-11.5 -1t-12 -1t-8 -6q-4 -9 -5.5 -23.5t-1.5 -25.5q0 -3 0.5 -12t2 -19t4 -18t5.5 -10q0 -4 4 -6t9.5 -2.5t10.5 -0.5h7q14 0 28.5 0.5
t28.5 0.5h10t10 -1q7 5 14 5q13 0 25.5 -9.5t20.5 -19.5v-279q-10 -6 -22.5 -11.5t-24.5 -5.5q-8 0 -20.5 6t-19.5 11v250q-11 -8 -20 -17t-17 -20zM337 534q0 -11 -8.5 -19t-19.5 -8t-18 7.5t-7 18.5t7 19t18 8t19.5 -7.5t8.5 -18.5z" />
    <glyph glyph-name="uniFB02" unicode="&#xfb02;" horiz-adv-x="429" 
d="M388 259q9 -21 6 -55q-2 -29 -15.5 -78t-47.5 -121q-32 48 -42.5 103t-10.5 103q0 55 11 110q-13 25 -18 60q-5 30 -2.5 73.5t20.5 102.5q2 7 8 8t12.5 1.5t12.5 2.5t9 10q2 -5 6 -5t8 1t7.5 1t5.5 -5q24 -61 31.5 -117t7.5 -100q-1 -51 -9 -95zM245 548q-3 -17 -3 -29
t-1.5 -21t-5.5 -15t-15 -10q-2 -6 -7.5 -7t-12 -1t-12 -1t-7.5 -6q-5 -16 -6 -34t0.5 -34t4.5 -27t6 -13q0 -11 12.5 -10.5t26.5 -0.5t26 -8.5t12 -33.5q0 -21 -6 -32.5t-14.5 -22.5t-19 -25t-19 -39t-14.5 -65t-6 -103q-16 3 -28.5 -4.5t-22 -13t-15.5 -2.5t-7 27
q-8 1 -11 15t-3 35.5t2 47t3 48.5t1 41.5t-4 24.5q-1 13 -7 18.5t-13 10t-12.5 11t-5.5 20.5q0 2 4.5 19.5t12.5 43t18.5 56t22 59t24 51.5t23.5 33z" />
    <glyph glyph-name="glyph197" horiz-adv-x="902" 
d="M296 480h5h16h5h-26zM271 480h4h13h-17zM224 480h13h-13zM313 169v40q-4 8 -4.5 16t0 16.5t0.5 17.5t-4 18l142 2l2 11l-148 -1q-1 -3 -9.5 -2t-8.5 -1q-1 -4 2 -5.5t5 -5.5q2 -3 2 -8.5v-7.5q-2 -5 -6.5 -5.5t-6.5 -2.5q-3 -5 -1.5 -14.5t1.5 -40.5v-20t2.5 -16.5
t9.5 -12.5t22 -8l114 3q13 -1 21 7q10 13 2 25zM651 175v40q-4 8 -4.5 16t0.5 16.5t1 17.5t-4 18l141 2l3 11l-149 -2q-1 -2 -9 -1t-9 -1q0 -4 2.5 -5.5t4.5 -5.5q2 -3 2.5 -8.5t-0.5 -7.5q-2 -5 -6.5 -5.5t-5.5 -2.5q-3 -5 -1.5 -14.5t1.5 -40.5v-20.5t2.5 -17t9.5 -12.5
t21 -7l115 3q12 -3 20 7q9 12 3 25zM142 274q-1 -1 -1 -2q-1 -1 -1 -4v-5q0 -1 1 -2q-2 1 -5 2q-6 2 -8 3q-9 2 -20 4.5t-21 4.5q-11 2 -23 3v5l72 -17v11h25v7h-3q-5 0 -8 1q-9 3 -22.5 7t-25.5 6q-5 1 -11.5 1.5t-11.5 1.5q-6 1 -13 2l-2 -10q2 0 4 -1t8 -3q8 -2 17 -3
t17 -2q10 -1 19 -1v-5q-2 0 -5 1q-2 1 -5.5 1t-5.5 1q-8 2 -17.5 3t-17.5 3q-10 2 -19 4v-12l4 29l30 -8q13 -3 28 -6t29 -5q2 -1 9 -1q3 0 5 -1l1 -13h-23zM475 544l-129 -9l23 -5l149 10zM562 536l-37 5l9 -6l29 -3zM870 271q0 -3 -2 -3t-5 -1t-6 -4t-4 -11q-2 -11 -2 -33
v-56q0 -20 -0.5 -36l-1 -32l-1 -32t-1.5 -36q0 -5 -1 -10q-2 -11 -8 -22q-5 -1 -27 -1.5t-55 -1t-73 -1t-81 -1t-80 -1t-69.5 -1t-49 0l-18.5 0.5h-135h-13q-5 0 -11.5 0.5t-12.5 0.5q2 63 2 112.5t-0.5 91t-1.5 76t-2 66.5q6 0 11 -2t10 -2t9.5 2.5t9.5 10.5
q8 -9 40.5 -8.5t71.5 3.5t75.5 6t52.5 -1v12q6 -4 17 -4.5t30.5 0.5t48 2.5t69.5 1.5q9 0 17 13q4 -3 16.5 -4t27 -1t27.5 2.5t18 7.5q15 -3 21 -6q4 -2 5 -3h21q2 3 6 6q8 6 15 6q9 0 8.5 4t-0.5 12q0 4 -3 13t-6.5 19t-7 18.5t-4.5 10.5q20 -29 28 -57t10 -50.5t0.5 -37
t-0.5 -16.5q1 -3 4 -2.5t5 -0.5t4 -5t2 -15zM813 460q-5 4 -7 8t-18 4q-2 0 -15 -1t-30.5 -3t-36.5 -5t-33 -8h13l-18 4.5t-11.5 2.5t-13.5 1h-25h-165q-24 -1 -53 -2q-25 -1 -59 -1.5t-75 -0.5h-88l7 -7t2 -5l3 -13q2 -23 3.5 -54t2.5 -60q1 -33 2 -69q0 -5 -0.5 -22.5
t-1.5 -37.5q-1 -24 -2 -52v-9v-23q1 -32 1 -57q0 -21 -1 -37.5t-4 -14.5q-9 6 -28.5 13.5t-51.5 24.5q-15 8 -29 11t-18 10l-2 44q-1 17 -1.5 30.5t-0.5 14.5v37v37v33.5v25.5q0 2 -3.5 1.5t-3.5 1.5v14v13q0 3 3.5 2t4.5 2q1 18 4 48t11 58.5t21.5 49t34.5 20.5
q19 0 25 -8.5t9 -8.5h21q1 0 1.5 2t9.5 4.5t31.5 4.5t67.5 2q24 0 62 0.5t81 1.5t86 1.5t76 0.5h51v17l-11 2q-6 -5 -8 -5t-1 0t3 -1.5t4 -8.5l-22 20l9 -20q-2 3 -14 8.5t-32 11t-48 10t-62 4.5t-56.5 -3t-39 -6t-29.5 -6t-28 -3q-25 0 -37 -2t-18 -4t-8.5 -4.5t-8.5 -3
t-18.5 0.5t-38.5 5q13 0 23 2.5t19.5 7t20.5 9.5t28 11q2 -5 3 -7t1 -3t-1 -1.5t-1 -2.5l14 -3q2 3 2 6.5v5.5q0 3 -1 5q32 4 63 8q26 3 54 6t48 3q1 0 25.5 -1t56 -4t60 -9t36.5 -15q3 1 4 0.5t2 -0.5t2.5 2.5t4.5 9.5q12 -5 21 -7t17 -5t15 -7.5t15 -14.5h-68
q16 -11 28.5 -14t21.5 -1q11 1 18 7q5 -1 4.5 -6t4.5 -7q6 -1 8 6q1 3 0 7q10 0 8 -7q-1 -3 -4 -6q16 -3 26.5 -1.5t18.5 2t14 -2t13 -14.5z" />
    <glyph glyph-name="glyph214" horiz-adv-x="0" 
 />
  </font>
</defs>
</svg>
